SplineFontDB: 3.2
FontName: ReliefSingleLine-Regular
FullName: Relief SingleLine Regular
FamilyName: Relief SingleLine
Weight: Regular
Copyright: Copyright 2021 The Relief SingleLine Project Authors (https://github.com/isdat-type/Relief-SingleLine)
Version: 1.1
StyleMapFamilyName: 
ItalicAngle: 0
UnderlinePosition: -200
UnderlineWidth: 40
Ascent: 800
Descent: 200
InvalidEm: 1
UFOAscent: 745
UFODescent: -190
LayerCount: 2
Layer: 0 0 "public.background" 1 "glyphs.public.background"
Layer: 1 0 "public.default" 0 "glyphs"
PreferredKerning: 1
StyleMap: 0x0040
FSType: 0
OS2Version: 0
OS2_WeightWidthSlopeOnly: 0
OS2_UseTypoMetrics: 0
CreationTime: 1639220288
ModificationTime: 1639220327
PfmFamily: 16
TTFWeight: 400
TTFWidth: 5
LineGap: 0
VLineGap: 0
OS2TypoAscent: 1030
OS2TypoAOffset: 0
OS2TypoDescent: -290
OS2TypoDOffset: 0
OS2TypoLinegap: 0
OS2WinAscent: 1030
OS2WinAOffset: 0
OS2WinDescent: 290
OS2WinDOffset: 0
HheadAscent: 1030
HheadAOffset: 0
HheadDescent: -290
HheadDOffset: 0
OS2CapHeight: 680
OS2XHeight: 555
Lookup: 258 0 0 "'kern' Horizontal Kerning lookup 0" { "'kern' Horizontal Kerning lookup 0 subtable"  } ['kern' ('DFLT' <'dflt' > ) ]
DEI: 91125
KernClass3: 149 137 "'kern' Horizontal Kerning lookup 0 subtable"
 2 "public.kern1.A" "A Aacute Abreve Acircumflex Adieresis Agrave Amacron Aogonek Aring Atilde Delta uni25B3"
 2 "public.kern1.B" "B"
 2 "public.kern1.E" "AE E Eacute Ebreve Ecaron Ecircumflex Edieresis Edotaccent Egrave Emacron Eogonek OE"
 2 "public.kern1.F" "F"
 2 "public.kern1.Germandbls" "uni1E9E"
 2 "public.kern1.H" "H Hcircumflex I J uni004A0301 Jcircumflex M N Nacute Ncaron uni0145 Eng Ntilde one .notdef uni27F3 uni25A1 paragraph Jdotaccent"
 2 "public.kern1.Hbar" "Hbar"
 2 "public.kern1.I" "Iacute Ibreve Icircumflex Idieresis Idotaccent Igrave Imacron Iogonek Itilde"
 2 "public.kern1.K" "K uni0136"
 2 "public.kern1.L" "L Lacute Lcaron uni013B Ldot Lslash Ldot.ss04 Ldot.ss05"

StartChar: A
Encoding: 1 65 0
GlifName: A_
Width: 676
VWidth: 0
Flags: W
LayerCount: 2
Back
SplineSet
606 0 m 257
 342 675 l 257
 338 675 l 257
 70 0 l 1281
155 213 m 257
 522 213 l 1281
EndSplineSet
Fore
SplineSet
155 213 m 257
 522 213 l 1281
606 0 m 257
 342 675 l 257
 338 675 l 257
 70 0 l 1281
EndSplineSet
EndChar

StartChar: AE
Encoding: 2 198 1
GlifName: A_E_
Width: 919
VWidth: 0
Flags: W
LayerCount: 2
Back
SplineSet
41 10 m 257
 474 670 l 257
 478 670 l 1281
478 223 m 257
 181 223 l 1281
819 10 m 257
 478 10 l 257
 478 670 l 257
 819 670 l 1281
802 356 m 257
 478 356 l 1281
EndSplineSet
Fore
SplineSet
182 213 m 257
 488 213 l 1281
45 0 m 257
 474 670 l 257
 488 670 l 1281
829 10 m 257
 488 10 l 257
 488 670 l 257
 829 670 l 1281
488 356 m 257
 812 356 l 1281
EndSplineSet
PickledDataWithLists: "(dp0
Vcom.schriftgestaltung.Glyphs.leftMetricsKey
p1
V=A-25
p2
sVcom.schriftgestaltung.Glyphs.rightMetricsKey
p3
VE
p4
s."
EndChar

StartChar: Aacute
Encoding: 3 193 2
GlifName: A_acute
Width: 676
VWidth: 0
Flags: W
LayerCount: 2
Fore
SplineSet
155 213 m 257
 522 213 l 1281
606 0 m 257
 342 675 l 257
 338 675 l 257
 70 0 l 1281
272 782 m 257
 407 915 l 1281
EndSplineSet
EndChar

StartChar: Abreve
Encoding: 4 258 3
GlifName: A_breve
Width: 676
VWidth: 0
Flags: W
LayerCount: 2
Fore
SplineSet
155 213 m 257
 522 213 l 1281
606 0 m 257
 342 675 l 257
 338 675 l 257
 70 0 l 1281
220 887 m 257
 220 832 272 805 338 805 c 256
 404 805 460 831 460 886 c 1280
EndSplineSet
EndChar

StartChar: Acircumflex
Encoding: 5 194 4
GlifName: A_circumflex
Width: 676
VWidth: 0
Flags: W
LayerCount: 2
Fore
SplineSet
155 213 m 257
 522 213 l 1281
606 0 m 257
 342 675 l 257
 338 675 l 257
 70 0 l 1281
451 773 m 257
 342 899 l 257
 338 899 l 257
 229 773 l 1281
EndSplineSet
Guideline: "" "" 323 -64 0 0 0
EndChar

StartChar: Adieresis
Encoding: 6 196 5
GlifName: A_dieresis
Width: 676
VWidth: 0
Flags: W
LayerCount: 2
Fore
SplineSet
155 213 m 257
 522 213 l 1281
606 0 m 257
 342 675 l 257
 338 675 l 257
 70 0 l 1281
269 785 m 257
 269 910 l 1281
411 785 m 257
 411 910 l 1281
EndSplineSet
EndChar

StartChar: Agrave
Encoding: 7 192 6
GlifName: A_grave
Width: 676
VWidth: 0
Flags: W
LayerCount: 2
Fore
SplineSet
155 213 m 257
 522 213 l 1281
606 0 m 257
 342 675 l 257
 338 675 l 257
 70 0 l 1281
272 916 m 257
 407 783 l 1281
EndSplineSet
EndChar

StartChar: Amacron
Encoding: 8 256 7
GlifName: A_macron
Width: 676
VWidth: 0
Flags: W
LayerCount: 2
Fore
SplineSet
155 213 m 257
 522 213 l 1281
606 0 m 257
 342 675 l 257
 338 675 l 257
 70 0 l 1281
450 828 m 257
 229 828 l 1281
EndSplineSet
EndChar

StartChar: Aogonek
Encoding: 9 260 8
GlifName: A_ogonek
Width: 676
VWidth: 0
Flags: W
LayerCount: 2
Fore
SplineSet
155 213 m 257
 522 213 l 1281
606 0 m 257
 342 675 l 257
 338 675 l 257
 70 0 l 1281
647 -184 m 256
 634 -192 609 -200 585 -200 c 256
 535 -200 508 -175 508 -130 c 256
 508 -87 559 -38 606 0 c 1281
EndSplineSet
EndChar

StartChar: Aring
Encoding: 10 197 9
GlifName: A_ring
Width: 676
VWidth: 0
Flags: W
LayerCount: 2
Fore
SplineSet
155 213 m 257
 522 213 l 1281
606 0 m 257
 342 675 l 257
 338 675 l 257
 70 0 l 1281
339 916 m 257
 298 916 266 883 266 843 c 256
 266 803 299 770 339 770 c 256
 380 770 413 803 413 843 c 256
 413 883 380 916 339 916 c 1281
EndSplineSet
EndChar

StartChar: Atilde
Encoding: 11 195 10
GlifName: A_tilde
Width: 676
VWidth: 0
Flags: W
LayerCount: 2
Fore
SplineSet
155 213 m 257
 522 213 l 1281
606 0 m 257
 342 675 l 257
 338 675 l 257
 70 0 l 1281
201 812 m 257
 223 849 250 860 275 860 c 256
 322 860 352 812 405 812 c 256
 430 812 456 821 479 859 c 1281
EndSplineSet
EndChar

StartChar: B
Encoding: 12 66 11
GlifName: B_
Width: 634
VWidth: 0
Flags: W
LayerCount: 2
Back
SplineSet
330 356 m 257
 428 356 514 406 514 520 c 256
 514 601 471 680 301 680 c 258
 140 680 l 257
 140 0 l 1281
140 0 m 257
 302 0 l 258
 475 0 534 77 534 179 c 256
 534 286 469 356 310 356 c 258
 140 356 l 1281
EndSplineSet
Fore
SplineSet
140 10 m 257
 302 10 l 258
 475 10 534 85 534 184 c 256
 534 288 469 356 310 356 c 258
 140 356 l 1281
330 356 m 257
 428 356 514 404 514 515 c 256
 514 593 471 670 301 670 c 258
 140 670 l 257
 140 10 l 1281
EndSplineSet
PickledDataWithLists: "(dp0
Vcom.schriftgestaltung.Glyphs.leftMetricsKey
p1
VH
p2
s."
EndChar

StartChar: C
Encoding: 13 67 12
GlifName: C_
Width: 665
VWidth: 0
Flags: W
LayerCount: 2
Back
SplineSet
566 537 m 257
 529 631 460 680 358 680 c 256
 187 680 95 544 95 341 c 256
 95 117 208 0 358 0 c 256
 475 0 552 71 580 153 c 1281
EndSplineSet
Refer: 0 -1 N 1 0 0 1 0 0 2
Fore
SplineSet
566 537 m 257
 529 631 460 680 358 680 c 256
 187 680 95 544 95 341 c 256
 95 117 208 0 358 0 c 256
 475 0 552 71 580 153 c 1281
EndSplineSet
PickledDataWithLists: "(dp0
Vcom.schriftgestaltung.Glyphs.leftMetricsKey
p1
VO
p2
sVcom.schriftgestaltung.Glyphs.rightMetricsKey
p3
V=O-10
p4
s."
EndChar

StartChar: Cacute
Encoding: 15 262 14
GlifName: C_acute
Width: 665
VWidth: 0
Flags: W
LayerCount: 2
Fore
SplineSet
566 537 m 257
 529 631 460 680 358 680 c 256
 187 680 95 544 95 341 c 256
 95 117 208 0 358 0 c 256
 475 0 552 71 580 153 c 1281
289 782 m 257
 424 915 l 1281
EndSplineSet
EndChar

StartChar: Ccaron
Encoding: 16 268 15
GlifName: C_caron
Width: 665
VWidth: 0
Flags: W
LayerCount: 2
Fore
SplineSet
566 537 m 257
 529 631 460 680 358 680 c 256
 187 680 95 544 95 341 c 256
 95 117 208 0 358 0 c 256
 475 0 552 71 580 153 c 1281
246 901 m 257
 355 775 l 257
 359 775 l 257
 468 901 l 1281
EndSplineSet
EndChar

StartChar: Ccedilla
Encoding: 17 199 16
GlifName: C_cedilla
Width: 665
VWidth: 0
Flags: W
LayerCount: 2
Fore
SplineSet
566 537 m 257
 529 631 460 680 358 680 c 256
 187 680 95 544 95 341 c 256
 95 117 208 0 358 0 c 256
 475 0 552 71 580 153 c 1281
272 -177 m 256
 285 -184 304 -191 333 -191 c 256
 385 -191 417 -168 417 -132 c 256
 417 -95 386 -78 332 -78 c 258
 306 -78 l 257
 352 0 l 1281
EndSplineSet
EndChar

StartChar: Ccircumflex
Encoding: 18 264 17
GlifName: C_circumflex
Width: 665
VWidth: 0
Flags: W
LayerCount: 2
Fore
SplineSet
566 537 m 257
 529 631 460 680 358 680 c 256
 187 680 95 544 95 341 c 256
 95 117 208 0 358 0 c 256
 475 0 552 71 580 153 c 1281
468 773 m 257
 359 899 l 257
 355 899 l 257
 246 773 l 1281
EndSplineSet
EndChar

StartChar: Cdotaccent
Encoding: 19 266 18
GlifName: C_dotaccent
Width: 665
VWidth: 0
Flags: W
LayerCount: 2
Fore
SplineSet
566 537 m 257
 529 631 460 680 358 680 c 256
 187 680 95 544 95 341 c 256
 95 117 208 0 358 0 c 256
 475 0 552 71 580 153 c 1281
357 803 m 257
 357 910 l 1281
EndSplineSet
EndChar

StartChar: D
Encoding: 20 68 19
GlifName: D_
Width: 693
VWidth: 0
Flags: W
LayerCount: 2
Back
SplineSet
140 0 m 257
 260 0 l 258
 440 0 607 96 608 339 c 256
 609 549 484 680 287 680 c 258
 140 680 l 1281
140 0 m 257
 140 680 l 1281
EndSplineSet
Fore
SplineSet
140 10 m 257
 140 670 l 1281
140 10 m 257
 260 10 l 258
 440 10 607 103 608 339 c 256
 609 543 484 670 287 670 c 258
 140 670 l 1281
EndSplineSet
PickledDataWithLists: "(dp0
Vcom.schriftgestaltung.Glyphs.leftMetricsKey
p1
VH
p2
sVcom.schriftgestaltung.Glyphs.rightMetricsKey
p3
V=O-10
p4
s."
EndChar

StartChar: Dcaron
Encoding: 21 270 20
GlifName: D_caron
Width: 693
VWidth: 0
Flags: W
LayerCount: 2
Fore
SplineSet
140 10 m 257
 140 670 l 1281
140 10 m 257
 260 10 l 258
 440 10 607 103 608 339 c 256
 609 543 484 670 287 670 c 258
 140 670 l 1281
243 901 m 257
 352 775 l 257
 356 775 l 257
 465 901 l 1281
EndSplineSet
EndChar

StartChar: Dcroat
Encoding: 22 272 21
GlifName: D_croat
Width: 713
VWidth: 0
Flags: W
LayerCount: 2
Fore
SplineSet
45 357 m 257
 387 357 l 1281
160 10 m 257
 160 670 l 1281
160 10 m 257
 280 10 l 258
 460 10 627 103 628 339 c 256
 629 543 504 670 307 670 c 258
 160 670 l 1281
EndSplineSet
EndChar

StartChar: Delta
Encoding: 23 948 22
GlifName: D_elta
Width: 700
VWidth: 0
Flags: W
LayerCount: 2
Back
SplineSet
100 8 m 257
 100 0 l 257
 600 0 l 257
 600 10 l 257
 355 675 l 257
 345 675 l 257
 100 10 l 1281
EndSplineSet
Fore
SplineSet
100 18 m 257
 100 10 l 257
 600 10 l 257
 600 20 l 257
 355 675 l 257
 345 675 l 257
 100 20 l 1281
EndSplineSet
EndChar

StartChar: E
Encoding: 24 69 23
GlifName: E_
Width: 591
VWidth: 0
Flags: W
LayerCount: 2
Back
SplineSet
501 10 m 257
 140 10 l 257
 140 670 l 257
 501 670 l 1281
140 356 m 257
 484 356 l 1281
EndSplineSet
Fore
SplineSet
501 10 m 257
 140 10 l 257
 140 670 l 257
 501 670 l 1281
140 356 m 257
 484 356 l 1281
EndSplineSet
PickledDataWithLists: "(dp0
Vcom.schriftgestaltung.Glyphs.leftMetricsKey
p1
VH
p2
s."
EndChar

StartChar: Eacute
Encoding: 25 201 24
GlifName: E_acute
Width: 591
VWidth: 0
Flags: W
LayerCount: 2
Fore
SplineSet
501 10 m 257
 140 10 l 257
 140 670 l 257
 501 670 l 1281
140 356 m 257
 484 356 l 1281
248 782 m 257
 383 915 l 1281
EndSplineSet
EndChar

StartChar: Ebreve
Encoding: 26 276 25
GlifName: E_breve
Width: 591
VWidth: 0
Flags: W
LayerCount: 2
Fore
SplineSet
501 10 m 257
 140 10 l 257
 140 670 l 257
 501 670 l 1281
140 356 m 257
 484 356 l 1281
196 887 m 257
 196 832 248 805 314 805 c 256
 380 805 436 831 436 886 c 1280
EndSplineSet
EndChar

StartChar: Ecaron
Encoding: 27 282 26
GlifName: E_caron
Width: 591
VWidth: 0
Flags: W
LayerCount: 2
Fore
SplineSet
501 10 m 257
 140 10 l 257
 140 670 l 257
 501 670 l 1281
140 356 m 257
 484 356 l 1281
205 901 m 257
 314 775 l 257
 318 775 l 257
 427 901 l 1281
EndSplineSet
EndChar

StartChar: Ecircumflex
Encoding: 28 202 27
GlifName: E_circumflex
Width: 591
VWidth: 0
Flags: W
LayerCount: 2
Fore
SplineSet
501 10 m 257
 140 10 l 257
 140 670 l 257
 501 670 l 1281
140 356 m 257
 484 356 l 1281
427 773 m 257
 318 899 l 257
 314 899 l 257
 205 773 l 1281
EndSplineSet
Guideline: "" "" 286 -64 0 0 0
EndChar

StartChar: Edieresis
Encoding: 29 203 28
GlifName: E_dieresis
Width: 591
VWidth: 0
Flags: W
LayerCount: 2
Fore
SplineSet
501 10 m 257
 140 10 l 257
 140 670 l 257
 501 670 l 1281
140 356 m 257
 484 356 l 1281
245 785 m 257
 245 910 l 1281
387 785 m 257
 387 910 l 1281
EndSplineSet
EndChar

StartChar: Edotaccent
Encoding: 30 278 29
GlifName: E_dotaccent
Width: 591
VWidth: 0
Flags: W
LayerCount: 2
Fore
SplineSet
501 10 m 257
 140 10 l 257
 140 670 l 257
 501 670 l 1281
140 356 m 257
 484 356 l 1281
316 803 m 257
 316 910 l 1281
EndSplineSet
EndChar

StartChar: Egrave
Encoding: 31 200 30
GlifName: E_grave
Width: 591
VWidth: 0
Flags: W
LayerCount: 2
Fore
SplineSet
501 10 m 257
 140 10 l 257
 140 670 l 257
 501 670 l 1281
140 356 m 257
 484 356 l 1281
248 916 m 257
 383 783 l 1281
EndSplineSet
EndChar

StartChar: Emacron
Encoding: 32 274 31
GlifName: E_macron
Width: 591
VWidth: 0
Flags: W
LayerCount: 2
Fore
SplineSet
501 10 m 257
 140 10 l 257
 140 670 l 257
 501 670 l 1281
140 356 m 257
 484 356 l 1281
426 828 m 257
 205 828 l 1281
EndSplineSet
EndChar

StartChar: Eng
Encoding: 33 330 32
GlifName: E_ng
Width: 740
VWidth: 0
Flags: W
LayerCount: 2
Fore
SplineSet
442 -163 m 257
 457 -177 481 -188 514 -188 c 256
 577 -188 600 -150 600 -81 c 258
 600 0 l 1281
140 0 m 257
 140 675 l 257
 144 675 l 257
 596 5 l 257
 600 5 l 257
 599 680 l 1281
EndSplineSet
PickledDataWithLists: "(dp0
Vcom.schriftgestaltung.Glyphs.leftMetricsKey
p1
VN
p2
sVcom.schriftgestaltung.Glyphs.rightMetricsKey
p3
g2
s."
EndChar

StartChar: Eogonek
Encoding: 34 280 33
GlifName: E_ogonek
Width: 591
VWidth: 0
Flags: W
LayerCount: 2
Fore
SplineSet
501 10 m 257
 140 10 l 257
 140 670 l 257
 501 670 l 1281
140 356 m 257
 484 356 l 1281
482 -174 m 256
 469 -182 444 -190 420 -190 c 256
 370 -190 343 -165 343 -120 c 256
 343 -77 394 -28 441 10 c 1281
EndSplineSet
EndChar

StartChar: Eth
Encoding: 35 208 34
GlifName: E_th
Width: 713
VWidth: 0
Flags: W
LayerCount: 2
Fore
SplineSet
45 357 m 257
 387 357 l 1281
160 10 m 257
 160 670 l 1281
160 10 m 257
 280 10 l 258
 460 10 627 103 628 339 c 256
 629 543 504 670 307 670 c 258
 160 670 l 1281
EndSplineSet
PickledDataWithLists: "(dp0
Vcom.schriftgestaltung.Glyphs.rightMetricsKey
p1
V=O-10
p2
s."
EndChar

StartChar: Euro
Encoding: 36 8364 35
GlifName: E_uro
Width: 652
VWidth: 0
Flags: W
LayerCount: 2
Back
SplineSet
582 42 m 257
 535 11 486 0 432 0 c 256
 240 0 167 144 167 341 c 256
 167 571 266 680 429 680 c 256
 485 680 535 667 573 641 c 1281
60 287 m 257
 489 287 l 1281
61 425 m 257
 489 425 l 1281
EndSplineSet
Fore
SplineSet
60 287 m 257
 489 287 l 1281
61 425 m 257
 489 425 l 1281
582 42 m 257
 535 11 486 0 432 0 c 256
 240 0 167 144 167 341 c 256
 167 571 266 680 427 680 c 256
 485 680 537 666 577 631 c 1281
EndSplineSet
Guideline: "" "" 8 632 0 0 0
EndChar

StartChar: F
Encoding: 37 70 36
GlifName: F_
Width: 551
VWidth: 0
Flags: W
LayerCount: 2
Back
SplineSet
140 670 m 257
 481 670 l 1281
140 0 m 257
 140 670 l 1281
140 347 m 257
 464 347 l 1281
EndSplineSet
Fore
SplineSet
140 0 m 257
 140 670 l 257
 481 670 l 1281
140 347 m 257
 464 347 l 1281
EndSplineSet
PickledDataWithLists: "(dp0
Vcom.schriftgestaltung.Glyphs.leftMetricsKey
p1
VH
p2
s."
EndChar

StartChar: G
Encoding: 38 71 37
GlifName: G_
Width: 676
VWidth: 0
Flags: W
LayerCount: 2
Back
SplineSet
566 537 m 257
 529 631 460 680 358 680 c 256
 196 680 95 556 95 340 c 256
 95 152 169 0 363 0 c 256
 443 0 509 26 560 57 c 257
 560 334 l 257
 383 334 l 1281
EndSplineSet
Fore
SplineSet
566 537 m 257
 529 631 460 680 358 680 c 256
 196 680 95 556 95 340 c 256
 95 152 169 0 363 0 c 256
 443 0 509 26 560 57 c 257
 560 334 l 257
 383 334 l 1281
EndSplineSet
PickledDataWithLists: "(dp0
Vcom.schriftgestaltung.Glyphs.leftMetricsKey
p1
VO
p2
s."
EndChar

StartChar: Gbreve
Encoding: 39 286 38
GlifName: G_breve
Width: 676
VWidth: 0
Flags: W
LayerCount: 2
Fore
SplineSet
566 537 m 257
 529 631 460 680 358 680 c 256
 196 680 95 556 95 340 c 256
 95 152 169 0 363 0 c 256
 443 0 509 26 560 57 c 257
 560 334 l 257
 383 334 l 1281
236 887 m 257
 236 832 288 805 354 805 c 256
 420 805 476 831 476 886 c 1280
EndSplineSet
EndChar

StartChar: Gcircumflex
Encoding: 40 284 39
GlifName: G_circumflex
Width: 676
VWidth: 0
Flags: W
LayerCount: 2
Fore
SplineSet
566 537 m 257
 529 631 460 680 358 680 c 256
 196 680 95 556 95 340 c 256
 95 152 169 0 363 0 c 256
 443 0 509 26 560 57 c 257
 560 334 l 257
 383 334 l 1281
467 773 m 257
 358 899 l 257
 354 899 l 257
 245 773 l 1281
EndSplineSet
EndChar

StartChar: Gdotaccent
Encoding: 41 288 40
GlifName: G_dotaccent
Width: 676
VWidth: 0
Flags: W
LayerCount: 2
Fore
SplineSet
566 537 m 257
 529 631 460 680 358 680 c 256
 196 680 95 556 95 340 c 256
 95 152 169 0 363 0 c 256
 443 0 509 26 560 57 c 257
 560 334 l 257
 383 334 l 1281
356 803 m 257
 356 910 l 1281
EndSplineSet
EndChar

StartChar: H
Encoding: 42 72 41
GlifName: H_
Width: 706
VWidth: 0
Flags: W
LayerCount: 2
Back
SplineSet
566 0 m 257
 566 680 l 1281
140 0 m 257
 140 680 l 1281
140 365 m 257
 566 365 l 1281
EndSplineSet
Fore
SplineSet
140 0 m 257
 140 680 l 1281
140 365 m 257
 566 365 l 1281
566 0 m 257
 566 680 l 1281
EndSplineSet
EndChar

StartChar: Hbar
Encoding: 43 294 42
GlifName: H_bar
Width: 706
VWidth: 0
Flags: W
LayerCount: 2
Fore
SplineSet
40 528 m 257
 666 528 l 1281
140 0 m 257
 140 680 l 1281
140 365 m 257
 566 365 l 1281
566 0 m 257
 566 680 l 1281
EndSplineSet
EndChar

StartChar: Hcircumflex
Encoding: 44 292 43
GlifName: H_circumflex
Width: 706
VWidth: 0
Flags: W
LayerCount: 2
Fore
SplineSet
140 0 m 257
 140 680 l 1281
140 365 m 257
 566 365 l 1281
566 0 m 257
 566 680 l 1281
464 773 m 257
 355 899 l 257
 351 899 l 257
 242 773 l 1281
EndSplineSet
EndChar

StartChar: I
Encoding: 45 73 44
GlifName: I_
Width: 280
VWidth: 0
Flags: W
LayerCount: 2
Back
SplineSet
140 0 m 257
 140 680 l 257
 86 680 l 1281
EndSplineSet
Fore
SplineSet
140 0 m 257
 140 680 l 1281
EndSplineSet
PickledDataWithLists: "(dp0
Vcom.schriftgestaltung.Glyphs.leftMetricsKey
p1
VH
p2
sVcom.schriftgestaltung.Glyphs.rightMetricsKey
p3
g2
s."
EndChar

StartChar: Iacute
Encoding: 46 205 45
GlifName: I_acute
Width: 280
VWidth: 0
Flags: W
LayerCount: 2
Fore
SplineSet
140 0 m 257
 140 680 l 1281
72 782 m 257
 207 915 l 1281
EndSplineSet
EndChar

StartChar: Ibreve
Encoding: 47 300 46
GlifName: I_breve
Width: 280
VWidth: 0
Flags: W
LayerCount: 2
Fore
SplineSet
140 0 m 257
 140 680 l 1281
20 887 m 257
 20 832 72 805 138 805 c 256
 204 805 260 831 260 886 c 1280
EndSplineSet
EndChar

StartChar: Icircumflex
Encoding: 48 206 47
GlifName: I_circumflex
Width: 280
VWidth: 0
Flags: W
LayerCount: 2
Fore
SplineSet
140 0 m 257
 140 680 l 1281
251 773 m 257
 142 899 l 257
 138 899 l 257
 29 773 l 1281
EndSplineSet
Guideline: "" "" 131 -64 0 0 0
EndChar

StartChar: Idieresis
Encoding: 49 207 48
GlifName: I_dieresis
Width: 280
VWidth: 0
Flags: W
LayerCount: 2
Fore
SplineSet
140 0 m 257
 140 680 l 1281
69 785 m 257
 69 910 l 1281
211 785 m 257
 211 910 l 1281
EndSplineSet
EndChar

StartChar: Idotaccent
Encoding: 50 304 49
GlifName: I_dotaccent
Width: 280
VWidth: 0
Flags: W
LayerCount: 2
Fore
SplineSet
140 0 m 257
 140 680 l 1281
140 803 m 257
 140 910 l 1281
EndSplineSet
EndChar

StartChar: Igrave
Encoding: 51 204 50
GlifName: I_grave
Width: 280
VWidth: 0
Flags: W
LayerCount: 2
Fore
SplineSet
140 0 m 257
 140 680 l 1281
72 916 m 257
 207 783 l 1281
EndSplineSet
EndChar

StartChar: Imacron
Encoding: 52 298 51
GlifName: I_macron
Width: 280
VWidth: 0
Flags: W
LayerCount: 2
Fore
SplineSet
140 0 m 257
 140 680 l 1281
250 828 m 257
 29 828 l 1281
EndSplineSet
EndChar

StartChar: Iogonek
Encoding: 53 302 52
GlifName: I_ogonek
Width: 280
VWidth: 0
Flags: W
LayerCount: 2
Fore
SplineSet
140 0 m 257
 140 680 l 1281
181 -184 m 256
 168 -192 143 -200 119 -200 c 256
 69 -200 42 -175 42 -130 c 256
 42 -87 93 -38 140 0 c 1281
EndSplineSet
EndChar

StartChar: Itilde
Encoding: 54 296 53
GlifName: I_tilde
Width: 280
VWidth: 0
Flags: W
LayerCount: 2
Fore
SplineSet
140 0 m 257
 140 680 l 1281
1 812 m 257
 23 849 50 860 75 860 c 256
 122 860 152 812 205 812 c 256
 230 812 256 821 279 859 c 1281
EndSplineSet
EndChar

StartChar: J
Encoding: 55 74 54
GlifName: J_
Width: 361
VWidth: 0
Flags: W
LayerCount: 2
Back
SplineSet
50 29 m 256
 73 7 103 0 128 0 c 256
 185 0 231 35 231 138 c 258
 231 680 l 1281
EndSplineSet
Fore
SplineSet
50 29 m 256
 73 7 103 0 128 0 c 256
 185 0 231 35 231 138 c 258
 231 680 l 1281
EndSplineSet
EndChar

StartChar: Jcircumflex
Encoding: 56 308 55
GlifName: J_circumflex
Width: 361
VWidth: 0
Flags: W
LayerCount: 2
Fore
SplineSet
50 29 m 256
 73 7 103 0 128 0 c 256
 185 0 231 35 231 138 c 258
 231 680 l 1281
342 773 m 257
 233 899 l 257
 229 899 l 257
 120 773 l 1281
EndSplineSet
EndChar

StartChar: K
Encoding: 58 75 56
GlifName: K_
Width: 577
VWidth: 0
Flags: W
LayerCount: 2
Back
SplineSet
527 0 m 257
 191 359 l 257
 503 680 l 1281
140 0 m 257
 140 680 l 1281
EndSplineSet
Fore
SplineSet
140 0 m 257
 140 680 l 1281
527 0 m 257
 191 359 l 257
 503 680 l 1281
EndSplineSet
PickledDataWithLists: "(dp0
Vcom.schriftgestaltung.Glyphs.leftMetricsKey
p1
VH
p2
s."
EndChar

StartChar: L
Encoding: 59 76 57
GlifName: L_
Width: 508
VWidth: 0
Flags: W
LayerCount: 2
Fore
SplineSet
458 10 m 257
 140 10 l 257
 140 680 l 1281
EndSplineSet
PickledDataWithLists: "(dp0
Vcom.schriftgestaltung.Glyphs.leftMetricsKey
p1
VH
p2
s."
EndChar

StartChar: Lacute
Encoding: 60 313 58
GlifName: L_acute
Width: 508
VWidth: 0
Flags: W
LayerCount: 2
Fore
SplineSet
458 10 m 257
 140 10 l 257
 140 680 l 1281
140 782 m 257
 275 915 l 1281
EndSplineSet
EndChar

StartChar: Lcaron
Encoding: 61 317 59
GlifName: L_caron
Width: 508
VWidth: 0
Flags: W
LayerCount: 2
Fore
SplineSet
458 10 m 257
 140 10 l 257
 140 680 l 1281
276 567 m 257
 333 650 l 257
 333 734 l 1281
EndSplineSet
EndChar

StartChar: Ldot
Encoding: 62 319 60
GlifName: L_dot
Width: 508
VWidth: 0
Flags: W
LayerCount: 2
Fore
SplineSet
458 10 m 257
 140 10 l 257
 140 680 l 1281
398 390 m 257
 398 280 l 1281
EndSplineSet
PickledDataWithLists: "(dp0
Vcom.schriftgestaltung.Glyphs.leftMetricsKey
p1
VH
p2
sVpublic.markColor
p3
V0.06,0.6,0.98,1
p4
s."
EndChar

StartChar: Ldot.ss04
Encoding: 63 -1 61
GlifName: L_dot.ss04
Width: 508
VWidth: 0
Flags: W
LayerCount: 2
Fore
SplineSet
458 10 m 257
 140 10 l 257
 140 680 l 1281
398 372 m 257
 375 372 358 354 358 331 c 256
 358 308 376 290 399 290 c 256
 422 290 439 308 439 331 c 256
 439 354 422 372 400 372 c 1281
EndSplineSet
PickledDataWithLists: "(dp0
Vcom.schriftgestaltung.Glyphs.leftMetricsKey
p1
VH
p2
sVpublic.markColor
p3
V0.99,0.62,0.11,1
p4
s."
EndChar

StartChar: Ldot.ss05
Encoding: 64 -1 62
GlifName: L_dot.ss05
Width: 508
VWidth: 0
Flags: W
LayerCount: 2
Fore
SplineSet
458 10 m 257
 140 10 l 257
 140 680 l 1281
412 300 m 257
 412 367 l 257
 358 367 l 1281
EndSplineSet
PickledDataWithLists: "(dp0
Vcom.schriftgestaltung.Glyphs.leftMetricsKey
p1
VH
p2
sVpublic.markColor
p3
V0.98,0.36,0.67,1
p4
s."
EndChar

StartChar: Lslash
Encoding: 65 321 63
GlifName: L_slash
Width: 523
VWidth: 0
Flags: W
LayerCount: 2
Fore
SplineSet
50 297 m 257
 352 397 l 1281
473 10 m 257
 155 10 l 257
 155 680 l 1281
EndSplineSet
PickledDataWithLists: "(dp0
Vcom.schriftgestaltung.Glyphs.rightMetricsKey
p1
VL
p2
s."
EndChar

StartChar: M
Encoding: 66 77 64
GlifName: M_
Width: 862
VWidth: 0
Flags: W
LayerCount: 2
Back
SplineSet
722 0 m 257
 722 680 l 257
 718 680 l 257
 433 30 l 257
 429 30 l 257
 144 680 l 257
 140 680 l 257
 140 0 l 1281
EndSplineSet
Fore
SplineSet
722 0 m 257
 722 675 l 257
 718 675 l 257
 433 30 l 257
 429 30 l 257
 144 675 l 257
 140 675 l 257
 140 0 l 1281
EndSplineSet
PickledDataWithLists: "(dp0
Vcom.schriftgestaltung.Glyphs.leftMetricsKey
p1
VH
p2
sVcom.schriftgestaltung.Glyphs.rightMetricsKey
p3
g2
s."
EndChar

StartChar: N
Encoding: 67 78 65
GlifName: N_
Width: 740
VWidth: 0
Flags: W
LayerCount: 2
Back
SplineSet
140 0 m 257
 140 680 l 257
 144 680 l 257
 596 0 l 257
 600 0 l 257
 599 680 l 1281
EndSplineSet
Fore
SplineSet
140 0 m 257
 140 675 l 257
 144 675 l 257
 596 5 l 257
 600 5 l 257
 599 680 l 1281
EndSplineSet
PickledDataWithLists: "(dp0
Vcom.schriftgestaltung.Glyphs.leftMetricsKey
p1
VH
p2
sVcom.schriftgestaltung.Glyphs.rightMetricsKey
p3
g2
s."
EndChar

StartChar: Nacute
Encoding: 68 323 66
GlifName: N_acute
Width: 740
VWidth: 0
Flags: W
LayerCount: 2
Fore
SplineSet
140 0 m 257
 140 675 l 257
 144 675 l 257
 596 5 l 257
 600 5 l 257
 599 680 l 1281
302 782 m 257
 437 915 l 1281
EndSplineSet
EndChar

StartChar: Ncaron
Encoding: 69 327 67
GlifName: N_caron
Width: 740
VWidth: 0
Flags: W
LayerCount: 2
Fore
SplineSet
140 0 m 257
 140 675 l 257
 144 675 l 257
 596 5 l 257
 600 5 l 257
 599 680 l 1281
259 901 m 257
 368 775 l 257
 372 775 l 257
 481 901 l 1281
EndSplineSet
EndChar

StartChar: Ntilde
Encoding: 70 209 68
GlifName: N_tilde
Width: 740
VWidth: 0
Flags: W
LayerCount: 2
Fore
SplineSet
140 0 m 257
 140 675 l 257
 144 675 l 257
 596 5 l 257
 600 5 l 257
 599 680 l 1281
231 812 m 257
 253 849 280 860 305 860 c 256
 352 860 382 812 435 812 c 256
 460 812 486 821 509 859 c 1281
EndSplineSet
EndChar

StartChar: O
Encoding: 71 79 69
GlifName: O_
Width: 716
VWidth: 0
Flags: W
LayerCount: 2
Back
SplineSet
357 680 m 257
 168 680 95 501 95 341 c 256
 95 207 147 0 358 0 c 256
 569 0 621 207 621 341 c 256
 621 501 548 680 359 680 c 1281
EndSplineSet
Fore
SplineSet
357 680 m 257
 168 680 95 501 95 341 c 256
 95 207 147 0 358 0 c 256
 569 0 621 207 621 341 c 256
 621 501 548 680 359 680 c 1281
EndSplineSet
EndChar

StartChar: OE
Encoding: 72 338 70
GlifName: O_E_
Width: 907
VWidth: 0
Flags: W
LayerCount: 2
Back
Refer: 0 -1 N 1 0 0 1 336 0 2
Fore
SplineSet
476 10 m 257
 437 4 396 0 353 0 c 256
 137 0 95 207 95 341 c 256
 95 501 158 680 352 680 c 1281
817 10 m 257
 476 10 l 257
 476 670 l 257
 817 670 l 1281
476 356 m 257
 800 356 l 1281
476 670 m 257
 438 676 399 680 354 680 c 1281
EndSplineSet
PickledDataWithLists: "(dp0
Vcom.schriftgestaltung.Glyphs.leftMetricsKey
p1
VO
p2
sVcom.schriftgestaltung.Glyphs.rightMetricsKey
p3
VE
p4
s."
EndChar

StartChar: Oacute
Encoding: 73 211 71
GlifName: O_acute
Width: 716
VWidth: 0
Flags: W
LayerCount: 2
Fore
SplineSet
357 680 m 257
 168 680 95 501 95 341 c 256
 95 207 147 0 358 0 c 256
 569 0 621 207 621 341 c 256
 621 501 548 680 359 680 c 1281
290 782 m 257
 425 915 l 1281
EndSplineSet
EndChar

StartChar: Obreve
Encoding: 74 334 72
GlifName: O_breve
Width: 716
VWidth: 0
Flags: W
LayerCount: 2
Fore
SplineSet
357 680 m 257
 168 680 95 501 95 341 c 256
 95 207 147 0 358 0 c 256
 569 0 621 207 621 341 c 256
 621 501 548 680 359 680 c 1281
238 887 m 257
 238 832 290 805 356 805 c 256
 422 805 478 831 478 886 c 1280
EndSplineSet
EndChar

StartChar: Ocircumflex
Encoding: 75 212 73
GlifName: O_circumflex
Width: 716
VWidth: 0
Flags: W
LayerCount: 2
Fore
SplineSet
357 680 m 257
 168 680 95 501 95 341 c 256
 95 207 147 0 358 0 c 256
 569 0 621 207 621 341 c 256
 621 501 548 680 359 680 c 1281
469 773 m 257
 360 899 l 257
 356 899 l 257
 247 773 l 1281
EndSplineSet
Guideline: "" "" 353 -64 0 0 0
EndChar

StartChar: Odieresis
Encoding: 76 214 74
GlifName: O_dieresis
Width: 716
VWidth: 0
Flags: W
LayerCount: 2
Fore
SplineSet
357 680 m 257
 168 680 95 501 95 341 c 256
 95 207 147 0 358 0 c 256
 569 0 621 207 621 341 c 256
 621 501 548 680 359 680 c 1281
287 785 m 257
 287 910 l 1281
429 785 m 257
 429 910 l 1281
EndSplineSet
EndChar

StartChar: Ograve
Encoding: 77 210 75
GlifName: O_grave
Width: 716
VWidth: 0
Flags: W
LayerCount: 2
Fore
SplineSet
357 680 m 257
 168 680 95 501 95 341 c 256
 95 207 147 0 358 0 c 256
 569 0 621 207 621 341 c 256
 621 501 548 680 359 680 c 1281
290 916 m 257
 425 783 l 1281
EndSplineSet
EndChar

StartChar: Ohungarumlaut
Encoding: 78 336 76
GlifName: O_hungarumlaut
Width: 716
VWidth: 0
Flags: W
LayerCount: 2
Fore
SplineSet
357 680 m 257
 168 680 95 501 95 341 c 256
 95 207 147 0 358 0 c 256
 569 0 621 207 621 341 c 256
 621 501 548 680 359 680 c 1281
231 782 m 257
 358 907 l 1281
378 782 m 257
 505 907 l 1281
EndSplineSet
EndChar

StartChar: Omacron
Encoding: 79 332 77
GlifName: O_macron
Width: 716
VWidth: 0
Flags: W
LayerCount: 2
Fore
SplineSet
357 680 m 257
 168 680 95 501 95 341 c 256
 95 207 147 0 358 0 c 256
 569 0 621 207 621 341 c 256
 621 501 548 680 359 680 c 1281
468 828 m 257
 247 828 l 1281
EndSplineSet
EndChar

StartChar: Omega
Encoding: 80 969 78
GlifName: O_mega
Width: 743
VWidth: 0
Flags: W
LayerCount: 2
Back
SplineSet
643 10 m 257
 468 10 l 257
 468 32 l 257
 545 103 620 212 620 367 c 256
 620 548 520 680 372 680 c 256
 224 680 126 548 126 367 c 256
 126 212 198 103 275 32 c 257
 275 10 l 257
 100 10 l 1281
EndSplineSet
Fore
SplineSet
643 10 m 257
 468 10 l 257
 468 32 l 257
 545 103 620 212 620 367 c 256
 620 548 520 680 372 680 c 256
 224 680 126 548 126 367 c 256
 126 212 198 103 275 32 c 257
 275 10 l 257
 100 10 l 1281
EndSplineSet
EndChar

StartChar: Oslash
Encoding: 81 216 79
GlifName: O_slash
Width: 716
VWidth: 0
Flags: W
LayerCount: 2
Fore
SplineSet
124 -20 m 257
 603 700 l 1281
357 680 m 257
 168 680 95 501 95 341 c 256
 95 207 147 0 358 0 c 256
 569 0 621 207 621 341 c 256
 621 501 548 680 359 680 c 1281
EndSplineSet
PickledDataWithLists: "(dp0
Vcom.schriftgestaltung.Glyphs.leftMetricsKey
p1
VO
p2
sVcom.schriftgestaltung.Glyphs.rightMetricsKey
p3
g2
s."
EndChar

StartChar: Otilde
Encoding: 82 213 80
GlifName: O_tilde
Width: 716
VWidth: 0
Flags: W
LayerCount: 2
Fore
SplineSet
357 680 m 257
 168 680 95 501 95 341 c 256
 95 207 147 0 358 0 c 256
 569 0 621 207 621 341 c 256
 621 501 548 680 359 680 c 1281
219 812 m 257
 241 849 268 860 293 860 c 256
 340 860 370 812 423 812 c 256
 448 812 474 821 497 859 c 1281
EndSplineSet
EndChar

StartChar: P
Encoding: 83 80 81
GlifName: P_
Width: 590
VWidth: 0
Flags: W
LayerCount: 2
Back
SplineSet
140 316 m 257
 314 316 l 258
 454 316 525 381 525 493 c 256
 525 602 458 680 317 680 c 258
 140 680 l 1281
140 0 m 257
 140 680 l 1281
EndSplineSet
Fore
SplineSet
140 0 m 257
 140 670 l 1281
140 316 m 257
 314 316 l 258
 454 316 525 379 525 488 c 256
 525 594 458 670 317 670 c 258
 140 670 l 1281
EndSplineSet
PickledDataWithLists: "(dp0
Vcom.schriftgestaltung.Glyphs.leftMetricsKey
p1
VH
p2
s."
EndChar

StartChar: Q
Encoding: 84 81 82
GlifName: Q_
Width: 716
VWidth: 0
Flags: W
LayerCount: 2
Back
SplineSet
599 -138 m 257
 428 7 l 1281
EndSplineSet
Fore
SplineSet
599 -138 m 257
 428 7 l 1281
357 680 m 257
 168 680 95 501 95 341 c 256
 95 207 147 0 358 0 c 256
 569 0 621 207 621 341 c 256
 621 501 548 680 359 680 c 1281
EndSplineSet
PickledDataWithLists: "(dp0
Vcom.schriftgestaltung.Glyphs.leftMetricsKey
p1
VO
p2
s."
EndChar

StartChar: R
Encoding: 85 82 83
GlifName: R_
Width: 604
VWidth: 0
Flags: W
LayerCount: 2
Back
SplineSet
140 344 m 257
 325 344 l 258
 423 344 506 406 506 512 c 256
 506 602 447 680 313 680 c 258
 140 680 l 1281
140 0 m 257
 140 680 l 1281
519 0 m 257
 343 344 l 1281
EndSplineSet
Fore
SplineSet
140 0 m 257
 140 670 l 1281
519 0 m 257
 343 344 l 1281
140 344 m 257
 325 344 l 258
 423 344 506 404 506 507 c 256
 506 594 447 670 313 670 c 258
 140 670 l 1281
EndSplineSet
PickledDataWithLists: "(dp0
Vcom.schriftgestaltung.Glyphs.leftMetricsKey
p1
VH
p2
s."
EndChar

StartChar: Racute
Encoding: 86 340 84
GlifName: R_acute
Width: 604
VWidth: 0
Flags: W
LayerCount: 2
Fore
SplineSet
140 0 m 257
 140 670 l 1281
519 0 m 257
 343 344 l 1281
140 344 m 257
 325 344 l 258
 423 344 506 404 506 507 c 256
 506 594 447 670 313 670 c 258
 140 670 l 1281
232 782 m 257
 367 915 l 1281
EndSplineSet
EndChar

StartChar: Rcaron
Encoding: 87 344 85
GlifName: R_caron
Width: 604
VWidth: 0
Flags: W
LayerCount: 2
Fore
SplineSet
140 0 m 257
 140 670 l 1281
519 0 m 257
 343 344 l 1281
140 344 m 257
 325 344 l 258
 423 344 506 404 506 507 c 256
 506 594 447 670 313 670 c 258
 140 670 l 1281
189 901 m 257
 298 775 l 257
 302 775 l 257
 411 901 l 1281
EndSplineSet
EndChar

StartChar: S
Encoding: 88 83 86
GlifName: S_
Width: 566
VWidth: 0
Flags: W
LayerCount: 2
Back
SplineSet
95 109 m 257
 123 43 193 0 285 0 c 256
 404 0 476 74 476 163 c 256
 476 364 109 334 109 526 c 256
 109 605 171 680 293 680 c 256
 379 680 432 642 456 590 c 1281
EndSplineSet
Refer: 0 -1 N 1 0 0 1 -79 0 2
Fore
SplineSet
95 109 m 257
 123 43 193 0 285 0 c 256
 404 0 476 74 476 163 c 256
 476 364 109 334 109 526 c 256
 109 605 171 680 293 680 c 256
 379 680 432 642 456 590 c 1281
EndSplineSet
PickledDataWithLists: "(dp0
Vcom.schriftgestaltung.Glyphs.leftMetricsKey
p1
VO
p2
sVcom.schriftgestaltung.Glyphs.rightMetricsKey
p3
V=O-5
p4
s."
EndChar

StartChar: Sacute
Encoding: 89 346 87
GlifName: S_acute
Width: 566
VWidth: 0
Flags: W
LayerCount: 2
Fore
SplineSet
95 109 m 257
 123 43 193 0 285 0 c 256
 404 0 476 74 476 163 c 256
 476 364 109 334 109 526 c 256
 109 605 171 680 293 680 c 256
 379 680 432 642 456 590 c 1281
230 782 m 257
 365 915 l 1281
EndSplineSet
EndChar

StartChar: Scaron
Encoding: 90 352 88
GlifName: S_caron
Width: 566
VWidth: 0
Flags: W
LayerCount: 2
Fore
SplineSet
95 109 m 257
 123 43 193 0 285 0 c 256
 404 0 476 74 476 163 c 256
 476 364 109 334 109 526 c 256
 109 605 171 680 293 680 c 256
 379 680 432 642 456 590 c 1281
187 901 m 257
 296 775 l 257
 300 775 l 257
 409 901 l 1281
EndSplineSet
EndChar

StartChar: Scedilla
Encoding: 91 350 89
GlifName: S_cedilla
Width: 566
VWidth: 0
Flags: W
LayerCount: 2
Fore
SplineSet
95 109 m 257
 123 43 193 0 285 0 c 256
 404 0 476 74 476 163 c 256
 476 364 109 334 109 526 c 256
 109 605 171 680 293 680 c 256
 379 680 432 642 456 590 c 1281
212 -177 m 256
 225 -184 244 -191 273 -191 c 256
 325 -191 357 -168 357 -132 c 256
 357 -95 326 -78 272 -78 c 258
 246 -78 l 257
 292 0 l 1281
EndSplineSet
EndChar

StartChar: Scircumflex
Encoding: 92 348 90
GlifName: S_circumflex
Width: 566
VWidth: 0
Flags: W
LayerCount: 2
Fore
SplineSet
95 109 m 257
 123 43 193 0 285 0 c 256
 404 0 476 74 476 163 c 256
 476 364 109 334 109 526 c 256
 109 605 171 680 293 680 c 256
 379 680 432 642 456 590 c 1281
409 773 m 257
 300 899 l 257
 296 899 l 257
 187 773 l 1281
EndSplineSet
EndChar

StartChar: T
Encoding: 93 84 91
GlifName: T_
Width: 520
VWidth: 0
Flags: W
LayerCount: 2
Back
SplineSet
40 670 m 257
 480 670 l 1281
260 0 m 257
 260 670 l 1281
EndSplineSet
Fore
SplineSet
260 0 m 257
 260 670 l 1281
40 670 m 257
 480 670 l 1281
EndSplineSet
EndChar

StartChar: Tbar
Encoding: 94 358 92
GlifName: T_bar
Width: 520
VWidth: 0
Flags: W
LayerCount: 2
Fore
SplineSet
120 398 m 257
 400 398 l 1281
260 0 m 257
 260 670 l 1281
40 670 m 257
 480 670 l 1281
EndSplineSet
PickledDataWithLists: "(dp0
Vcom.schriftgestaltung.Glyphs.leftMetricsKey
p1
VT
p2
sVcom.schriftgestaltung.Glyphs.rightMetricsKey
p3
g2
s."
EndChar

StartChar: Tcaron
Encoding: 95 356 93
GlifName: T_caron
Width: 520
VWidth: 0
Flags: W
LayerCount: 2
Fore
SplineSet
260 0 m 257
 260 670 l 1281
40 670 m 257
 480 670 l 1281
149 901 m 257
 258 775 l 257
 262 775 l 257
 371 901 l 1281
EndSplineSet
EndChar

StartChar: Thorn
Encoding: 96 222 94
GlifName: T_horn
Width: 583
VWidth: 0
Flags: W
LayerCount: 2
Fore
SplineSet
140 0 m 257
 140 680 l 1281
140 177 m 257
 302 177 l 258
 468 177 524 250 524 348 c 256
 524 447 462 513 320 513 c 258
 140 513 l 1281
EndSplineSet
PickledDataWithLists: "(dp0
Vcom.schriftgestaltung.Glyphs.leftMetricsKey
p1
VH
p2
s."
EndChar

StartChar: U
Encoding: 97 85 95
GlifName: U_
Width: 694
VWidth: 0
Flags: W
LayerCount: 2
Back
SplineSet
130 680 m 257
 130 245 l 258
 130 87 218 0 347 0 c 256
 482 0 564 87 564 245 c 258
 564 680 l 1281
EndSplineSet
Fore
SplineSet
130 680 m 257
 130 245 l 258
 130 87 218 0 347 0 c 256
 482 0 564 87 564 245 c 258
 564 680 l 1281
EndSplineSet
PickledDataWithLists: "(dp0
Vcom.schriftgestaltung.Glyphs.leftMetricsKey
p1
V=H-10
p2
sVcom.schriftgestaltung.Glyphs.rightMetricsKey
p3
V=H-10
p4
s."
EndChar

StartChar: Uacute
Encoding: 98 218 96
GlifName: U_acute
Width: 694
VWidth: 0
Flags: W
LayerCount: 2
Fore
SplineSet
130 680 m 257
 130 245 l 258
 130 87 218 0 347 0 c 256
 482 0 564 87 564 245 c 258
 564 680 l 1281
278 782 m 257
 413 915 l 1281
EndSplineSet
EndChar

StartChar: Ubreve
Encoding: 99 364 97
GlifName: U_breve
Width: 694
VWidth: 0
Flags: W
LayerCount: 2
Fore
SplineSet
130 680 m 257
 130 245 l 258
 130 87 218 0 347 0 c 256
 482 0 564 87 564 245 c 258
 564 680 l 1281
226 887 m 257
 226 832 278 805 344 805 c 256
 410 805 466 831 466 886 c 1280
EndSplineSet
EndChar

StartChar: Ucircumflex
Encoding: 100 219 98
GlifName: U_circumflex
Width: 694
VWidth: 0
Flags: W
LayerCount: 2
Fore
SplineSet
130 680 m 257
 130 245 l 258
 130 87 218 0 347 0 c 256
 482 0 564 87 564 245 c 258
 564 680 l 1281
457 773 m 257
 348 899 l 257
 344 899 l 257
 235 773 l 1281
EndSplineSet
Guideline: "" "" 337 -64 0 0 0
EndChar

StartChar: Udieresis
Encoding: 101 220 99
GlifName: U_dieresis
Width: 694
VWidth: 0
Flags: W
LayerCount: 2
Fore
SplineSet
130 680 m 257
 130 245 l 258
 130 87 218 0 347 0 c 256
 482 0 564 87 564 245 c 258
 564 680 l 1281
275 785 m 257
 275 910 l 1281
417 785 m 257
 417 910 l 1281
EndSplineSet
EndChar

StartChar: Ugrave
Encoding: 102 217 100
GlifName: U_grave
Width: 694
VWidth: 0
Flags: W
LayerCount: 2
Fore
SplineSet
130 680 m 257
 130 245 l 258
 130 87 218 0 347 0 c 256
 482 0 564 87 564 245 c 258
 564 680 l 1281
278 916 m 257
 413 783 l 1281
EndSplineSet
EndChar

StartChar: Uhungarumlaut
Encoding: 103 368 101
GlifName: U_hungarumlaut
Width: 694
VWidth: 0
Flags: W
LayerCount: 2
Fore
SplineSet
130 680 m 257
 130 245 l 258
 130 87 218 0 347 0 c 256
 482 0 564 87 564 245 c 258
 564 680 l 1281
219 782 m 257
 346 907 l 1281
366 782 m 257
 493 907 l 1281
EndSplineSet
EndChar

StartChar: Umacron
Encoding: 104 362 102
GlifName: U_macron
Width: 694
VWidth: 0
Flags: W
LayerCount: 2
Fore
SplineSet
130 680 m 257
 130 245 l 258
 130 87 218 0 347 0 c 256
 482 0 564 87 564 245 c 258
 564 680 l 1281
456 828 m 257
 235 828 l 1281
EndSplineSet
EndChar

StartChar: Uogonek
Encoding: 105 370 103
GlifName: U_ogonek
Width: 694
VWidth: 0
Flags: W
LayerCount: 2
Fore
SplineSet
130 680 m 257
 130 245 l 258
 130 87 218 0 347 0 c 256
 482 0 564 87 564 245 c 258
 564 680 l 1281
403 -184 m 256
 390 -192 365 -200 341 -200 c 256
 291 -200 264 -175 264 -130 c 256
 264 -87 315 -38 362 0 c 1281
EndSplineSet
EndChar

StartChar: Uring
Encoding: 106 366 104
GlifName: U_ring
Width: 694
VWidth: 0
Flags: W
LayerCount: 2
Fore
SplineSet
130 680 m 257
 130 245 l 258
 130 87 218 0 347 0 c 256
 482 0 564 87 564 245 c 258
 564 680 l 1281
345 916 m 257
 304 916 272 883 272 843 c 256
 272 803 305 770 345 770 c 256
 386 770 419 803 419 843 c 256
 419 883 386 916 345 916 c 1281
EndSplineSet
EndChar

StartChar: Utilde
Encoding: 107 360 105
GlifName: U_tilde
Width: 694
VWidth: 0
Flags: W
LayerCount: 2
Fore
SplineSet
130 680 m 257
 130 245 l 258
 130 87 218 0 347 0 c 256
 482 0 564 87 564 245 c 258
 564 680 l 1281
207 812 m 257
 229 849 256 860 281 860 c 256
 328 860 358 812 411 812 c 256
 436 812 462 821 485 859 c 1281
EndSplineSet
EndChar

StartChar: V
Encoding: 108 86 106
GlifName: V_
Width: 641
VWidth: 0
Flags: W
LayerCount: 2
Back
SplineSet
70 680 m 257
 319 0 l 257
 323 0 l 257
 571 680 l 1281
EndSplineSet
Fore
SplineSet
70 680 m 257
 319 5 l 257
 323 5 l 257
 571 680 l 1281
EndSplineSet
PickledDataWithLists: "(dp0
Vcom.schriftgestaltung.Glyphs.leftMetricsKey
p1
VA
p2
sVcom.schriftgestaltung.Glyphs.rightMetricsKey
p3
g2
s."
EndChar

StartChar: W
Encoding: 109 87 107
GlifName: W_
Width: 910
VWidth: 0
Flags: W
LayerCount: 2
Back
SplineSet
80 680 m 257
 255 0 l 257
 259 0 l 257
 450 670 l 257
 454 670 l 257
 645 0 l 257
 649 0 l 257
 830 680 l 1281
EndSplineSet
Fore
SplineSet
80 680 m 257
 255 5 l 257
 259 5 l 257
 450 670 l 257
 454 670 l 257
 645 5 l 257
 649 5 l 257
 830 680 l 1281
EndSplineSet
PickledDataWithLists: "(dp0
Vcom.schriftgestaltung.Glyphs.leftMetricsKey
p1
V=V+10
p2
sVcom.schriftgestaltung.Glyphs.rightMetricsKey
p3
V=V+10
p4
s."
EndChar

StartChar: Wacute
Encoding: 110 7810 108
GlifName: W_acute
Width: 910
VWidth: 0
Flags: W
LayerCount: 2
Fore
SplineSet
80 680 m 257
 255 5 l 257
 259 5 l 257
 450 670 l 257
 454 670 l 257
 645 5 l 257
 649 5 l 257
 830 680 l 1281
385 782 m 257
 520 915 l 1281
EndSplineSet
EndChar

StartChar: Wcircumflex
Encoding: 111 372 109
GlifName: W_circumflex
Width: 910
VWidth: 0
Flags: W
LayerCount: 2
Fore
SplineSet
80 680 m 257
 255 5 l 257
 259 5 l 257
 450 670 l 257
 454 670 l 257
 645 5 l 257
 649 5 l 257
 830 680 l 1281
564 773 m 257
 455 899 l 257
 451 899 l 257
 342 773 l 1281
EndSplineSet
EndChar

StartChar: Wdieresis
Encoding: 112 7812 110
GlifName: W_dieresis
Width: 910
VWidth: 0
Flags: W
LayerCount: 2
Fore
SplineSet
80 680 m 257
 255 5 l 257
 259 5 l 257
 450 670 l 257
 454 670 l 257
 645 5 l 257
 649 5 l 257
 830 680 l 1281
382 785 m 257
 382 910 l 1281
524 785 m 257
 524 910 l 1281
EndSplineSet
EndChar

StartChar: Wgrave
Encoding: 113 7808 111
GlifName: W_grave
Width: 910
VWidth: 0
Flags: W
LayerCount: 2
Fore
SplineSet
80 680 m 257
 255 5 l 257
 259 5 l 257
 450 670 l 257
 454 670 l 257
 645 5 l 257
 649 5 l 257
 830 680 l 1281
385 916 m 257
 520 783 l 1281
EndSplineSet
EndChar

StartChar: X
Encoding: 114 88 112
GlifName: X_
Width: 607
VWidth: 0
Flags: W
LayerCount: 2
Back
SplineSet
70 0 m 257
 516 680 l 1281
537 0 m 257
 93 680 l 1281
EndSplineSet
Fore
SplineSet
70 0 m 257
 516 680 l 1281
537 0 m 257
 93 680 l 1281
EndSplineSet
EndChar

StartChar: Y
Encoding: 115 89 113
GlifName: Y_
Width: 575
VWidth: 0
Flags: W
LayerCount: 2
Back
SplineSet
50 680 m 257
 285 296 l 257
 525 680 l 1281
285 0 m 257
 285 296 l 1281
EndSplineSet
Fore
SplineSet
285 0 m 257
 285 296 l 1281
50 680 m 257
 285 296 l 257
 525 680 l 1281
EndSplineSet
EndChar

StartChar: Yacute
Encoding: 116 221 114
GlifName: Y_acute
Width: 575
VWidth: 0
Flags: W
LayerCount: 2
Fore
SplineSet
285 0 m 257
 285 296 l 1281
50 680 m 257
 285 296 l 257
 525 680 l 1281
223 782 m 257
 358 915 l 1281
EndSplineSet
EndChar

StartChar: Ycircumflex
Encoding: 117 374 115
GlifName: Y_circumflex
Width: 575
VWidth: 0
Flags: W
LayerCount: 2
Fore
SplineSet
285 0 m 257
 285 296 l 1281
50 680 m 257
 285 296 l 257
 525 680 l 1281
402 773 m 257
 293 899 l 257
 289 899 l 257
 180 773 l 1281
EndSplineSet
EndChar

StartChar: Ydieresis
Encoding: 118 376 116
GlifName: Y_dieresis
Width: 575
VWidth: 0
Flags: W
LayerCount: 2
Fore
SplineSet
285 0 m 257
 285 296 l 1281
50 680 m 257
 285 296 l 257
 525 680 l 1281
220 785 m 257
 220 910 l 1281
362 785 m 257
 362 910 l 1281
EndSplineSet
EndChar

StartChar: Ygrave
Encoding: 119 7922 117
GlifName: Y_grave
Width: 575
VWidth: 0
Flags: W
LayerCount: 2
Fore
SplineSet
285 0 m 257
 285 296 l 1281
50 680 m 257
 285 296 l 257
 525 680 l 1281
223 916 m 257
 358 783 l 1281
EndSplineSet
EndChar

StartChar: Z
Encoding: 120 90 118
GlifName: Z_
Width: 609
VWidth: 0
Flags: W
LayerCount: 2
Back
SplineSet
509 10 m 257
 111 10 l 257
 111 14 l 257
 498 666 l 257
 498 670 l 257
 110 670 l 1281
EndSplineSet
Fore
SplineSet
509 10 m 257
 111 10 l 257
 111 14 l 257
 498 666 l 257
 498 670 l 257
 110 670 l 1281
EndSplineSet
EndChar

StartChar: Zacute
Encoding: 121 377 119
GlifName: Z_acute
Width: 609
VWidth: 0
Flags: W
LayerCount: 2
Fore
SplineSet
509 10 m 257
 111 10 l 257
 111 14 l 257
 498 666 l 257
 498 670 l 257
 110 670 l 1281
232 782 m 257
 367 915 l 1281
EndSplineSet
EndChar

StartChar: Zcaron
Encoding: 122 381 120
GlifName: Z_caron
Width: 609
VWidth: 0
Flags: W
LayerCount: 2
Fore
SplineSet
509 10 m 257
 111 10 l 257
 111 14 l 257
 498 666 l 257
 498 670 l 257
 110 670 l 1281
189 901 m 257
 298 775 l 257
 302 775 l 257
 411 901 l 1281
EndSplineSet
EndChar

StartChar: Zdotaccent
Encoding: 123 379 121
GlifName: Z_dotaccent
Width: 609
VWidth: 0
Flags: W
LayerCount: 2
Fore
SplineSet
509 10 m 257
 111 10 l 257
 111 14 l 257
 498 666 l 257
 498 670 l 257
 110 670 l 1281
300 803 m 257
 300 910 l 1281
EndSplineSet
EndChar

StartChar: a
Encoding: 124 97 122
GlifName: a
Width: 561
VWidth: 0
Flags: W
LayerCount: 2
Back
SplineSet
441 0 m 257
 438 37 437 97 437 138 c 258
 437 378 l 258
 437 475 398 555 282 555 c 256
 197 555 147 516 114 440 c 1281
437 308 m 257
 376 308 l 258
 174 308 90 255 90 141 c 256
 90 68 134 0 229 0 c 256
 315 0 382 57 437 130 c 1280
EndSplineSet
Fore
SplineSet
437 308 m 257
 376 308 l 258
 174 308 90 255 90 141 c 256
 90 68 134 0 229 0 c 256
 315 0 382 57 437 130 c 1280
441 0 m 257
 438 37 437 97 437 138 c 258
 437 378 l 258
 437 475 398 555 282 555 c 256
 197 555 147 516 114 440 c 1281
EndSplineSet
EndChar

StartChar: aacute
Encoding: 125 225 123
GlifName: aacute
Width: 561
VWidth: 0
Flags: W
LayerCount: 2
Fore
SplineSet
437 308 m 257
 376 308 l 258
 174 308 90 255 90 141 c 256
 90 68 134 0 229 0 c 256
 315 0 382 57 437 130 c 1280
441 0 m 257
 438 37 437 97 437 138 c 258
 437 378 l 258
 437 475 398 555 282 555 c 256
 197 555 147 516 114 440 c 1281
213 657 m 257
 348 790 l 1281
EndSplineSet
EndChar

StartChar: abreve
Encoding: 126 259 124
GlifName: abreve
Width: 561
VWidth: 0
Flags: W
LayerCount: 2
Fore
SplineSet
437 308 m 257
 376 308 l 258
 174 308 90 255 90 141 c 256
 90 68 134 0 229 0 c 256
 315 0 382 57 437 130 c 1280
441 0 m 257
 438 37 437 97 437 138 c 258
 437 378 l 258
 437 475 398 555 282 555 c 256
 197 555 147 516 114 440 c 1281
161 762 m 257
 161 707 213 680 279 680 c 256
 345 680 401 706 401 761 c 1280
EndSplineSet
EndChar

StartChar: acircumflex
Encoding: 127 226 125
GlifName: acircumflex
Width: 561
VWidth: 0
Flags: W
LayerCount: 2
Fore
SplineSet
437 308 m 257
 376 308 l 258
 174 308 90 255 90 141 c 256
 90 68 134 0 229 0 c 256
 315 0 382 57 437 130 c 1280
441 0 m 257
 438 37 437 97 437 138 c 258
 437 378 l 258
 437 475 398 555 282 555 c 256
 197 555 147 516 114 440 c 1281
392 648 m 257
 283 774 l 257
 279 774 l 257
 170 648 l 1281
EndSplineSet
EndChar

StartChar: acute
Encoding: 128 180 126
GlifName: acute
Width: 147
VWidth: 0
Flags: W
LayerCount: 2
Back
SplineSet
134 801 m 257
 25 660 l 257
 76 660 l 257
 210 801 l 257
 134 801 l 257
EndSplineSet
Fore
SplineSet
10 657 m 257
 137 782 l 1281
EndSplineSet
EndChar

StartChar: acutecomb
Encoding: 129 769 127
GlifName: acutecomb
Width: 155
VWidth: 0
Flags: W
LayerCount: 2
Fore
SplineSet
10 657 m 257
 145 790 l 1281
EndSplineSet
EndChar

StartChar: adieresis
Encoding: 130 228 128
GlifName: adieresis
Width: 561
VWidth: 0
Flags: W
LayerCount: 2
Fore
SplineSet
437 308 m 257
 376 308 l 258
 174 308 90 255 90 141 c 256
 90 68 134 0 229 0 c 256
 315 0 382 57 437 130 c 1280
441 0 m 257
 438 37 437 97 437 138 c 258
 437 378 l 258
 437 475 398 555 282 555 c 256
 197 555 147 516 114 440 c 1281
210 660 m 257
 210 785 l 1281
352 660 m 257
 352 785 l 1281
EndSplineSet
EndChar

StartChar: ae
Encoding: 131 230 129
GlifName: ae
Width: 908
VWidth: 0
Flags: W
LayerCount: 2
Fore
SplineSet
450 138 m 257
 389 49 321 0 233 0 c 256
 135 0 90 68 90 138 c 256
 90 248 166 308 374 308 c 258
 437 308 l 257
 437 378 l 257
 436 475 402 555 283 555 c 256
 195 555 145 516 115 440 c 1281
439 308 m 257
 823 308 l 257
 823 420 786 558 641 558 c 256
 516 558 437 454 437 278 c 256
 437 119 501 3 644 3 c 256
 738 3 790 54 815 113 c 1280
EndSplineSet
Guideline: "" "" 861 -64 0 0 0
Guideline: "" "" 118 -64 0 0 0
PickledDataWithLists: "(dp0
Vcom.schriftgestaltung.Glyphs.leftMetricsKey
p1
Va
p2
sVcom.schriftgestaltung.Glyphs.rightMetricsKey
p3
V=o-5
p4
s."
EndChar

StartChar: agrave
Encoding: 132 224 130
GlifName: agrave
Width: 561
VWidth: 0
Flags: W
LayerCount: 2
Fore
SplineSet
437 308 m 257
 376 308 l 258
 174 308 90 255 90 141 c 256
 90 68 134 0 229 0 c 256
 315 0 382 57 437 130 c 1280
441 0 m 257
 438 37 437 97 437 138 c 258
 437 378 l 258
 437 475 398 555 282 555 c 256
 197 555 147 516 114 440 c 1281
213 791 m 257
 348 658 l 1281
EndSplineSet
EndChar

StartChar: amacron
Encoding: 133 257 131
GlifName: amacron
Width: 561
VWidth: 0
Flags: W
LayerCount: 2
Fore
SplineSet
437 308 m 257
 376 308 l 258
 174 308 90 255 90 141 c 256
 90 68 134 0 229 0 c 256
 315 0 382 57 437 130 c 1280
441 0 m 257
 438 37 437 97 437 138 c 258
 437 378 l 258
 437 475 398 555 282 555 c 256
 197 555 147 516 114 440 c 1281
391 703 m 257
 170 703 l 1281
EndSplineSet
EndChar

StartChar: ampersand
Encoding: 134 38 132
GlifName: ampersand
Width: 685
VWidth: 0
Flags: W
LayerCount: 2
Back
SplineSet
605 0 m 257
 291 344 l 258
 256 383 162 464 162 549 c 256
 162 618 225 680 311 680 c 256
 398 680 452 615 452 543 c 256
 452 359 100 369 100 164 c 256
 100 68 177 0 291 0 c 256
 475 0 591 176 591 361 c 1281
EndSplineSet
Fore
SplineSet
605 0 m 257
 291 344 l 258
 256 383 162 464 162 549 c 256
 162 618 225 680 311 680 c 256
 398 680 452 615 452 543 c 256
 452 359 100 369 100 164 c 256
 100 68 177 0 291 0 c 256
 475 0 591 176 591 361 c 1281
EndSplineSet
EndChar

StartChar: aogonek
Encoding: 135 261 133
GlifName: aogonek
Width: 561
VWidth: 0
Flags: W
LayerCount: 2
Fore
SplineSet
437 308 m 257
 376 308 l 258
 174 308 90 255 90 141 c 256
 90 68 134 0 229 0 c 256
 315 0 382 57 437 130 c 1280
441 0 m 257
 438 37 437 97 437 138 c 258
 437 378 l 258
 437 475 398 555 282 555 c 256
 197 555 147 516 114 440 c 1281
482 -184 m 256
 469 -192 444 -200 420 -200 c 256
 370 -200 343 -175 343 -130 c 256
 343 -87 394 -38 441 0 c 1281
EndSplineSet
EndChar

StartChar: approxequal
Encoding: 136 8776 134
GlifName: approxequal
Width: 610
VWidth: 0
Flags: W
LayerCount: 2
Back
Refer: 0 -1 N 0.9204 0 0 1 8 60 2
Refer: 0 -1 N 0.9204 0 0 1 8 -115 2
Fore
SplineSet
100.04 344 m 257
 133.1744 400 172.7516 416 209.5676 416 c 256
 278.5976 416 322.7768 344 401.0108 344 c 256
 437.8268 344 476.4836 358 509.618 414 c 1280
100.04 169 m 257
 133.1744 225 172.7516 241 209.5676 241 c 256
 278.5976 241 322.7768 169 401.0108 169 c 256
 437.8268 169 476.4836 183 509.618 239 c 1280
EndSplineSet
EndChar

StartChar: aring
Encoding: 137 229 135
GlifName: aring
Width: 561
VWidth: 0
Flags: W
LayerCount: 2
Fore
SplineSet
437 308 m 257
 376 308 l 258
 174 308 90 255 90 141 c 256
 90 68 134 0 229 0 c 256
 315 0 382 57 437 130 c 1280
441 0 m 257
 438 37 437 97 437 138 c 258
 437 378 l 258
 437 475 398 555 282 555 c 256
 197 555 147 516 114 440 c 1281
280 791 m 257
 239 791 207 758 207 718 c 256
 207 678 240 645 280 645 c 256
 321 645 354 678 354 718 c 256
 354 758 321 791 280 791 c 1281
EndSplineSet
EndChar

StartChar: arrowboth
Encoding: 138 8596 136
GlifName: arrowboth
Width: 1179
VWidth: 0
Flags: W
LayerCount: 2
Fore
SplineSet
354 41 m 257
 110 347 l 257
 354 653 l 1281
1067 347 m 257
 110 347 l 1281
825 41 m 257
 1069 347 l 257
 825 653 l 1281
EndSplineSet
Guideline: "" "" 68 605 0 0 0
EndChar

StartChar: arrowdown
Encoding: 139 8595 137
GlifName: arrowdown
Width: 772
VWidth: 0
Flags: W
LayerCount: 2
Fore
SplineSet
386 -47 m 257
 386 650 l 1281
80 235 m 257
 386 -49 l 257
 692 235 l 1281
EndSplineSet
Guideline: "" "" 34 605 0 0 0
Guideline: "" "" 34 -94 0 0 0
EndChar

StartChar: arrowleft
Encoding: 140 8592 138
GlifName: arrowleft
Width: 919
VWidth: 0
Flags: W
LayerCount: 2
Fore
SplineSet
112 371 m 257
 809 371 l 1281
394 677 m 257
 110 371 l 257
 394 65 l 1281
EndSplineSet
EndChar

StartChar: arrowright
Encoding: 141 8594 139
GlifName: arrowright
Width: 919
VWidth: 0
Flags: W
LayerCount: 2
Fore
SplineSet
807 339 m 257
 110 339 l 1281
525 33 m 257
 809 339 l 257
 525 645 l 1281
EndSplineSet
EndChar

StartChar: arrowup
Encoding: 142 8593 140
GlifName: arrowup
Width: 772
VWidth: 0
Flags: W
LayerCount: 2
Fore
SplineSet
386 686 m 257
 386 -11 l 1281
692 404 m 257
 386 688 l 257
 80 404 l 1281
EndSplineSet
Guideline: "" "" 2 605 0 0 0
EndChar

StartChar: arrowupdn
Encoding: 143 8597 141
GlifName: arrowupdn
Width: 793
VWidth: 0
Flags: W
LayerCount: 2
Fore
SplineSet
90 30 m 257
 397 -214 l 257
 703 30 l 1281
397 -212 m 257
 397 745 l 1281
703 501 m 257
 397 745 l 257
 90 501 l 1281
EndSplineSet
EndChar

StartChar: asciicircum
Encoding: 144 94 142
GlifName: asciicircum
Width: 438
VWidth: 0
Flags: W
LayerCount: 2
Fore
SplineSet
378 361 m 257
 221 680 l 257
 217 680 l 257
 60 361 l 1281
EndSplineSet
EndChar

StartChar: asciitilde
Encoding: 145 126 143
GlifName: asciitilde
Width: 645
VWidth: 0
Flags: W
LayerCount: 2
Fore
SplineSet
100 284 m 257
 136 340 179 356 219 356 c 256
 294 356 342 284 427 284 c 256
 467 284 509 298 545 354 c 1280
EndSplineSet
EndChar

StartChar: asterisk
Encoding: 146 42 144
GlifName: asterisk
Width: 432
VWidth: 0
Flags: W
LayerCount: 2
Fore
SplineSet
312 385 m 257
 216 520 l 257
 120 385 l 1281
60 565 m 257
 216 520 l 257
 372 565 l 1281
216 519 m 257
 216 680 l 1281
EndSplineSet
EndChar

StartChar: at
Encoding: 147 64 145
GlifName: at
Width: 862
VWidth: 0
Flags: W
LayerCount: 2
Back
SplineSet
313 388 m 257
 337 441 371 468 428 468 c 256
 511 468 538 412 538 345 c 258
 538 167 l 258
 538 131 555 82 615 82 c 256
 697 82 767 173 767 308 c 256
 767 495 629 632 447 632 c 256
 257 632 95 494 95 272 c 256
 95 55 241 -86 456 -86 c 256
 529 -86 586 -69 632 -42 c 1281
538 171 m 256
 500 121 453 82 393 82 c 256
 327 82 297 128 297 182 c 256
 297 260 358 296 496 296 c 258
 496 296 538 296 538 296 c 1281
EndSplineSet
Fore
SplineSet
538 171 m 256
 500 121 453 82 393 82 c 256
 327 82 297 128 297 182 c 256
 297 260 358 296 496 296 c 258
 496 296 538 296 538 296 c 1281
313 388 m 257
 337 441 371 468 428 468 c 256
 511 468 538 412 538 345 c 258
 538 167 l 258
 538 131 555 82 615 82 c 256
 697 82 767 173 767 308 c 256
 767 495 629 632 447 632 c 256
 257 632 95 494 95 272 c 256
 95 55 241 -86 456 -86 c 256
 529 -86 586 -69 632 -42 c 1281
EndSplineSet
PickledDataWithLists: "(dp0
Vcom.schriftgestaltung.Glyphs.leftMetricsKey
p1
VO
p2
sVcom.schriftgestaltung.Glyphs.rightMetricsKey
p3
g2
s."
EndChar

StartChar: atilde
Encoding: 148 227 146
GlifName: atilde
Width: 561
VWidth: 0
Flags: W
LayerCount: 2
Fore
SplineSet
437 308 m 257
 376 308 l 258
 174 308 90 255 90 141 c 256
 90 68 134 0 229 0 c 256
 315 0 382 57 437 130 c 1280
441 0 m 257
 438 37 437 97 437 138 c 258
 437 378 l 258
 437 475 398 555 282 555 c 256
 197 555 147 516 114 440 c 1281
142 687 m 257
 164 724 191 735 216 735 c 256
 263 735 293 687 346 687 c 256
 371 687 397 696 420 734 c 1281
EndSplineSet
EndChar

StartChar: b
Encoding: 149 98 147
GlifName: b
Width: 613
VWidth: 0
Flags: W
LayerCount: 2
Fore
SplineSet
140 745 m 257
 140 0 l 1281
140 137 m 257
 183 52 248 0 333 0 c 256
 469 0 523 132 523 279 c 256
 523 447 456 555 334 555 c 256
 261 555 194 517 140 421 c 1281
EndSplineSet
PickledDataWithLists: "(dp0
Vcom.schriftgestaltung.Glyphs.leftMetricsKey
p1
Vn
p2
sVcom.schriftgestaltung.Glyphs.rightMetricsKey
p3
Vo
p4
s."
EndChar

StartChar: backslash
Encoding: 150 92 148
GlifName: backslash
Width: 407
VWidth: 0
Flags: W
LayerCount: 2
Fore
SplineSet
50 690 m 257
 357 -10 l 1281
EndSplineSet
PickledDataWithLists: "(dp0
Vcom.schriftgestaltung.Glyphs.leftMetricsKey
p1
V=|slash
p2
sVcom.schriftgestaltung.Glyphs.rightMetricsKey
p3
V=|slash
p4
s."
EndChar

StartChar: bar
Encoding: 151 124 149
GlifName: bar
Width: 280
VWidth: 0
Flags: W
LayerCount: 2
Back
SplineSet
140 -190 m 257
 140 745 l 257
 86 745 l 1281
EndSplineSet
Fore
SplineSet
140 -190 m 257
 140 745 l 1281
EndSplineSet
PickledDataWithLists: "(dp0
Vcom.schriftgestaltung.Glyphs.leftMetricsKey
p1
VH
p2
sVcom.schriftgestaltung.Glyphs.rightMetricsKey
p3
g2
s."
EndChar

StartChar: braceleft
Encoding: 152 123 150
GlifName: braceleft
Width: 381
VWidth: 0
Flags: W
LayerCount: 2
Back
SplineSet
321 -124 m 257
 289 -124 l 258
 235 -124 195 -99 199 -25 c 258
 209 141 l 258
 215 235 172 253 106 253 c 258
 90 253 l 257
 90 337 l 257
 106 337 l 258
 172 337 215 355 209 449 c 258
 199 615 l 258
 195 689 235 714 289 714 c 258
 321 714 l 1281
EndSplineSet
Fore
SplineSet
331 -124 m 257
 299 -124 l 258
 245 -124 205 -99 209 -25 c 258
 219 141 l 258
 225 235 182 253 116 253 c 258
 100 253 l 257
 100 337 l 257
 116 337 l 258
 182 337 225 355 219 449 c 258
 209 615 l 258
 205 689 245 714 299 714 c 258
 331 714 l 1281
EndSplineSet
EndChar

StartChar: braceright
Encoding: 153 125 151
GlifName: braceright
Width: 381
VWidth: 0
Flags: W
LayerCount: 2
Fore
SplineSet
50 714 m 257
 82 714 l 258
 136 714 176 689 172 615 c 258
 162 449 l 258
 156 355 199 337 265 337 c 258
 281 337 l 257
 281 253 l 257
 265 253 l 258
 199 253 156 235 162 141 c 258
 172 -25 l 258
 176 -99 136 -124 82 -124 c 258
 50 -124 l 1281
EndSplineSet
PickledDataWithLists: "(dp0
Vcom.schriftgestaltung.Glyphs.leftMetricsKey
p1
V=|braceleft
p2
sVcom.schriftgestaltung.Glyphs.rightMetricsKey
p3
V=|braceleft
p4
s."
EndChar

StartChar: bracketleft
Encoding: 154 91 152
GlifName: bracketleft
Width: 295
VWidth: 0
Flags: W
LayerCount: 2
Back
SplineSet
205 731 m 257
 90 731 l 257
 90 -116 l 257
 205 -116 l 1281
EndSplineSet
Fore
SplineSet
225 -116 m 257
 100 -116 l 257
 100 731 l 257
 225 731 l 1281
EndSplineSet
EndChar

StartChar: bracketright
Encoding: 155 93 153
GlifName: bracketright
Width: 295
VWidth: 0
Flags: W
LayerCount: 2
Fore
SplineSet
70 731 m 257
 195 731 l 257
 195 -116 l 257
 70 -116 l 1281
EndSplineSet
PickledDataWithLists: "(dp0
Vcom.schriftgestaltung.Glyphs.leftMetricsKey
p1
V=|bracketleft
p2
sVcom.schriftgestaltung.Glyphs.rightMetricsKey
p3
V=|bracketleft
p4
s."
EndChar

StartChar: breve
Encoding: 156 728 154
GlifName: breve
Width: 260
VWidth: 0
Flags: W
LayerCount: 2
Fore
SplineSet
10 762 m 257
 10 707 62 680 128 680 c 256
 194 680 250 706 250 761 c 1280
EndSplineSet
EndChar

StartChar: brokenbar
Encoding: 157 166 155
GlifName: brokenbar
Width: 280
VWidth: 0
Flags: W
LayerCount: 2
Back
SplineSet
140 427 m 257
 140 745 l 257
 86 745 l 1281
140 -190 m 257
 140 128 l 257
 86 128 l 1281
EndSplineSet
Fore
SplineSet
140 -190 m 257
 140 128 l 1281
140 427 m 257
 140 745 l 1281
EndSplineSet
PickledDataWithLists: "(dp0
Vcom.schriftgestaltung.Glyphs.leftMetricsKey
p1
VH
p2
sVcom.schriftgestaltung.Glyphs.rightMetricsKey
p3
g2
s."
EndChar

StartChar: bullet
Encoding: 158 8226 156
GlifName: bullet
Width: 430
VWidth: 0
Flags: W
LayerCount: 2
Fore
SplineSet
214 446 m 257
 156 446 110 399 110 341 c 256
 110 284 157 237 215 237 c 256
 273 237 320 284 320 341 c 256
 320 399 273 446 215 446 c 1281
EndSplineSet
EndChar

StartChar: c
Encoding: 159 99 157
GlifName: c
Width: 531
VWidth: 0
Flags: W
LayerCount: 2
Back
SplineSet
445 450 m 257
 423 504 372 555 289 555 c 256
 163 555 90 439 90 271 c 256
 90 107 160 0 290 0 c 256
 368 0 411 38 446 98 c 1280
EndSplineSet
Refer: 0 -1 N 1 0 0 1 0 0 2
Fore
SplineSet
445 450 m 257
 423 504 372 555 289 555 c 256
 163 555 90 439 90 271 c 256
 90 107 160 0 290 0 c 256
 368 0 411 38 446 98 c 1280
EndSplineSet
PickledDataWithLists: "(dp0
Vcom.schriftgestaltung.Glyphs.leftMetricsKey
p1
Vo
p2
sVcom.schriftgestaltung.Glyphs.rightMetricsKey
p3
V=o-5
p4
s."
EndChar

StartChar: cacute
Encoding: 160 263 158
GlifName: cacute
Width: 531
VWidth: 0
Flags: W
LayerCount: 2
Fore
SplineSet
445 450 m 257
 423 504 372 555 289 555 c 256
 163 555 90 439 90 271 c 256
 90 107 160 0 290 0 c 256
 368 0 411 38 446 98 c 1280
222 657 m 257
 357 790 l 1281
EndSplineSet
EndChar

StartChar: caron
Encoding: 161 711 159
GlifName: caron
Width: 242
VWidth: 0
Flags: W
LayerCount: 2
Fore
SplineSet
10 776 m 257
 119 650 l 257
 123 650 l 257
 232 776 l 1281
EndSplineSet
EndChar

StartChar: caron.alt
Encoding: 162 -1 160
GlifName: caron.alt
Width: 137
VWidth: 0
Flags: W
LayerCount: 2
Fore
SplineSet
50 607 m 257
 107 690 l 257
 107 774 l 1281
EndSplineSet
EndChar

StartChar: ccaron
Encoding: 163 269 161
GlifName: ccaron
Width: 531
VWidth: 0
Flags: W
LayerCount: 2
Fore
SplineSet
445 450 m 257
 423 504 372 555 289 555 c 256
 163 555 90 439 90 271 c 256
 90 107 160 0 290 0 c 256
 368 0 411 38 446 98 c 1280
179 776 m 257
 288 650 l 257
 292 650 l 257
 401 776 l 1281
EndSplineSet
EndChar

StartChar: ccedilla
Encoding: 164 231 162
GlifName: ccedilla
Width: 531
VWidth: 0
Flags: W
LayerCount: 2
Fore
SplineSet
445 450 m 257
 423 504 372 555 289 555 c 256
 163 555 90 439 90 271 c 256
 90 107 160 0 290 0 c 256
 368 0 411 38 446 98 c 1280
201 -177 m 256
 214 -184 233 -191 262 -191 c 256
 314 -191 346 -168 346 -132 c 256
 346 -95 315 -78 261 -78 c 258
 235 -78 l 257
 281 0 l 1281
EndSplineSet
EndChar

StartChar: ccircumflex
Encoding: 165 265 163
GlifName: ccircumflex
Width: 531
VWidth: 0
Flags: W
LayerCount: 2
Fore
SplineSet
445 450 m 257
 423 504 372 555 289 555 c 256
 163 555 90 439 90 271 c 256
 90 107 160 0 290 0 c 256
 368 0 411 38 446 98 c 1280
401 648 m 257
 292 774 l 257
 288 774 l 257
 179 648 l 1281
EndSplineSet
EndChar

StartChar: cdotaccent
Encoding: 166 267 164
GlifName: cdotaccent
Width: 531
VWidth: 0
Flags: W
LayerCount: 2
Fore
SplineSet
445 450 m 257
 423 504 372 555 289 555 c 256
 163 555 90 439 90 271 c 256
 90 107 160 0 290 0 c 256
 368 0 411 38 446 98 c 1280
290 678 m 257
 290 785 l 1281
EndSplineSet
EndChar

StartChar: cedilla
Encoding: 167 184 165
GlifName: cedilla
Width: 165
VWidth: 0
Flags: W
LayerCount: 2
Back
SplineSet
-48 -189 m 257
 -25 -200 22 -210 46 -210 c 256
 130 -210 157 -159 157 -127 c 256
 157 -81 125 -56 71 -56 c 256
 59 -56 53 -57 46 -60 c 257
 44 -58 l 257
 89 0 l 257
 52 0 l 257
 -11 -82 l 257
 6 -97 l 257
 18 -91 31 -88 45 -88 c 256
 84 -88 99 -108 99 -129 c 256
 99 -154 76 -174 47 -174 c 256
 19 -174 -9 -168 -34 -156 c 257
 -48 -189 l 257
EndSplineSet
Fore
SplineSet
10 -177 m 256
 23 -184 42 -191 71 -191 c 256
 123 -191 155 -168 155 -132 c 256
 155 -95 124 -78 70 -78 c 258
 44 -78 l 257
 90 0 l 1281
EndSplineSet
EndChar

StartChar: cent
Encoding: 168 162 166
GlifName: cent
Width: 531
VWidth: 0
Flags: W
LayerCount: 2
Fore
SplineSet
293 -138 m 257
 293 0 l 1281
293 555 m 257
 293 693 l 1281
445 450 m 257
 423 504 372 555 289 555 c 256
 163 555 90 439 90 271 c 256
 90 107 160 0 290 0 c 256
 368 0 411 38 446 98 c 1280
EndSplineSet
PickledDataWithLists: "(dp0
Vcom.schriftgestaltung.Glyphs.leftMetricsKey
p1
Vc
p2
sVcom.schriftgestaltung.Glyphs.rightMetricsKey
p3
g2
s."
EndChar

StartChar: circle
Encoding: 169 9675 167
GlifName: circle
Width: 840
VWidth: 0
Flags: W
LayerCount: 2
Fore
SplineSet
419 680 m 257
 232 680 80 528 80 340 c 256
 80 152 232 0 420 0 c 256
 608 0 760 152 760 340 c 256
 760 528 608 680 421 680 c 1281
EndSplineSet
EndChar

StartChar: circumflex
Encoding: 170 710 168
GlifName: circumflex
Width: 242
VWidth: 0
Flags: W
LayerCount: 2
Back
SplineSet
71 765 m 257
 150 660 l 257
 212 660 l 257
 106 801 l 257
 36 801 l 257
 -70 660 l 257
 -8 660 l 257
 71 765 l 257
EndSplineSet
Fore
SplineSet
232 648 m 257
 123 774 l 257
 119 774 l 257
 10 648 l 1281
EndSplineSet
Guideline: "" "" 159 -64 0 0 0
EndChar

StartChar: colon
Encoding: 171 58 169
GlifName: colon
Width: 300
VWidth: 0
Flags: W
LayerCount: 2
Fore
SplineSet
150 90 m 257
 150 -20 l 1281
150 545 m 257
 150 435 l 1281
EndSplineSet
PickledDataWithLists: "(dp0
Vcom.schriftgestaltung.Glyphs.leftMetricsKey
p1
Vperiod
p2
sVcom.schriftgestaltung.Glyphs.rightMetricsKey
p3
Vperiod
p4
sVpublic.markColor
p5
V0.06,0.6,0.98,1
p6
s."
EndChar

StartChar: colon.ss04
Encoding: 172 -1 170
GlifName: colon.ss04
Width: 301
VWidth: 0
Flags: W
LayerCount: 2
Fore
SplineSet
150 72 m 257
 127 72 110 54 110 31 c 256
 110 8 128 -10 151 -10 c 256
 174 -10 191 8 191 31 c 256
 191 54 174 72 152 72 c 1281
150 535 m 257
 127 535 110 517 110 494 c 256
 110 471 128 453 151 453 c 256
 174 453 191 471 191 494 c 256
 191 517 174 535 152 535 c 1281
EndSplineSet
PickledDataWithLists: "(dp0
Vcom.schriftgestaltung.Glyphs.leftMetricsKey
p1
Vperiod.ss04
p2
sVcom.schriftgestaltung.Glyphs.rightMetricsKey
p3
Vperiod.ss04
p4
sVpublic.markColor
p5
V0.99,0.62,0.11,1
p6
s."
EndChar

StartChar: colon.ss05
Encoding: 173 -1 171
GlifName: colon.ss05
Width: 274
VWidth: 0
Flags: W
LayerCount: 2
Fore
SplineSet
164 0 m 257
 164 67 l 257
 110 67 l 1281
164 463 m 257
 164 530 l 257
 110 530 l 1281
EndSplineSet
PickledDataWithLists: "(dp0
Vcom.schriftgestaltung.Glyphs.leftMetricsKey
p1
Vperiod.ss05
p2
sVcom.schriftgestaltung.Glyphs.rightMetricsKey
p3
Vperiod.ss05
p4
sVpublic.markColor
p5
V0.98,0.36,0.67,1
p6
s."
EndChar

StartChar: comma
Encoding: 174 44 172
GlifName: comma
Width: 258
VWidth: 0
Flags: W
LayerCount: 2
Fore
SplineSet
90 -142 m 257
 168 13 l 257
 168 67 l 257
 114 67 l 1281
EndSplineSet
EndChar

StartChar: copyright
Encoding: 175 169 173
GlifName: copyright
Width: 862
VWidth: 0
Flags: W
LayerCount: 2
Fore
SplineSet
430 680 m 256
 243 680 95 528 95 340 c 256
 95 153 243 0 431 0 c 256
 617 0 767 153 767 340 c 256
 767 528 617 680 432 680 c 1281
560.92 452.09 m 257
 537.98 505.67 495.2 533.6 431.96 533.6 c 256
 325.94 533.6 268.9 456.08 268.9 340.37 c 256
 268.9 212.69 338.96 146 431.96 146 c 256
 504.5 146 552.24 186.47 569.6 233.21 c 1281
EndSplineSet
PickledDataWithLists: "(dp0
Vcom.schriftgestaltung.Glyphs.leftMetricsKey
p1
VO
p2
sVcom.schriftgestaltung.Glyphs.rightMetricsKey
p3
g2
s."
EndChar

StartChar: currency
Encoding: 176 164 174
GlifName: currency
Width: 660
VWidth: 0
Flags: W
LayerCount: 2
Back
SplineSet
319 541 m 257
 208 541 120 452 120 341 c 256
 120 229 209 140 320 140 c 256
 430 140 520 229 520 341 c 256
 520 452 431 541 321 541 c 1281
92 112 m 257
 178 199 l 1281
177 482 m 257
 90 569 l 1281
549 112 m 257
 460 198 l 1281
461 482 m 257
 550 569 l 1281
EndSplineSet
Fore
SplineSet
102 112 m 257
 188 199 l 1281
187 482 m 257
 100 569 l 1281
559 112 m 257
 470 198 l 1281
329 541 m 257
 218 541 130 452 130 341 c 256
 130 229 219 140 330 140 c 256
 440 140 530 229 530 341 c 256
 530 452 441 541 331 541 c 1281
471 482 m 257
 560 569 l 1281
EndSplineSet
Guideline: "" "" 225 -64 0 0 0
Guideline: "" "" 48 293 0 0 0
Guideline: "" "" 48 449 0 0 0
EndChar

StartChar: d
Encoding: 177 100 175
GlifName: d
Width: 613
VWidth: 0
Flags: W
LayerCount: 2
Fore
SplineSet
473 745 m 257
 473 0 l 1281
473 421 m 257
 419 517 352 555 279 555 c 256
 157 555 90 447 90 279 c 256
 90 132 144 0 280 0 c 256
 365 0 430 52 473 137 c 1281
EndSplineSet
Guideline: "" "" 258 697 0 0 0
PickledDataWithLists: "(dp0
Vcom.schriftgestaltung.Glyphs.leftMetricsKey
p1
Vo
p2
sVcom.schriftgestaltung.Glyphs.rightMetricsKey
p3
V=|n
p4
s."
EndChar

StartChar: dagger
Encoding: 178 8224 176
GlifName: dagger
Width: 596
VWidth: 0
Flags: W
LayerCount: 2
Back
SplineSet
80 462 m 257
 516 462 l 1281
298 -124 m 257
 298 680 l 1281
EndSplineSet
Fore
SplineSet
298 -124 m 257
 298 680 l 1281
80 462 m 257
 516 462 l 1281
EndSplineSet
EndChar

StartChar: daggerdbl
Encoding: 179 8225 177
GlifName: daggerdbl
Width: 620
VWidth: 0
Flags: W
LayerCount: 2
Back
SplineSet
100 440 m 257
 520 440 l 1281
100 116 m 257
 520 116 l 1281
310 -124 m 257
 310 680 l 1281
EndSplineSet
Fore
SplineSet
100 116 m 257
 520 116 l 1281
310 -124 m 257
 310 680 l 1281
100 440 m 257
 520 440 l 1281
EndSplineSet
EndChar

StartChar: dcaron
Encoding: 180 271 178
GlifName: dcaron
Width: 613
VWidth: 0
Flags: W
LayerCount: 2
Fore
SplineSet
473 745 m 257
 473 0 l 1281
473 421 m 257
 419 517 352 555 279 555 c 256
 157 555 90 447 90 279 c 256
 90 132 144 0 280 0 c 256
 365 0 430 52 473 137 c 1281
566 578 m 257
 623 661 l 257
 623 745 l 1281
EndSplineSet
EndChar

StartChar: dcroat
Encoding: 181 273 179
GlifName: dcroat
Width: 610
VWidth: 0
Flags: W
LayerCount: 2
Fore
SplineSet
565 644 m 257
 337 644 l 1281
473 745 m 257
 473 0 l 1281
473 421 m 257
 419 517 352 555 279 555 c 256
 157 555 90 447 90 279 c 256
 90 132 144 0 280 0 c 256
 365 0 430 52 473 137 c 1281
EndSplineSet
EndChar

StartChar: degree
Encoding: 182 176 180
GlifName: degree
Width: 309
VWidth: 0
Flags: W
LayerCount: 2
Fore
SplineSet
153 680 m 257
 91 680 40 628 40 565 c 256
 40 502 92 451 154 451 c 256
 217 451 269 502 269 565 c 256
 269 628 218 680 155 680 c 1281
EndSplineSet
EndChar

StartChar: dieresis
Encoding: 183 168 181
GlifName: dieresis
Width: 164
VWidth: 0
Flags: W
LayerCount: 2
Back
SplineSet
-19 734 m 257
 -37 734 -50 720 -50 702 c 256
 -50 685 -36 671 -18 671 c 256
 -1 671 12 685 12 702 c 256
 12 720 -1 734 -18 734 c 1281
163 734 m 257
 146 734 132 720 132 702 c 256
 132 685 147 671 164 671 c 256
 182 671 194 685 194 702 c 256
 194 720 182 734 164 734 c 1281
2 650 m 257
 2 770 l 257
 0 770 l 1281
144 650 m 257
 144 770 l 257
 142 770 l 1281
EndSplineSet
Fore
SplineSet
12 650 m 257
 12 780 l 257
 10 780 l 1281
154 650 m 257
 154 780 l 257
 152 780 l 1281
EndSplineSet
EndChar

StartChar: divide
Encoding: 184 247 182
GlifName: divide
Width: 635
VWidth: 0
Flags: W
LayerCount: 2
Back
Refer: 0 -1 N 1 0 0 1 0 0 2
Fore
SplineSet
317 589 m 257
 317 479 l 1281
317 193 m 257
 317 83 l 1281
85 332 m 257
 550 332 l 1281
EndSplineSet
PickledDataWithLists: "(dp0
Vcom.schriftgestaltung.Glyphs.leftMetricsKey
p1
Vminus
p2
sVcom.schriftgestaltung.Glyphs.rightMetricsKey
p3
Vminus
p4
s."
EndChar

StartChar: dollar
Encoding: 185 36 183
GlifName: dollar
Width: 566
VWidth: 0
Flags: W
LayerCount: 2
Back
SplineSet
293 -128 m 257
 293 808 l 1281
EndSplineSet
Fore
SplineSet
293 -138 m 257
 293 0 l 1281
293 680 m 257
 293 818 l 1281
95 109 m 257
 123 43 193 0 285 0 c 256
 404 0 476 74 476 163 c 256
 476 364 109 334 109 526 c 256
 109 605 171 680 293 680 c 256
 379 680 432 642 456 590 c 1281
EndSplineSet
PickledDataWithLists: "(dp0
Vcom.schriftgestaltung.Glyphs.leftMetricsKey
p1
VO
p2
sVcom.schriftgestaltung.Glyphs.rightMetricsKey
p3
V=O-5
p4
s."
EndChar

StartChar: dotaccent
Encoding: 186 729 184
GlifName: dotaccent
Width: 82
VWidth: 0
Flags: W
LayerCount: 2
Back
SplineSet
31 734 m 257
 13 734 0 720 0 702 c 256
 0 685 14 671 32 671 c 256
 49 671 62 685 62 702 c 256
 62 720 49 734 32 734 c 1281
EndSplineSet
Fore
SplineSet
42 650 m 257
 42 780 l 257
 40 780 l 1281
EndSplineSet
EndChar

StartChar: dotlessi
Encoding: 187 305 185
GlifName: dotlessi
Width: 280
VWidth: 0
Flags: W
LayerCount: 2
Back
SplineSet
140 0 m 257
 140 555 l 257
 86 555 l 1281
EndSplineSet
Fore
SplineSet
140 0 m 257
 140 555 l 1281
EndSplineSet
PickledDataWithLists: "(dp0
Vcom.schriftgestaltung.Glyphs.leftMetricsKey
p1
Vn
p2
sVcom.schriftgestaltung.Glyphs.rightMetricsKey
p3
V=|n
p4
s."
EndChar

StartChar: e
Encoding: 188 101 186
GlifName: e
Width: 561
VWidth: 0
Flags: W
LayerCount: 2
Back
SplineSet
92 305 m 257
 476 305 l 257
 476 417 439 555 294 555 c 256
 169 555 90 451 90 275 c 256
 90 116 154 0 297 0 c 256
 391 0 443 51 468 110 c 1280
EndSplineSet
Fore
SplineSet
92 305 m 257
 476 305 l 257
 476 417 439 555 294 555 c 256
 169 555 90 451 90 275 c 256
 90 116 154 0 297 0 c 256
 391 0 443 51 468 110 c 1280
EndSplineSet
PickledDataWithLists: "(dp0
Vcom.schriftgestaltung.Glyphs.lastChange
p1
V2021-03-17 07:34:11 +0000
p2
sVcom.schriftgestaltung.Glyphs.leftMetricsKey
p3
Vo
p4
sVcom.schriftgestaltung.Glyphs.rightMetricsKey
p5
V=o-5
p6
s."
EndChar

StartChar: eacute
Encoding: 189 233 187
GlifName: eacute
Width: 561
VWidth: 0
Flags: W
LayerCount: 2
Fore
SplineSet
92 305 m 257
 476 305 l 257
 476 417 439 555 294 555 c 256
 169 555 90 451 90 275 c 256
 90 116 154 0 297 0 c 256
 391 0 443 51 468 110 c 1280
227 657 m 257
 362 790 l 1281
EndSplineSet
Guideline: "" "" 272 -64 0 0 0
Guideline: "" "" 0 78 0 0 16
Guideline: "" "" 0 68 0 0 16
Guideline: "" "" 0 50 0 0 16
PickledDataWithLists: "(dp0
Vcom.schriftgestaltung.Glyphs.lastChange
p1
V2021-03-17 07:33:32 +0000
p2
s."
EndChar

StartChar: ebreve
Encoding: 190 277 188
GlifName: ebreve
Width: 561
VWidth: 0
Flags: W
LayerCount: 2
Fore
SplineSet
92 305 m 257
 476 305 l 257
 476 417 439 555 294 555 c 256
 169 555 90 451 90 275 c 256
 90 116 154 0 297 0 c 256
 391 0 443 51 468 110 c 1280
175 762 m 257
 175 707 227 680 293 680 c 256
 359 680 415 706 415 761 c 1280
EndSplineSet
EndChar

StartChar: ecaron
Encoding: 191 283 189
GlifName: ecaron
Width: 561
VWidth: 0
Flags: W
LayerCount: 2
Fore
SplineSet
92 305 m 257
 476 305 l 257
 476 417 439 555 294 555 c 256
 169 555 90 451 90 275 c 256
 90 116 154 0 297 0 c 256
 391 0 443 51 468 110 c 1280
184 776 m 257
 293 650 l 257
 297 650 l 257
 406 776 l 1281
EndSplineSet
EndChar

StartChar: ecircumflex
Encoding: 192 234 190
GlifName: ecircumflex
Width: 561
VWidth: 0
Flags: W
LayerCount: 2
Fore
SplineSet
92 305 m 257
 476 305 l 257
 476 417 439 555 294 555 c 256
 169 555 90 451 90 275 c 256
 90 116 154 0 297 0 c 256
 391 0 443 51 468 110 c 1280
406 648 m 257
 297 774 l 257
 293 774 l 257
 184 648 l 1281
EndSplineSet
Guideline: "" "" 272 -64 0 0 0
Guideline: "" "" 0 78 0 0 16
Guideline: "" "" 0 68 0 0 16
Guideline: "" "" 0 50 0 0 16
PickledDataWithLists: "(dp0
Vcom.schriftgestaltung.Glyphs.lastChange
p1
V2021-03-17 07:33:32 +0000
p2
s."
EndChar

StartChar: edieresis
Encoding: 193 235 191
GlifName: edieresis
Width: 561
VWidth: 0
Flags: W
LayerCount: 2
Fore
SplineSet
92 305 m 257
 476 305 l 257
 476 417 439 555 294 555 c 256
 169 555 90 451 90 275 c 256
 90 116 154 0 297 0 c 256
 391 0 443 51 468 110 c 1280
224 660 m 257
 224 785 l 1281
366 660 m 257
 366 785 l 1281
EndSplineSet
PickledDataWithLists: "(dp0
Vcom.schriftgestaltung.Glyphs.lastChange
p1
V2021-03-17 07:33:32 +0000
p2
s."
EndChar

StartChar: edotaccent
Encoding: 194 279 192
GlifName: edotaccent
Width: 561
VWidth: 0
Flags: W
LayerCount: 2
Fore
SplineSet
92 305 m 257
 476 305 l 257
 476 417 439 555 294 555 c 256
 169 555 90 451 90 275 c 256
 90 116 154 0 297 0 c 256
 391 0 443 51 468 110 c 1280
295 678 m 257
 295 785 l 1281
EndSplineSet
EndChar

StartChar: egrave
Encoding: 195 232 193
GlifName: egrave
Width: 561
VWidth: 0
Flags: W
LayerCount: 2
Fore
SplineSet
92 305 m 257
 476 305 l 257
 476 417 439 555 294 555 c 256
 169 555 90 451 90 275 c 256
 90 116 154 0 297 0 c 256
 391 0 443 51 468 110 c 1280
227 791 m 257
 362 658 l 1281
EndSplineSet
Guideline: "" "" 272 -64 0 0 0
Guideline: "" "" 0 78 0 0 16
Guideline: "" "" 0 68 0 0 16
Guideline: "" "" 0 50 0 0 16
PickledDataWithLists: "(dp0
Vcom.schriftgestaltung.Glyphs.lastChange
p1
V2021-03-17 07:33:32 +0000
p2
s."
EndChar

StartChar: eight
Encoding: 196 56 194
GlifName: eight
Width: 559
VWidth: 0
Flags: W
LayerCount: 2
Back
SplineSet
268 680 m 257
 367 680 436 618 436 536 c 256
 436 353 80 372 80 160 c 256
 80 58 171 0 268 0 c 256
 365 0 459 57 459 160 c 256
 459 371 102 348 102 538 c 256
 102 610 156 680 266 680 c 1281
EndSplineSet
Fore
SplineSet
278 680 m 257
 377 680 446 618 446 537 c 256
 446 353 90 370 90 162 c 256
 90 57 181 0 278 0 c 256
 374 0 469 56 469 162 c 256
 469 368 112 350 112 537 c 256
 112 610 166 680 276 680 c 1281
EndSplineSet
PickledDataWithLists: "(dp0
Vcom.schriftgestaltung.Glyphs.leftMetricsKey
p1
Vzero
p2
sVcom.schriftgestaltung.Glyphs.rightMetricsKey
p3
Vzero
p4
s."
EndChar

StartChar: eight.dnom
Encoding: 197 -1 195
GlifName: eight.dnom
Width: 280
VWidth: 0
Flags: W
LayerCount: 2
Fore
SplineSet
139 340 m 257
 188.5 340 223 309 223 268.5 c 256
 223 176.5 45 185 45 81 c 256
 45 28.5 90.5 0 139 0 c 256
 187 0 234.5 28 234.5 81 c 256
 234.5 184 56 175 56 268.5 c 256
 56 305 83 340 138 340 c 1281
EndSplineSet
PickledDataWithLists: "(dp0
Vcom.schriftgestaltung.Glyphs.leftMetricsKey
p1
Vzero.dnom
p2
sVcom.schriftgestaltung.Glyphs.rightMetricsKey
p3
Vzero.dnom
p4
s."
EndChar

StartChar: eight.numr
Encoding: 198 -1 196
GlifName: eight.numr
Width: 280
VWidth: 0
Flags: W
LayerCount: 2
Fore
SplineSet
139 680 m 257
 188.5 680 223 649 223 608.5 c 256
 223 516.5 45 525 45 421 c 256
 45 368.5 90.5 340 139 340 c 256
 187 340 234.5 368 234.5 421 c 256
 234.5 524 56 515 56 608.5 c 256
 56 645 83 680 138 680 c 1281
EndSplineSet
PickledDataWithLists: "(dp0
Vcom.schriftgestaltung.Glyphs.leftMetricsKey
p1
Vzero.dnom
p2
sVcom.schriftgestaltung.Glyphs.rightMetricsKey
p3
Vzero.dnom
p4
s."
EndChar

StartChar: eight.osf
Encoding: 199 -1 197
GlifName: eight.osf
Width: 559
VWidth: 0
Flags: W
LayerCount: 2
Back
SplineSet
268 706 m 257
 367 706 436 655 436 569 c 256
 436 376 80 372 80 170 c 256
 80 70 156 0 270 0 c 256
 394 0 459 81 459 171 c 256
 459 360 103 379 102 571 c 256
 102 646 167 706 266 706 c 1281
EndSplineSet
Fore
SplineSet
278 706 m 257
 377 706 446 655 446 569 c 256
 446 374 90 375 90 167 c 256
 90 71 166 0 280 0 c 256
 404 0 469 83 469 167 c 256
 469 363 112 381 112 567 c 256
 112 647 177 706 276 706 c 1281
EndSplineSet
PickledDataWithLists: "(dp0
Vcom.schriftgestaltung.Glyphs.leftMetricsKey
p1
Vzero.osf
p2
sVcom.schriftgestaltung.Glyphs.rightMetricsKey
p3
Vzero.osf
p4
s."
EndChar

StartChar: eight.subs
Encoding: 200 -1 198
GlifName: eight.subs
Width: 280
VWidth: 0
Flags: W
LayerCount: 2
Fore
SplineSet
139 275 m 257
 188.5 275 223 244 223 203.5 c 256
 223 111.5 45 120 45 16 c 256
 45 -36.5 90.5 -65 139 -65 c 256
 187 -65 234.5 -37 234.5 16 c 256
 234.5 119 56 110 56 203.5 c 256
 56 240 83 275 138 275 c 1281
EndSplineSet
PickledDataWithLists: "(dp0
Vcom.schriftgestaltung.Glyphs.leftMetricsKey
p1
Vzero.dnom
p2
sVcom.schriftgestaltung.Glyphs.rightMetricsKey
p3
Vzero.dnom
p4
s."
EndChar

StartChar: ellipsis
Encoding: 201 8230 199
GlifName: ellipsis
Width: 926
VWidth: 0
Flags: W
LayerCount: 2
Fore
SplineSet
150 90 m 257
 150 -20 l 1281
463 90 m 257
 463 -20 l 1281
776 90 m 257
 776 -20 l 1281
EndSplineSet
PickledDataWithLists: "(dp0
Vcom.schriftgestaltung.Glyphs.leftMetricsKey
p1
Vperiod
p2
sVcom.schriftgestaltung.Glyphs.rightMetricsKey
p3
Vperiod
p4
sVpublic.markColor
p5
V0.06,0.6,0.98,1
p6
s."
EndChar

StartChar: ellipsis.ss04
Encoding: 202 -1 200
GlifName: ellipsis.ss04
Width: 927
VWidth: 0
Flags: W
LayerCount: 2
Fore
SplineSet
150 72 m 257
 127 72 110 54 110 31 c 256
 110 8 128 -10 151 -10 c 256
 174 -10 191 8 191 31 c 256
 191 54 174 72 152 72 c 1281
463 72 m 257
 440 72 423 54 423 31 c 256
 423 8 441 -10 464 -10 c 256
 487 -10 504 8 504 31 c 256
 504 54 487 72 465 72 c 1281
776 72 m 257
 753 72 736 54 736 31 c 256
 736 8 754 -10 777 -10 c 256
 800 -10 817 8 817 31 c 256
 817 54 800 72 778 72 c 1281
EndSplineSet
PickledDataWithLists: "(dp0
Vcom.schriftgestaltung.Glyphs.leftMetricsKey
p1
Vperiod.ss04
p2
sVcom.schriftgestaltung.Glyphs.rightMetricsKey
p3
Vperiod.ss04
p4
sVpublic.markColor
p5
V0.99,0.62,0.11,1
p6
s."
EndChar

StartChar: ellipsis.ss05
Encoding: 203 -1 201
GlifName: ellipsis.ss05
Width: 900
VWidth: 0
Flags: W
LayerCount: 2
Fore
SplineSet
164 0 m 257
 164 67 l 257
 110 67 l 1281
477 0 m 257
 477 67 l 257
 423 67 l 1281
790 0 m 257
 790 67 l 257
 736 67 l 1281
EndSplineSet
PickledDataWithLists: "(dp0
Vcom.schriftgestaltung.Glyphs.leftMetricsKey
p1
Vperiod.ss05
p2
sVcom.schriftgestaltung.Glyphs.rightMetricsKey
p3
Vperiod.ss05
p4
sVpublic.markColor
p5
V0.98,0.36,0.67,1
p6
s."
EndChar

StartChar: emacron
Encoding: 204 275 202
GlifName: emacron
Width: 561
VWidth: 0
Flags: W
LayerCount: 2
Fore
SplineSet
92 305 m 257
 476 305 l 257
 476 417 439 555 294 555 c 256
 169 555 90 451 90 275 c 256
 90 116 154 0 297 0 c 256
 391 0 443 51 468 110 c 1280
405 703 m 257
 184 703 l 1281
EndSplineSet
EndChar

StartChar: emdash
Encoding: 205 8212 203
GlifName: emdash
Width: 886
VWidth: 0
Flags: W
LayerCount: 2
Back
SplineSet
60 278 m 257
 826 278 l 257
 826 224 l 1281
EndSplineSet
Fore
SplineSet
60 278 m 257
 826 278 l 1281
EndSplineSet
EndChar

StartChar: endash
Encoding: 206 8211 204
GlifName: endash
Width: 612
VWidth: 0
Flags: W
LayerCount: 2
Back
SplineSet
60 278 m 257
 552 278 l 257
 552 224 l 1281
EndSplineSet
Fore
SplineSet
60 278 m 257
 552 278 l 1281
EndSplineSet
EndChar

StartChar: eng
Encoding: 207 331 205
GlifName: eng
Width: 608
VWidth: 0
Flags: W
LayerCount: 2
Fore
SplineSet
315 -163 m 257
 330 -177 354 -188 387 -188 c 256
 450 -188 473 -150 473 -81 c 258
 473 0 l 1281
140 555 m 257
 140 0 l 1281
473 0 m 257
 473 415 l 258
 473 502 433 555 356 555 c 256
 267 555 201 485 140 415 c 1281
EndSplineSet
PickledDataWithLists: "(dp0
Vcom.schriftgestaltung.Glyphs.leftMetricsKey
p1
Vn
p2
sVcom.schriftgestaltung.Glyphs.rightMetricsKey
p3
g2
s."
EndChar

StartChar: eogonek
Encoding: 208 281 206
GlifName: eogonek
Width: 561
VWidth: 0
Flags: W
LayerCount: 2
Fore
SplineSet
92 305 m 257
 476 305 l 257
 476 417 439 555 294 555 c 256
 169 555 90 451 90 275 c 256
 90 116 154 0 297 0 c 256
 391 0 443 51 468 110 c 1280
453 -149 m 256
 440 -157 415 -165 391 -165 c 256
 341 -165 314 -140 314 -95 c 256
 314 -52 365 -3 412 35 c 1281
EndSplineSet
EndChar

StartChar: equal
Encoding: 209 61 207
GlifName: equal
Width: 554
VWidth: 0
Flags: W
LayerCount: 2
Back
SplineSet
100 422 m 257
 454 422 l 257
 454 368 l 1281
100 222 m 257
 454 222 l 257
 454 168 l 1281
EndSplineSet
Fore
SplineSet
454 222 m 257
 100 222 l 1281
454 422 m 257
 100 422 l 1281
EndSplineSet
EndChar

StartChar: equal.dnom
Encoding: 210 -1 208
GlifName: equal.dnom
Width: 317
VWidth: 0
Flags: W
LayerCount: 2
Fore
SplineSet
247 111 m 257
 70 111 l 1281
247 211 m 257
 70 211 l 1281
EndSplineSet
EndChar

StartChar: equal.numr
Encoding: 211 -1 209
GlifName: equal.numr
Width: 317
VWidth: 0
Flags: W
LayerCount: 2
Fore
SplineSet
247 451 m 257
 70 451 l 1281
247 551 m 257
 70 551 l 1281
EndSplineSet
PickledDataWithLists: "(dp0
Vcom.schriftgestaltung.Glyphs.leftMetricsKey
p1
Vequal.dnom
p2
sVcom.schriftgestaltung.Glyphs.rightMetricsKey
p3
Vequal.dnom
p4
s."
EndChar

StartChar: equal.subs
Encoding: 212 -1 210
GlifName: equal.subs
Width: 317
VWidth: 0
Flags: W
LayerCount: 2
Fore
SplineSet
247 46 m 257
 70 46 l 1281
247 146 m 257
 70 146 l 1281
EndSplineSet
PickledDataWithLists: "(dp0
Vcom.schriftgestaltung.Glyphs.leftMetricsKey
p1
Vequal.dnom
p2
sVcom.schriftgestaltung.Glyphs.rightMetricsKey
p3
Vequal.dnom
p4
s."
EndChar

StartChar: equal.sups
Encoding: 213 -1 211
GlifName: equal.sups
Width: 317
VWidth: 0
Flags: W
LayerCount: 2
Fore
SplineSet
247 516 m 257
 70 516 l 1281
247 616 m 257
 70 616 l 1281
EndSplineSet
PickledDataWithLists: "(dp0
Vcom.schriftgestaltung.Glyphs.leftMetricsKey
p1
Vequal.dnom
p2
sVcom.schriftgestaltung.Glyphs.rightMetricsKey
p3
Vequal.dnom
p4
s."
EndChar

StartChar: estimated
Encoding: 214 8494 212
GlifName: estimated
Width: 969
VWidth: 0
Flags: W
LayerCount: 2
Back
SplineSet
316 356 m 257
 874 356 l 257
 874 515 758 680 491 680 c 256
 224 680 95 500 95 331 c 256
 95 172 224 0 491 0 c 256
 632 0 742 54 795 118 c 1280
273 85 m 257
 273 586 l 1281
711 382 m 257
 711 586 l 1281
EndSplineSet
Fore
SplineSet
273 85 m 257
 273 586 l 1281
316 356 m 257
 874 356 l 257
 874 515 758 680 491 680 c 256
 224 680 95 500 95 331 c 256
 95 172 224 0 491 0 c 256
 632 0 742 54 795 118 c 1280
711 382 m 257
 711 586 l 1281
EndSplineSet
PickledDataWithLists: "(dp0
Vcom.schriftgestaltung.Glyphs.leftMetricsKey
p1
VO
p2
sVcom.schriftgestaltung.Glyphs.rightMetricsKey
p3
g2
s."
EndChar

StartChar: eth
Encoding: 215 240 213
GlifName: eth
Width: 592
VWidth: 0
Flags: W
LayerCount: 2
Fore
SplineSet
222 503 m 257
 446 612 l 1281
497 297 m 256
 451 368 373 401 304 401 c 256
 201 401 110 324 110 198 c 256
 110 84 182 0 310 0 c 256
 458 0 512 105 512 205 c 256
 512 284 483 359 401 468 c 258
 242 680 l 1281
EndSplineSet
EndChar

StartChar: exclam
Encoding: 216 33 214
GlifName: exclam
Width: 340
VWidth: 0
Flags: W
LayerCount: 2
Fore
SplineSet
170 190 m 257
 170 680 l 1281
170 90 m 257
 170 -20 l 1281
EndSplineSet
PickledDataWithLists: "(dp0
Vpublic.markColor
p1
V0.06,0.6,0.98,1
p2
s."
EndChar

StartChar: exclam.ss04
Encoding: 217 -1 215
GlifName: exclam.ss04
Width: 341
VWidth: 0
Flags: W
LayerCount: 2
Fore
SplineSet
172 180 m 257
 172 680 l 1281
170 72 m 257
 147 72 130 54 130 31 c 256
 130 8 148 -10 171 -10 c 256
 194 -10 211 8 211 31 c 256
 211 54 194 72 172 72 c 1281
EndSplineSet
PickledDataWithLists: "(dp0
Vpublic.markColor
p1
V0.99,0.62,0.11,1
p2
s."
EndChar

StartChar: exclam.ss05
Encoding: 218 -1 216
GlifName: exclam.ss05
Width: 314
VWidth: 0
Flags: W
LayerCount: 2
Fore
SplineSet
160 180 m 257
 160 680 l 1281
184 0 m 257
 184 67 l 257
 130 67 l 1281
EndSplineSet
PickledDataWithLists: "(dp0
Vpublic.markColor
p1
V0.98,0.36,0.67,1
p2
s."
EndChar

StartChar: exclamdown
Encoding: 219 161 217
GlifName: exclamdown
Width: 340
VWidth: 0
Flags: W
LayerCount: 2
Fore
SplineSet
170 365 m 257
 170 -125 l 1281
170 465 m 257
 170 575 l 1281
EndSplineSet
PickledDataWithLists: "(dp0
Vcom.schriftgestaltung.Glyphs.leftMetricsKey
p1
V=|exclam
p2
sVcom.schriftgestaltung.Glyphs.rightMetricsKey
p3
V=|exclam
p4
sVpublic.markColor
p5
V0.06,0.6,0.98,1
p6
s."
EndChar

StartChar: exclamdown.ss04
Encoding: 220 -1 218
GlifName: exclamdown.ss04
Width: 341
VWidth: 0
Flags: W
LayerCount: 2
Fore
SplineSet
169 375 m 257
 169 -125 l 1281
171 483 m 257
 194 483 211 501 211 524 c 256
 211 547 193 565 170 565 c 256
 147 565 130 547 130 524 c 256
 130 501 147 483 169 483 c 1281
EndSplineSet
PickledDataWithLists: "(dp0
Vcom.schriftgestaltung.Glyphs.leftMetricsKey
p1
V=|exclam.ss04
p2
sVcom.schriftgestaltung.Glyphs.rightMetricsKey
p3
V=|exclam.ss04
p4
sVpublic.markColor
p5
V0.99,0.62,0.11,1
p6
s."
EndChar

StartChar: exclamdown.ss05
Encoding: 221 -1 219
GlifName: exclamdown.ss05
Width: 314
VWidth: 0
Flags: W
LayerCount: 2
Fore
SplineSet
154 375 m 257
 154 -125 l 1281
130 555 m 257
 130 488 l 257
 184 488 l 1281
EndSplineSet
PickledDataWithLists: "(dp0
Vcom.schriftgestaltung.Glyphs.leftMetricsKey
p1
V=|exclam.ss05
p2
sVcom.schriftgestaltung.Glyphs.rightMetricsKey
p3
V=|exclam.ss05
p4
sVpublic.markColor
p5
V0.98,0.36,0.67,1
p6
s."
EndChar

StartChar: f
Encoding: 222 102 220
GlifName: f
Width: 333
VWidth: 0
Flags: W
LayerCount: 2
Back
SplineSet
150 0 m 257
 150 619 l 258
 150 696 187 745 258 745 c 256
 285 745 309 738 328 724 c 1281
50 500 m 257
 297 500 l 1281
EndSplineSet
Fore
SplineSet
150 0 m 257
 150 619 l 258
 150 696 187 745 258 745 c 256
 285 745 309 738 328 724 c 1281
50 500 m 257
 297 500 l 1281
EndSplineSet
EndChar

StartChar: fi
Encoding: 223 64257 221
GlifName: fi
Width: 613
VWidth: 0
Flags: W
LayerCount: 2
Back
Refer: 0 -1 N 1 0 0 1 10 0 2
Fore
SplineSet
150 0 m 257
 150 619 l 258
 150 696 187 745 258 745 c 256
 285 745 309 738 328 724 c 1281
50 500 m 257
 297 500 l 1281
473 0 m 257
 473 555 l 1281
473 678 m 257
 473 785 l 1281
EndSplineSet
Guideline: "" "" 48 697 0 0 0
Guideline: "" "" 48 1971 0 0 0
PickledDataWithLists: "(dp0
Vcom.schriftgestaltung.Glyphs.lastChange
p1
V2021-03-17 07:33:32 +0000
p2
sVcom.schriftgestaltung.Glyphs.leftMetricsKey
p3
Vf
p4
sVcom.schriftgestaltung.Glyphs.rightMetricsKey
p5
Vi
p6
s."
EndChar

StartChar: five
Encoding: 224 53 222
GlifName: five
Width: 558
VWidth: 0
Flags: W
LayerCount: 2
Back
SplineSet
95 138 m 256
 127 49 193 0 276 0 c 256
 385 0 467 84 467 208 c 256
 467 325 393 415 274 415 c 256
 228 415 169 402 127 376 c 257
 137 670 l 257
 449 670 l 1281
EndSplineSet
Fore
SplineSet
95 138 m 256
 127 49 193 0 276 0 c 256
 385 0 467 84 467 208 c 256
 467 325 393 415 274 415 c 256
 228 415 169 402 127 376 c 257
 137 670 l 257
 449 670 l 1281
EndSplineSet
EndChar

StartChar: five.dnom
Encoding: 225 -1 223
GlifName: five.dnom
Width: 279
VWidth: 0
Flags: W
LayerCount: 2
Fore
SplineSet
47.5 69 m 256
 63.5 24.5 96.5 0 138 0 c 256
 192.5 0 233.5 42 233.5 104 c 256
 233.5 162.5 196.5 207.5 137 207.5 c 256
 114 207.5 84.5 201 63.5 188 c 257
 68.5 335 l 257
 224.5 335 l 1281
EndSplineSet
EndChar

StartChar: five.numr
Encoding: 226 -1 224
GlifName: five.numr
Width: 279
VWidth: 0
Flags: W
LayerCount: 2
Fore
SplineSet
47.5 409 m 256
 63.5 364.5 96.5 340 138 340 c 256
 192.5 340 233.5 382 233.5 444 c 256
 233.5 502.5 196.5 547.5 137 547.5 c 256
 114 547.5 84.5 541 63.5 528 c 257
 68.5 675 l 257
 224.5 675 l 1281
EndSplineSet
PickledDataWithLists: "(dp0
Vcom.schriftgestaltung.Glyphs.leftMetricsKey
p1
Vfive.dnom
p2
sVcom.schriftgestaltung.Glyphs.rightMetricsKey
p3
Vfive.dnom
p4
s."
EndChar

StartChar: five.osf
Encoding: 227 -1 225
GlifName: five.osf
Width: 566
VWidth: 0
Flags: W
LayerCount: 2
Back
SplineSet
105 8 m 256
 132 -66 201 -117 283 -117 c 256
 378 -117 468 -49 471 85 c 256
 474 205 401 295 276 295 c 256
 223 295 174 279 134 257 c 257
 144 565 l 257
 454 565 l 1281
EndSplineSet
Fore
SplineSet
105 8 m 256
 132 -66 201 -117 283 -117 c 256
 378 -117 468 -49 471 85 c 256
 474 205 401 295 276 295 c 256
 223 295 174 279 134 257 c 257
 144 565 l 257
 454 565 l 1281
EndSplineSet
Guideline: "" "" 47 -64 0 0 0
Guideline: "" "" 47 -165 0 0 0
Guideline: "" "" 47 158 0 0 0
EndChar

StartChar: five.subs
Encoding: 228 -1 226
GlifName: five.subs
Width: 279
VWidth: 0
Flags: W
LayerCount: 2
Fore
SplineSet
47.5 4 m 256
 63.5 -40.5 96.5 -65 138 -65 c 256
 192.5 -65 233.5 -23 233.5 39 c 256
 233.5 97.5 196.5 142.5 137 142.5 c 256
 114 142.5 84.5 136 63.5 123 c 257
 68.5 270 l 257
 224.5 270 l 1281
EndSplineSet
PickledDataWithLists: "(dp0
Vcom.schriftgestaltung.Glyphs.leftMetricsKey
p1
Vfive.dnom
p2
sVcom.schriftgestaltung.Glyphs.rightMetricsKey
p3
Vfive.dnom
p4
s."
EndChar

StartChar: fl
Encoding: 229 64258 227
GlifName: fl
Width: 645
VWidth: 0
Flags: W
LayerCount: 2
Back
Refer: 0 -1 N 1 0 0 1 10 0 2
Fore
SplineSet
150 0 m 257
 150 619 l 258
 150 696 187 745 258 745 c 256
 285 745 309 738 328 724 c 1281
50 500 m 257
 297 500 l 1281
590 4 m 257
 583 2 572 0 559 0 c 256
 502 0 473 35 473 107 c 258
 473 745 l 1281
EndSplineSet
Guideline: "" "" 48 697 0 0 0
PickledDataWithLists: "(dp0
Vcom.schriftgestaltung.Glyphs.lastChange
p1
V2021-03-17 07:33:32 +0000
p2
sVcom.schriftgestaltung.Glyphs.leftMetricsKey
p3
Vf
p4
sVcom.schriftgestaltung.Glyphs.rightMetricsKey
p5
Vl
p6
s."
EndChar

StartChar: fl.ss02
Encoding: 230 -1 228
GlifName: fl.ss02
Width: 603
VWidth: 0
Flags: W
LayerCount: 2
Back
Refer: 0 -1 N 1 0 0 1 10 0 2
Fore
SplineSet
150 0 m 257
 150 619 l 258
 150 696 187 745 258 745 c 256
 285 745 309 738 328 724 c 1281
50 500 m 257
 297 500 l 1281
473 0 m 257
 473 745 l 1281
EndSplineSet
Guideline: "" "" 48 697 0 0 0
PickledDataWithLists: "(dp0
Vcom.schriftgestaltung.Glyphs.lastChange
p1
V2021-03-17 07:33:32 +0000
p2
sVcom.schriftgestaltung.Glyphs.leftMetricsKey
p3
Vf
p4
sVcom.schriftgestaltung.Glyphs.rightMetricsKey
p5
Vl.ss02
p6
s."
EndChar

StartChar: florin
Encoding: 231 402 229
GlifName: florin
Width: 549
VWidth: 0
Flags: W
LayerCount: 2
Back
SplineSet
30 -109 m 257
 44 -119 66 -125 91 -125 c 256
 136 -125 180 -104 199 -20 c 258
 332 575 l 258
 351 659 398 680 452 680 c 256
 481 680 499 673 519 660 c 1281
164 383 m 257
 416 383 l 1281
EndSplineSet
Fore
SplineSet
30 -109 m 257
 44 -119 66 -125 91 -125 c 256
 136 -125 180 -104 199 -20 c 258
 332 575 l 258
 351 659 398 680 452 680 c 256
 481 680 499 673 519 660 c 1281
164 383 m 257
 416 383 l 1281
EndSplineSet
EndChar

StartChar: four
Encoding: 232 52 230
GlifName: four
Width: 569
VWidth: 0
Flags: W
LayerCount: 2
Back
SplineSet
385 0 m 257
 385 670 l 257
 375 670 l 257
 65 164 l 257
 65 160 l 257
 509 160 l 1281
EndSplineSet
Fore
SplineSet
385 0 m 257
 385 670 l 257
 375 670 l 257
 65 164 l 257
 65 160 l 257
 509 160 l 1281
EndSplineSet
EndChar

StartChar: four.dnom
Encoding: 233 -1 231
GlifName: four.dnom
Width: 285
VWidth: 0
Flags: W
LayerCount: 2
Back
Refer: 0 -1 N 1 0 0 1 -313 0 2
Fore
SplineSet
192.5 0 m 257
 192.5 334.933 l 257
 187.5 334.933 l 257
 32.5 81.9836 l 257
 32.5 79.984 l 257
 254.5 79.984 l 1281
EndSplineSet
EndChar

StartChar: four.numr
Encoding: 234 -1 232
GlifName: four.numr
Width: 285
VWidth: 0
Flags: W
LayerCount: 2
Fore
SplineSet
192.5 340 m 257
 192.5 674.933 l 257
 187.5 674.933 l 257
 32.5 421.9836 l 257
 32.5 419.984 l 257
 254.5 419.984 l 1281
EndSplineSet
PickledDataWithLists: "(dp0
Vcom.schriftgestaltung.Glyphs.leftMetricsKey
p1
Vfour.dnom
p2
sVcom.schriftgestaltung.Glyphs.rightMetricsKey
p3
Vfour.dnom
p4
s."
EndChar

StartChar: four.osf
Encoding: 235 -1 233
GlifName: four.osf
Width: 567
VWidth: 0
Flags: W
LayerCount: 2
Back
SplineSet
383 -133 m 257
 383 565 l 257
 373 565 l 257
 60 31 l 257
 60 27 l 257
 507 27 l 1281
EndSplineSet
Fore
SplineSet
383 -133 m 257
 383 565 l 257
 373 565 l 257
 60 31 l 257
 60 27 l 257
 507 27 l 1281
EndSplineSet
Guideline: "" "" 124 -64 0 0 0
Guideline: "" "" 495 -64 0 0 0
Guideline: "" "" 545 -64 0 0 0
EndChar

StartChar: four.subs
Encoding: 236 -1 234
GlifName: four.subs
Width: 285
VWidth: 0
Flags: W
LayerCount: 2
Fore
SplineSet
192.5 -65 m 257
 192.5 269.933 l 257
 187.5 269.933 l 257
 32.5 16.9836 l 257
 32.5 14.984 l 257
 254.5 14.984 l 1281
EndSplineSet
PickledDataWithLists: "(dp0
Vcom.schriftgestaltung.Glyphs.leftMetricsKey
p1
Vfour.dnom
p2
sVcom.schriftgestaltung.Glyphs.rightMetricsKey
p3
Vfour.dnom
p4
s."
EndChar

StartChar: fraction
Encoding: 237 8260 235
GlifName: fraction
Width: 117
VWidth: 0
Flags: W
LayerCount: 2
Fore
SplineSet
-120 0 m 257
 237 680 l 1281
EndSplineSet
EndChar

StartChar: g
Encoding: 238 103 236
GlifName: g
Width: 608
VWidth: 0
Flags: W
LayerCount: 2
Back
SplineSet
473 421 m 257
 419 517 352 555 280 555 c 256
 157 555 90 447 90 289 c 256
 90 147 144 20 280 20 c 256
 365 20 430 68 473 147 c 1281
EndSplineSet
Fore
SplineSet
473 421 m 257
 419 517 352 555 280 555 c 256
 157 555 90 447 90 289 c 256
 90 147 144 20 280 20 c 256
 365 20 430 68 473 147 c 1281
127 -107 m 257
 161 -164 218 -190 292 -190 c 256
 407 -190 473 -126 473 -2 c 258
 473 555 l 1281
EndSplineSet
PickledDataWithLists: "(dp0
Vcom.schriftgestaltung.Glyphs.leftMetricsKey
p1
Vo
p2
sVcom.schriftgestaltung.Glyphs.rightMetricsKey
p3
Vn
p4
s."
EndChar

StartChar: g.ss01
Encoding: 239 -1 237
GlifName: g.ss01
Width: 562
VWidth: 0
Flags: W
LayerCount: 2
Back
SplineSet
219 93 m 257
 143 63 80 -6 80 -68 c 256
 80 -151 161 -190 277 -190 c 256
 402 -190 487 -142 487 -59 c 256
 487 109 152 44 152 158 c 256
 152 186 173 216 220 239 c 1281
273 555 m 257
 177 555 101 495 101 394 c 256
 101 297 168 235 275 235 c 256
 380 235 449 294 449 391 c 256
 449 503 363 555 275 555 c 1281
344 543 m 257
 517 543 l 1281
EndSplineSet
Fore
SplineSet
219 93 m 257
 143 63 80 -6 80 -68 c 256
 80 -151 161 -190 277 -190 c 256
 402 -190 487 -142 487 -59 c 256
 487 109 152 44 152 158 c 256
 152 186 173 216 220 239 c 1281
273 555 m 257
 177 555 101 495 101 394 c 256
 101 297 168 235 275 235 c 256
 380 235 449 294 449 391 c 256
 449 503 363 555 275 555 c 1281
344 543 m 257
 517 543 l 1281
EndSplineSet
EndChar

StartChar: gbreve
Encoding: 240 287 238
GlifName: gbreve
Width: 608
VWidth: 0
Flags: W
LayerCount: 2
Fore
SplineSet
473 421 m 257
 419 517 352 555 280 555 c 256
 157 555 90 447 90 289 c 256
 90 147 144 20 280 20 c 256
 365 20 430 68 473 147 c 1281
127 -107 m 257
 161 -164 218 -190 292 -190 c 256
 407 -190 473 -126 473 -2 c 258
 473 555 l 1281
188 762 m 257
 188 707 240 680 306 680 c 256
 372 680 428 706 428 761 c 1280
EndSplineSet
EndChar

StartChar: gbreve.ss01
Encoding: 241 -1 239
GlifName: gbreve.ss01
Width: 562
VWidth: 0
Flags: W
LayerCount: 2
Fore
SplineSet
219 93 m 257
 143 63 80 -6 80 -68 c 256
 80 -151 161 -190 277 -190 c 256
 402 -190 487 -142 487 -59 c 256
 487 109 152 44 152 158 c 256
 152 186 173 216 220 239 c 1281
273 555 m 257
 177 555 101 495 101 394 c 256
 101 297 168 235 275 235 c 256
 380 235 449 294 449 391 c 256
 449 503 363 555 275 555 c 1281
344 543 m 257
 517 543 l 1281
159 762 m 257
 159 707 211 680 277 680 c 256
 343 680 399 706 399 761 c 1280
EndSplineSet
EndChar

StartChar: gcircumflex
Encoding: 242 285 240
GlifName: gcircumflex
Width: 608
VWidth: 0
Flags: W
LayerCount: 2
Fore
SplineSet
473 421 m 257
 419 517 352 555 280 555 c 256
 157 555 90 447 90 289 c 256
 90 147 144 20 280 20 c 256
 365 20 430 68 473 147 c 1281
127 -107 m 257
 161 -164 218 -190 292 -190 c 256
 407 -190 473 -126 473 -2 c 258
 473 555 l 1281
419 648 m 257
 310 774 l 257
 306 774 l 257
 197 648 l 1281
EndSplineSet
EndChar

StartChar: gcircumflex.ss01
Encoding: 243 -1 241
GlifName: gcircumflex.ss01
Width: 562
VWidth: 0
Flags: W
LayerCount: 2
Fore
SplineSet
219 93 m 257
 143 63 80 -6 80 -68 c 256
 80 -151 161 -190 277 -190 c 256
 402 -190 487 -142 487 -59 c 256
 487 109 152 44 152 158 c 256
 152 186 173 216 220 239 c 1281
273 555 m 257
 177 555 101 495 101 394 c 256
 101 297 168 235 275 235 c 256
 380 235 449 294 449 391 c 256
 449 503 363 555 275 555 c 1281
344 543 m 257
 517 543 l 1281
390 648 m 257
 281 774 l 257
 277 774 l 257
 168 648 l 1281
EndSplineSet
EndChar

StartChar: gdotaccent
Encoding: 244 289 242
GlifName: gdotaccent
Width: 608
VWidth: 0
Flags: W
LayerCount: 2
Fore
SplineSet
473 421 m 257
 419 517 352 555 280 555 c 256
 157 555 90 447 90 289 c 256
 90 147 144 20 280 20 c 256
 365 20 430 68 473 147 c 1281
127 -107 m 257
 161 -164 218 -190 292 -190 c 256
 407 -190 473 -126 473 -2 c 258
 473 555 l 1281
308 678 m 257
 308 785 l 1281
EndSplineSet
EndChar

StartChar: gdotaccent.ss01
Encoding: 245 -1 243
GlifName: gdotaccent.ss01
Width: 562
VWidth: 0
Flags: W
LayerCount: 2
Fore
SplineSet
219 93 m 257
 143 63 80 -6 80 -68 c 256
 80 -151 161 -190 277 -190 c 256
 402 -190 487 -142 487 -59 c 256
 487 109 152 44 152 158 c 256
 152 186 173 216 220 239 c 1281
273 555 m 257
 177 555 101 495 101 394 c 256
 101 297 168 235 275 235 c 256
 380 235 449 294 449 391 c 256
 449 503 363 555 275 555 c 1281
344 543 m 257
 517 543 l 1281
279 678 m 257
 279 785 l 1281
EndSplineSet
EndChar

StartChar: germandbls
Encoding: 246 223 244
GlifName: germandbls
Width: 594
VWidth: 0
Flags: W
LayerCount: 2
Back
SplineSet
261 406 m 257
 302 406 l 258
 418 406 469 494 469 582 c 256
 469 670 417 745 309 745 c 256
 200 745 140 668 140 529 c 258
 140 0 l 1281
250 24 m 256
 273 11 304 0 341 0 c 256
 445 0 509 85 509 195 c 256
 509 317 426 406 302 406 c 1281
EndSplineSet
Fore
SplineSet
250 24 m 256
 273 11 304 0 341 0 c 256
 445 0 509 85 509 194 c 256
 509 317 426 406 302 406 c 1281
261 406 m 257
 302 406 l 258
 418 406 469 494 469 582 c 256
 469 670 417 745 309 745 c 256
 200 745 140 668 140 529 c 258
 140 0 l 1281
EndSplineSet
PickledDataWithLists: "(dp0
Vcom.schriftgestaltung.Glyphs.leftMetricsKey
p1
Vn
p2
s."
EndChar

StartChar: grave
Encoding: 247 96 245
GlifName: grave
Width: 155
VWidth: 0
Flags: W
LayerCount: 2
Fore
SplineSet
10 791 m 257
 145 658 l 1281
EndSplineSet
EndChar

StartChar: gravecomb
Encoding: 248 768 246
GlifName: gravecomb
Width: 155
VWidth: 0
Flags: W
LayerCount: 2
Fore
SplineSet
10 791 m 257
 145 658 l 1281
EndSplineSet
EndChar

StartChar: greater
Encoding: 249 62 247
GlifName: greater
Width: 652
VWidth: 0
Flags: W
LayerCount: 2
Back
SplineSet
100 50 m 257
 552 284 l 257
 552 288 l 257
 100 522 l 1281
EndSplineSet
Fore
SplineSet
100 50 m 257
 552 284 l 257
 552 288 l 257
 100 522 l 1281
EndSplineSet
EndChar

StartChar: greaterequal
Encoding: 250 8805 248
GlifName: greaterequal
Width: 618
VWidth: 0
Flags: W
LayerCount: 2
Back
SplineSet
65 588 m 257
 65 538 l 257
 449 347 l 257
 449 345 l 257
 65 154 l 257
 65 104 l 257
 495 325 l 257
 495 367 l 257
 65 588 l 257
496 21 m 257
 496 63 l 257
 59 63 l 257
 59 21 l 257
 496 21 l 257
EndSplineSet
Fore
SplineSet
111 0 m 257
 507 0 l 1281
110 142 m 257
 507.76 329.2 l 257
 507.76 332.4 l 257
 110 519.6 l 1281
EndSplineSet
EndChar

StartChar: guillemotleft
Encoding: 251 171 249
GlifName: guillemotleft
Width: 540
VWidth: 0
Flags: W
LayerCount: 2
Fore
SplineSet
440 77 m 257
 280 276 l 257
 280 286 l 257
 438 485 l 1281
220 77 m 257
 60 276 l 257
 60 286 l 257
 218 485 l 1281
EndSplineSet
PickledDataWithLists: "(dp0
Vcom.schriftgestaltung.Glyphs.leftMetricsKey
p1
Vguilsinglleft
p2
sVcom.schriftgestaltung.Glyphs.rightMetricsKey
p3
Vguilsinglleft
p4
s."
EndChar

StartChar: guillemotright
Encoding: 252 187 250
GlifName: guillemotright
Width: 540
VWidth: 0
Flags: W
LayerCount: 2
Fore
SplineSet
102 485 m 257
 260 286 l 257
 260 276 l 257
 100 77 l 1281
322 485 m 257
 480 286 l 257
 480 276 l 257
 320 77 l 1281
EndSplineSet
PickledDataWithLists: "(dp0
Vcom.schriftgestaltung.Glyphs.leftMetricsKey
p1
V=|guilsinglleft
p2
sVcom.schriftgestaltung.Glyphs.rightMetricsKey
p3
V=|guilsinglleft
p4
s."
EndChar

StartChar: guilsinglleft
Encoding: 253 8249 251
GlifName: guilsinglleft
Width: 320
VWidth: 0
Flags: W
LayerCount: 2
Back
SplineSet
220 77 m 257
 60 276 l 257
 60 286 l 257
 218 485 l 1281
EndSplineSet
Fore
SplineSet
220 77 m 257
 60 276 l 257
 60 286 l 257
 218 485 l 1281
EndSplineSet
EndChar

StartChar: guilsinglright
Encoding: 254 8250 252
GlifName: guilsinglright
Width: 320
VWidth: 0
Flags: W
LayerCount: 2
Fore
SplineSet
102 485 m 257
 260 286 l 257
 260 276 l 257
 100 77 l 1281
EndSplineSet
PickledDataWithLists: "(dp0
Vcom.schriftgestaltung.Glyphs.leftMetricsKey
p1
V=|guilsinglleft
p2
sVcom.schriftgestaltung.Glyphs.rightMetricsKey
p3
V=|guilsinglleft
p4
s."
EndChar

StartChar: h
Encoding: 255 104 253
GlifName: h
Width: 608
VWidth: 0
Flags: W
LayerCount: 2
Fore
SplineSet
140 745 m 257
 140 0 l 1281
473 0 m 257
 473 415 l 258
 473 502 433 555 356 555 c 256
 267 555 201 485 140 415 c 1281
EndSplineSet
PickledDataWithLists: "(dp0
Vcom.schriftgestaltung.Glyphs.lastChange
p1
V2021-03-17 07:33:32 +0000
p2
sVcom.schriftgestaltung.Glyphs.leftMetricsKey
p3
Vn
p4
sVcom.schriftgestaltung.Glyphs.rightMetricsKey
p5
g4
s."
EndChar

StartChar: hbar
Encoding: 256 295 254
GlifName: hbar
Width: 608
VWidth: 0
Flags: W
LayerCount: 2
Fore
SplineSet
48 644 m 257
 276 644 l 1281
140 745 m 257
 140 0 l 1281
473 0 m 257
 473 415 l 258
 473 502 433 555 356 555 c 256
 267 555 201 485 140 415 c 1281
EndSplineSet
EndChar

StartChar: hcircumflex
Encoding: 257 293 255
GlifName: hcircumflex
Width: 608
VWidth: 0
Flags: W
LayerCount: 2
Fore
SplineSet
140 745 m 257
 140 0 l 1281
473 0 m 257
 473 415 l 258
 473 502 433 555 356 555 c 256
 267 555 201 485 140 415 c 1281
415 838 m 257
 306 964 l 257
 302 964 l 257
 193 838 l 1281
EndSplineSet
EndChar

StartChar: hungarumlaut
Encoding: 258 733 256
GlifName: hungarumlaut
Width: 294
VWidth: 0
Flags: W
LayerCount: 2
Fore
SplineSet
10 657 m 257
 137 782 l 1281
157 657 m 257
 284 782 l 1281
EndSplineSet
EndChar

StartChar: hyphen
Encoding: 259 45 257
GlifName: hyphen
Width: 417
VWidth: 0
Flags: W
LayerCount: 2
Back
SplineSet
100 278 m 257
 317 278 l 257
 317 224 l 1281
EndSplineSet
Fore
SplineSet
100 278 m 257
 317 278 l 1281
EndSplineSet
EndChar

StartChar: i
Encoding: 260 105 258
GlifName: i
Width: 280
VWidth: 0
Flags: W
LayerCount: 2
Fore
SplineSet
140 0 m 257
 140 555 l 1281
140 678 m 257
 140 785 l 1281
EndSplineSet
Guideline: "" "" 20 1971 0 0 0
PickledDataWithLists: "(dp0
Vcom.schriftgestaltung.Glyphs.leftMetricsKey
p1
Vn
p2
sVcom.schriftgestaltung.Glyphs.rightMetricsKey
p3
V=|n
p4
s."
EndChar

StartChar: i.loclTRK
Encoding: 261 -1 259
GlifName: i.loclT_R_K_
Width: 280
VWidth: 0
Flags: W
LayerCount: 2
Fore
SplineSet
140 0 m 257
 140 555 l 1281
140 678 m 257
 140 785 l 1281
EndSplineSet
EndChar

StartChar: iacute
Encoding: 262 237 260
GlifName: iacute
Width: 280
VWidth: 0
Flags: W
LayerCount: 2
Fore
SplineSet
140 0 m 257
 140 555 l 1281
72 657 m 257
 207 790 l 1281
EndSplineSet
PickledDataWithLists: "(dp0
Vcom.schriftgestaltung.Glyphs.lastChange
p1
V2021-03-17 07:33:32 +0000
p2
s."
EndChar

StartChar: ibreve
Encoding: 263 301 261
GlifName: ibreve
Width: 280
VWidth: 0
Flags: W
LayerCount: 2
Fore
SplineSet
140 0 m 257
 140 555 l 1281
20 762 m 257
 20 707 72 680 138 680 c 256
 204 680 260 706 260 761 c 1280
EndSplineSet
EndChar

StartChar: icircumflex
Encoding: 264 238 262
GlifName: icircumflex
Width: 280
VWidth: 0
Flags: W
LayerCount: 2
Fore
SplineSet
140 0 m 257
 140 555 l 1281
251 648 m 257
 142 774 l 257
 138 774 l 257
 29 648 l 1281
EndSplineSet
PickledDataWithLists: "(dp0
Vcom.schriftgestaltung.Glyphs.lastChange
p1
V2021-03-17 07:33:32 +0000
p2
s."
EndChar

StartChar: idieresis
Encoding: 265 239 263
GlifName: idieresis
Width: 280
VWidth: 0
Flags: W
LayerCount: 2
Fore
SplineSet
140 0 m 257
 140 555 l 1281
69 660 m 257
 69 785 l 1281
211 660 m 257
 211 785 l 1281
EndSplineSet
PickledDataWithLists: "(dp0
Vcom.schriftgestaltung.Glyphs.lastChange
p1
V2021-03-17 07:33:32 +0000
p2
s."
EndChar

StartChar: igrave
Encoding: 266 236 264
GlifName: igrave
Width: 280
VWidth: 0
Flags: W
LayerCount: 2
Fore
SplineSet
140 0 m 257
 140 555 l 1281
72 791 m 257
 207 658 l 1281
EndSplineSet
PickledDataWithLists: "(dp0
Vcom.schriftgestaltung.Glyphs.lastChange
p1
V2021-03-17 07:33:32 +0000
p2
s."
EndChar

StartChar: imacron
Encoding: 267 299 265
GlifName: imacron
Width: 280
VWidth: 0
Flags: W
LayerCount: 2
Fore
SplineSet
140 0 m 257
 140 555 l 1281
250 703 m 257
 29 703 l 1281
EndSplineSet
EndChar

StartChar: infinity
Encoding: 268 8734 266
GlifName: infinity
Width: 870
VWidth: 0
Flags: W
LayerCount: 2
Fore
SplineSet
770 274 m 257
 770 201 724 135 636 135 c 256
 477 135 392 416 232 416 c 256
 145 416 100 349 100 277 c 256
 100 205 144 135 232 135 c 256
 391 135 477 416 636 416 c 256
 724 416 770 348 770 276 c 1281
EndSplineSet
EndChar

StartChar: integral
Encoding: 269 8747 267
GlifName: integral
Width: 420
VWidth: 0
Flags: W
LayerCount: 2
Back
SplineSet
50 -89 m 257
 62 -98 81 -104 101 -104 c 256
 167 -104 200 -60 200 50 c 258
 200 590 l 258
 200 700 233 743 299 745 c 256
 320 746 339 738 350 730 c 1281
EndSplineSet
Fore
SplineSet
60 -89 m 257
 72 -98 91 -104 111 -104 c 256
 177 -104 210 -60 210 50 c 258
 210 590 l 258
 210 700 243 743 309 745 c 256
 330 746 349 738 360 730 c 1281
EndSplineSet
EndChar

StartChar: iogonek
Encoding: 270 303 268
GlifName: iogonek
Width: 280
VWidth: 0
Flags: W
LayerCount: 2
Fore
SplineSet
140 0 m 257
 140 555 l 1281
140 678 m 257
 140 785 l 1281
181 -184 m 256
 168 -192 143 -200 119 -200 c 256
 69 -200 42 -175 42 -130 c 256
 42 -87 93 -38 140 0 c 1281
EndSplineSet
EndChar

StartChar: itilde
Encoding: 271 297 269
GlifName: itilde
Width: 280
VWidth: 0
Flags: W
LayerCount: 2
Fore
SplineSet
140 0 m 257
 140 555 l 1281
1 687 m 257
 23 724 50 735 75 735 c 256
 122 735 152 687 205 687 c 256
 230 687 256 696 279 734 c 1281
EndSplineSet
EndChar

StartChar: j
Encoding: 272 106 270
GlifName: j
Width: 293
VWidth: 0
Flags: W
LayerCount: 2
Fore
SplineSet
156 678 m 257
 156 785 l 1281
0 -165 m 257
 15 -179 39 -190 72 -190 c 256
 135 -190 158 -152 158 -83 c 258
 158 555 l 1281
EndSplineSet
PickledDataWithLists: "(dp0
Vcom.schriftgestaltung.Glyphs.rightMetricsKey
p1
Vn
p2
s."
EndChar

StartChar: jcircumflex
Encoding: 273 309 271
GlifName: jcircumflex
Width: 293
VWidth: 0
Flags: W
LayerCount: 2
Fore
SplineSet
0 -165 m 257
 15 -179 39 -190 72 -190 c 256
 135 -190 158 -152 158 -83 c 258
 158 555 l 1281
269 648 m 257
 160 774 l 257
 156 774 l 257
 47 648 l 1281
EndSplineSet
EndChar

StartChar: k
Encoding: 274 107 272
GlifName: k
Width: 528
VWidth: 0
Flags: W
LayerCount: 2
Back
SplineSet
478 0 m 257
 200 302 l 257
 456 555 l 1281
EndSplineSet
Fore
SplineSet
140 745 m 257
 140 0 l 1281
478 0 m 257
 200 302 l 257
 456 555 l 1281
EndSplineSet
PickledDataWithLists: "(dp0
Vcom.schriftgestaltung.Glyphs.leftMetricsKey
p1
Vn
p2
s."
EndChar

StartChar: l
Encoding: 275 108 273
GlifName: l
Width: 307
VWidth: 0
Flags: W
LayerCount: 2
Fore
SplineSet
252 4 m 257
 245 2 234 0 221 0 c 256
 164 0 135 35 135 107 c 258
 135 745 l 1281
EndSplineSet
PickledDataWithLists: "(dp0
Vcom.schriftgestaltung.Glyphs.leftMetricsKey
p1
V=|n
p2
s."
EndChar

StartChar: l.ss02
Encoding: 276 -1 274
GlifName: l.ss02
Width: 270
VWidth: 0
Flags: W
LayerCount: 2
Fore
SplineSet
140 0 m 257
 140 745 l 1281
EndSplineSet
PickledDataWithLists: "(dp0
Vcom.schriftgestaltung.Glyphs.leftMetricsKey
p1
Vn
p2
s."
EndChar

StartChar: lacute
Encoding: 277 314 275
GlifName: lacute
Width: 307
VWidth: 0
Flags: W
LayerCount: 2
Fore
SplineSet
252 4 m 257
 245 2 234 0 221 0 c 256
 164 0 135 35 135 107 c 258
 135 745 l 1281
134 847 m 257
 269 980 l 1281
EndSplineSet
EndChar

StartChar: lacute.ss02
Encoding: 278 -1 276
GlifName: lacute.ss02
Width: 270
VWidth: 0
Flags: W
LayerCount: 2
Fore
SplineSet
140 0 m 257
 140 745 l 1281
141 847 m 257
 276 980 l 1281
EndSplineSet
EndChar

StartChar: lcaron
Encoding: 279 318 277
GlifName: lcaron
Width: 307
VWidth: 0
Flags: W
LayerCount: 2
Fore
SplineSet
252 4 m 257
 245 2 234 0 221 0 c 256
 164 0 135 35 135 107 c 258
 135 745 l 1281
228 578 m 257
 285 661 l 257
 285 745 l 1281
EndSplineSet
EndChar

StartChar: lcaron.ss02
Encoding: 280 -1 278
GlifName: lcaron.ss02
Width: 270
VWidth: 0
Flags: W
LayerCount: 2
Fore
SplineSet
140 0 m 257
 140 745 l 1281
233 578 m 257
 290 661 l 257
 290 745 l 1281
EndSplineSet
EndChar

StartChar: ldot
Encoding: 281 320 279
GlifName: ldot
Width: 352
VWidth: 0
Flags: W
LayerCount: 2
Fore
SplineSet
252 4 m 257
 245 2 234 0 221 0 c 256
 164 0 135 35 135 107 c 258
 135 745 l 1281
317 375 m 257
 317 265 l 1281
EndSplineSet
PickledDataWithLists: "(dp0
Vcom.schriftgestaltung.Glyphs.leftMetricsKey
p1
V=|n
p2
sVpublic.markColor
p3
V0.06,0.6,0.98,1
p4
s."
EndChar

StartChar: ldot.ss02
Encoding: 282 -1 280
GlifName: ldot.ss02
Width: 315
VWidth: 0
Flags: W
LayerCount: 2
Fore
SplineSet
140 0 m 257
 140 745 l 1281
300 375 m 257
 300 265 l 1281
EndSplineSet
PickledDataWithLists: "(dp0
Vpublic.markColor
p1
V0.06,0.6,0.98,1
p2
s."
EndChar

StartChar: ldot.ss02.ss04
Encoding: 283 -1 281
GlifName: ldot.ss02.ss04
Width: 341
VWidth: 0
Flags: W
LayerCount: 2
Fore
SplineSet
140 0 m 257
 140 745 l 1281
310 357 m 257
 287 357 270 339 270 316 c 256
 270 293 288 275 311 275 c 256
 334 275 351 293 351 316 c 256
 351 339 334 357 312 357 c 1281
EndSplineSet
PickledDataWithLists: "(dp0
Vpublic.markColor
p1
V0.99,0.62,0.11,1
p2
s."
EndChar

StartChar: ldot.ss02.ss05
Encoding: 284 -1 282
GlifName: ldot.ss02.ss05
Width: 339
VWidth: 0
Flags: W
LayerCount: 2
Fore
SplineSet
140 0 m 257
 140 745 l 1281
324 285 m 257
 324 352 l 257
 270 352 l 1281
EndSplineSet
PickledDataWithLists: "(dp0
Vpublic.markColor
p1
V0.98,0.36,0.67,1
p2
s."
EndChar

StartChar: ldot.ss04
Encoding: 285 -1 283
GlifName: ldot.ss04
Width: 373
VWidth: 0
Flags: W
LayerCount: 2
Fore
SplineSet
252 4 m 257
 245 2 234 0 221 0 c 256
 164 0 135 35 135 107 c 258
 135 745 l 1281
327 357 m 257
 304 357 287 339 287 316 c 256
 287 293 305 275 328 275 c 256
 351 275 368 293 368 316 c 256
 368 339 351 357 329 357 c 1281
EndSplineSet
PickledDataWithLists: "(dp0
Vcom.schriftgestaltung.Glyphs.leftMetricsKey
p1
V=|n
p2
sVpublic.markColor
p3
V0.99,0.62,0.11,1
p4
s."
EndChar

StartChar: ldot.ss05
Encoding: 286 -1 284
GlifName: ldot.ss05
Width: 371
VWidth: 0
Flags: W
LayerCount: 2
Fore
SplineSet
252 4 m 257
 245 2 234 0 221 0 c 256
 164 0 135 35 135 107 c 258
 135 745 l 1281
336 285 m 257
 336 352 l 257
 282 352 l 1281
EndSplineSet
PickledDataWithLists: "(dp0
Vcom.schriftgestaltung.Glyphs.leftMetricsKey
p1
V=|n
p2
sVpublic.markColor
p3
V0.98,0.36,0.67,1
p4
s."
EndChar

StartChar: less
Encoding: 287 60 285
GlifName: less
Width: 652
VWidth: 0
Flags: W
LayerCount: 2
Fore
SplineSet
552 522 m 257
 100 288 l 257
 100 284 l 257
 552 50 l 1281
EndSplineSet
EndChar

StartChar: lessequal
Encoding: 288 8804 286
GlifName: lessequal
Width: 618
VWidth: 0
Flags: W
LayerCount: 2
Fore
SplineSet
111 0 m 257
 507 0 l 1281
508 520 m 257
 110 332 l 257
 110 329 l 257
 508 142 l 1281
EndSplineSet
EndChar

StartChar: logicalnot
Encoding: 289 172 287
GlifName: logicalnot
Width: 664
VWidth: 0
Flags: W
LayerCount: 2
Fore
SplineSet
564 140 m 257
 564 365 l 257
 100 365 l 1281
EndSplineSet
EndChar

StartChar: lozenge
Encoding: 290 9674 288
GlifName: lozenge
Width: 576
VWidth: 0
Flags: W
LayerCount: 2
Back
SplineSet
100 339 m 257
 100 331 l 257
 283 -16 l 257
 293 -16 l 257
 476 331 l 257
 476 341 l 257
 293 696 l 257
 283 696 l 257
 100 341 l 1281
EndSplineSet
Fore
SplineSet
100 339 m 257
 100 331 l 257
 283 -16 l 257
 293 -16 l 257
 476 331 l 257
 476 341 l 257
 293 696 l 257
 283 696 l 257
 100 341 l 1281
EndSplineSet
EndChar

StartChar: lslash
Encoding: 291 322 289
GlifName: lslash
Width: 307
VWidth: 0
Flags: W
LayerCount: 2
Fore
SplineSet
35 327 m 257
 257 407 l 1281
252 4 m 257
 245 2 234 0 221 0 c 256
 164 0 135 35 135 107 c 258
 135 745 l 1281
EndSplineSet
EndChar

StartChar: lslash.ss02
Encoding: 292 -1 290
GlifName: lslash.ss02
Width: 307
VWidth: 0
Flags: W
LayerCount: 2
Fore
SplineSet
35 327 m 257
 257 407 l 1281
140 0 m 257
 140 745 l 1281
EndSplineSet
EndChar

StartChar: m
Encoding: 293 109 291
GlifName: m
Width: 941
VWidth: 0
Flags: W
LayerCount: 2
Fore
SplineSet
140 555 m 257
 140 0 l 1281
473 0 m 257
 473 415 l 258
 473 502 433 555 356 555 c 256
 267 555 201 485 140 415 c 1281
806 0 m 257
 806 415 l 258
 806 502 766 555 689 555 c 256
 600 555 534 485 473 415 c 1281
EndSplineSet
PickledDataWithLists: "(dp0
Vcom.schriftgestaltung.Glyphs.lastChange
p1
V2021-03-17 07:33:32 +0000
p2
sVcom.schriftgestaltung.Glyphs.leftMetricsKey
p3
Vn
p4
sVcom.schriftgestaltung.Glyphs.rightMetricsKey
p5
g4
s."
EndChar

StartChar: macron
Encoding: 294 175 292
GlifName: macron
Width: 241
VWidth: 0
Flags: W
LayerCount: 2
Fore
SplineSet
231 703 m 257
 10 703 l 257
 10 704 l 1281
EndSplineSet
EndChar

StartChar: minus
Encoding: 295 8722 293
GlifName: minus
Width: 635
VWidth: 0
Flags: W
LayerCount: 2
Back
SplineSet
85 332 m 257
 550 332 l 257
 550 278 l 1281
EndSplineSet
Fore
SplineSet
85 332 m 257
 550 332 l 1281
EndSplineSet
EndChar

StartChar: minus.dnom
Encoding: 296 -1 294
GlifName: minus.dnom
Width: 332
VWidth: 0
Flags: W
LayerCount: 2
Fore
SplineSet
42.5 166 m 257
 275 166 l 1281
EndSplineSet
EndChar

StartChar: minus.numr
Encoding: 297 -1 295
GlifName: minus.numr
Width: 332
VWidth: 0
Flags: W
LayerCount: 2
Fore
SplineSet
42.5 506 m 257
 275 506 l 1281
EndSplineSet
PickledDataWithLists: "(dp0
Vcom.schriftgestaltung.Glyphs.leftMetricsKey
p1
Vminus.dnom
p2
sVcom.schriftgestaltung.Glyphs.rightMetricsKey
p3
Vminus.dnom
p4
s."
EndChar

StartChar: minus.subs
Encoding: 298 -1 296
GlifName: minus.subs
Width: 332
VWidth: 0
Flags: W
LayerCount: 2
Fore
SplineSet
42.5 101 m 257
 275 101 l 1281
EndSplineSet
PickledDataWithLists: "(dp0
Vcom.schriftgestaltung.Glyphs.leftMetricsKey
p1
Vminus.dnom
p2
sVcom.schriftgestaltung.Glyphs.rightMetricsKey
p3
Vminus.dnom
p4
s."
EndChar

StartChar: minus.sups
Encoding: 299 -1 297
GlifName: minus.sups
Width: 332
VWidth: 0
Flags: W
LayerCount: 2
Fore
SplineSet
42.5 571 m 257
 275 571 l 1281
EndSplineSet
PickledDataWithLists: "(dp0
Vcom.schriftgestaltung.Glyphs.leftMetricsKey
p1
Vminus.dnom
p2
sVcom.schriftgestaltung.Glyphs.rightMetricsKey
p3
Vminus.dnom
p4
s."
EndChar

StartChar: minute
Encoding: 300 8242 298
GlifName: minute
Width: 141
VWidth: 0
Flags: W
LayerCount: 2
Fore
SplineSet
71 540 m 257
 71 745 l 257
 70 745 l 1281
EndSplineSet
EndChar

StartChar: multiply
Encoding: 301 215 299
GlifName: multiply
Width: 540
VWidth: 0
Flags: W
LayerCount: 2
Back
SplineSet
80 133 m 257
 460 533 l 1281
460 132 m 257
 80 532 l 1281
EndSplineSet
Fore
SplineSet
460 132 m 257
 80 532 l 1281
80 133 m 257
 460 533 l 1281
EndSplineSet
EndChar

StartChar: multiply.dnom
Encoding: 302 -1 300
GlifName: multiply.dnom
Width: 270
VWidth: 0
Flags: W
LayerCount: 2
Fore
SplineSet
230 66 m 257
 40 266 l 1281
40 66.5 m 257
 230 266.5 l 1281
EndSplineSet
EndChar

StartChar: multiply.numr
Encoding: 303 -1 301
GlifName: multiply.numr
Width: 270
VWidth: 0
Flags: W
LayerCount: 2
Fore
SplineSet
230 406 m 257
 40 606 l 1281
40 406.5 m 257
 230 606.5 l 1281
EndSplineSet
PickledDataWithLists: "(dp0
Vcom.schriftgestaltung.Glyphs.leftMetricsKey
p1
Vmultiply.dnom
p2
sVcom.schriftgestaltung.Glyphs.rightMetricsKey
p3
Vmultiply.dnom
p4
s."
EndChar

StartChar: multiply.subs
Encoding: 304 -1 302
GlifName: multiply.subs
Width: 270
VWidth: 0
Flags: W
LayerCount: 2
Fore
SplineSet
230 1 m 257
 40 201 l 1281
40 1.5 m 257
 230 201.5 l 1281
EndSplineSet
PickledDataWithLists: "(dp0
Vcom.schriftgestaltung.Glyphs.leftMetricsKey
p1
Vmultiply.dnom
p2
sVcom.schriftgestaltung.Glyphs.rightMetricsKey
p3
Vmultiply.dnom
p4
s."
EndChar

StartChar: multiply.sups
Encoding: 305 -1 303
GlifName: multiply.sups
Width: 270
VWidth: 0
Flags: W
LayerCount: 2
Fore
SplineSet
230 471 m 257
 40 671 l 1281
40 471.5 m 257
 230 671.5 l 1281
EndSplineSet
PickledDataWithLists: "(dp0
Vcom.schriftgestaltung.Glyphs.leftMetricsKey
p1
Vmultiply.dnom
p2
sVcom.schriftgestaltung.Glyphs.rightMetricsKey
p3
Vmultiply.dnom
p4
s."
EndChar

StartChar: n
Encoding: 306 110 304
GlifName: n
Width: 608
VWidth: 0
Flags: W
LayerCount: 2
Fore
SplineSet
140 555 m 257
 140 0 l 1281
473 0 m 257
 473 415 l 258
 473 502 433 555 356 555 c 256
 267 555 201 485 140 415 c 1281
EndSplineSet
PickledDataWithLists: "(dp0
Vcom.schriftgestaltung.Glyphs.lastChange
p1
V2021-03-17 07:33:32 +0000
p2
s."
EndChar

StartChar: nacute
Encoding: 307 324 305
GlifName: nacute
Width: 608
VWidth: 0
Flags: W
LayerCount: 2
Fore
SplineSet
140 555 m 257
 140 0 l 1281
473 0 m 257
 473 415 l 258
 473 502 433 555 356 555 c 256
 267 555 201 485 140 415 c 1281
246 657 m 257
 381 790 l 1281
EndSplineSet
EndChar

StartChar: ncaron
Encoding: 308 328 306
GlifName: ncaron
Width: 608
VWidth: 0
Flags: W
LayerCount: 2
Fore
SplineSet
140 555 m 257
 140 0 l 1281
473 0 m 257
 473 415 l 258
 473 502 433 555 356 555 c 256
 267 555 201 485 140 415 c 1281
203 776 m 257
 312 650 l 257
 316 650 l 257
 425 776 l 1281
EndSplineSet
EndChar

StartChar: nine
Encoding: 309 57 307
GlifName: nine
Width: 567
VWidth: 0
Flags: W
LayerCount: 2
Fore
SplineSet
207 0 m 257
 366 212 l 258
 448 321 477 396 477 475 c 256
 477 575 423 680 275 680 c 256
 147 680 75 596 75 482 c 256
 75 356 166 279 269 279 c 256
 338 279 416 312 462 383 c 1280
EndSplineSet
PickledDataWithLists: "(dp0
Vcom.schriftgestaltung.Glyphs.leftMetricsKey
p1
V=zero-15
p2
sVcom.schriftgestaltung.Glyphs.rightMetricsKey
p3
Vzero
p4
s."
EndChar

StartChar: nine.dnom
Encoding: 310 -1 308
GlifName: nine.dnom
Width: 276
VWidth: 0
Flags: W
LayerCount: 2
Fore
SplineSet
95.5 0 m 257
 175 106 l 258
 216 160.5 230.5 198 230.5 237.5 c 256
 230.5 287.5 203.5 340 129.5 340 c 256
 65.5 340 29.5 298 29.5 241 c 256
 29.5 178 75 139.5 126.5 139.5 c 256
 161 139.5 200 156 223 191.5 c 1280
EndSplineSet
PickledDataWithLists: "(dp0
Vcom.schriftgestaltung.Glyphs.leftMetricsKey
p1
V=zero.dnom-15
p2
sVcom.schriftgestaltung.Glyphs.rightMetricsKey
p3
Vzero.dnom
p4
s."
EndChar

StartChar: nine.numr
Encoding: 311 -1 309
GlifName: nine.numr
Width: 276
VWidth: 0
Flags: W
LayerCount: 2
Fore
SplineSet
95.5 340 m 257
 175 446 l 258
 216 500.5 230.5 538 230.5 577.5 c 256
 230.5 627.5 203.5 680 129.5 680 c 256
 65.5 680 29.5 638 29.5 581 c 256
 29.5 518 75 479.5 126.5 479.5 c 256
 161 479.5 200 496 223 531.5 c 1280
EndSplineSet
PickledDataWithLists: "(dp0
Vcom.schriftgestaltung.Glyphs.leftMetricsKey
p1
V=zero.dnom-15
p2
sVcom.schriftgestaltung.Glyphs.rightMetricsKey
p3
Vzero.dnom
p4
s."
EndChar

StartChar: nine.osf
Encoding: 312 -1 310
GlifName: nine.osf
Width: 572
VWidth: 0
Flags: W
LayerCount: 2
Fore
SplineSet
188 -131 m 257
 304 -16 482 207 482 370 c 256
 482 452 431 575 280 575 c 256
 152 575 80 483 80 377 c 256
 80 264 161 174 275 174 c 256
 344 174 421 207 467 278 c 1280
EndSplineSet
PickledDataWithLists: "(dp0
Vcom.schriftgestaltung.Glyphs.leftMetricsKey
p1
V=zero.osf-10
p2
sVcom.schriftgestaltung.Glyphs.rightMetricsKey
p3
Vzero.osf
p4
s."
EndChar

StartChar: nine.subs
Encoding: 313 -1 311
GlifName: nine.subs
Width: 276
VWidth: 0
Flags: W
LayerCount: 2
Fore
SplineSet
95.5 -65 m 257
 175 41 l 258
 216 95.5 230.5 133 230.5 172.5 c 256
 230.5 222.5 203.5 275 129.5 275 c 256
 65.5 275 29.5 233 29.5 176 c 256
 29.5 113 75 74.5 126.5 74.5 c 256
 161 74.5 200 91 223 126.5 c 1280
EndSplineSet
PickledDataWithLists: "(dp0
Vcom.schriftgestaltung.Glyphs.leftMetricsKey
p1
V=zero.dnom-15
p2
sVcom.schriftgestaltung.Glyphs.rightMetricsKey
p3
Vzero.dnom
p4
s."
EndChar

StartChar: notequal
Encoding: 314 8800 312
GlifName: notequal
Width: 574
VWidth: 0
Flags: W
LayerCount: 2
Back
SplineSet
190 105 m 257
 384 540 l 1281
474 222 m 257
 100 222 l 1281
474 422 m 257
 100 422 l 1281
EndSplineSet
Fore
SplineSet
474 222 m 257
 100 222 l 1281
190 105 m 257
 384 540 l 1281
474 422 m 257
 100 422 l 1281
EndSplineSet
PickledDataWithLists: "(dp0
Vcom.schriftgestaltung.Glyphs.leftMetricsKey
p1
Vequal
p2
sVcom.schriftgestaltung.Glyphs.rightMetricsKey
p3
Vequal
p4
s."
EndChar

StartChar: ntilde
Encoding: 315 241 313
GlifName: ntilde
Width: 608
VWidth: 0
Flags: W
LayerCount: 2
Fore
SplineSet
140 555 m 257
 140 0 l 1281
473 0 m 257
 473 415 l 258
 473 502 433 555 356 555 c 256
 267 555 201 485 140 415 c 1281
175 687 m 257
 197 724 224 735 249 735 c 256
 296 735 326 687 379 687 c 256
 404 687 430 696 453 734 c 1281
EndSplineSet
PickledDataWithLists: "(dp0
Vcom.schriftgestaltung.Glyphs.lastChange
p1
V2021-03-17 07:33:32 +0000
p2
s."
EndChar

StartChar: numbersign
Encoding: 317 35 315
GlifName: numbersign
Width: 611
VWidth: 0
Flags: W
LayerCount: 2
Fore
SplineSet
60 237 m 257
 521 237 l 1281
160 0 m 257
 254 680 l 1281
355 0 m 257
 449 680 l 1281
90 447 m 257
 551 447 l 1281
EndSplineSet
EndChar

StartChar: o
Encoding: 318 111 316
GlifName: o
Width: 592
VWidth: 0
Flags: W
LayerCount: 2
Back
SplineSet
295 555 m 257
 131 555 90 384 90 275 c 256
 90 140 152 0 296 0 c 256
 440 0 502 140 502 275 c 256
 502 384 461 555 297 555 c 1281
EndSplineSet
Fore
SplineSet
295 555 m 257
 131 555 90 384 90 275 c 256
 90 140 152 0 296 0 c 256
 440 0 502 140 502 275 c 256
 502 384 461 555 297 555 c 1281
EndSplineSet
EndChar

StartChar: oacute
Encoding: 319 243 317
GlifName: oacute
Width: 592
VWidth: 0
Flags: W
LayerCount: 2
Fore
SplineSet
295 555 m 257
 131 555 90 384 90 275 c 256
 90 140 152 0 296 0 c 256
 440 0 502 140 502 275 c 256
 502 384 461 555 297 555 c 1281
227 657 m 257
 362 790 l 1281
EndSplineSet
EndChar

StartChar: obreve
Encoding: 320 335 318
GlifName: obreve
Width: 592
VWidth: 0
Flags: W
LayerCount: 2
Fore
SplineSet
295 555 m 257
 131 555 90 384 90 275 c 256
 90 140 152 0 296 0 c 256
 440 0 502 140 502 275 c 256
 502 384 461 555 297 555 c 1281
175 762 m 257
 175 707 227 680 293 680 c 256
 359 680 415 706 415 761 c 1280
EndSplineSet
EndChar

StartChar: ocircumflex
Encoding: 321 244 319
GlifName: ocircumflex
Width: 592
VWidth: 0
Flags: W
LayerCount: 2
Fore
SplineSet
295 555 m 257
 131 555 90 384 90 275 c 256
 90 140 152 0 296 0 c 256
 440 0 502 140 502 275 c 256
 502 384 461 555 297 555 c 1281
406 648 m 257
 297 774 l 257
 293 774 l 257
 184 648 l 1281
EndSplineSet
EndChar

StartChar: odieresis
Encoding: 322 246 320
GlifName: odieresis
Width: 592
VWidth: 0
Flags: W
LayerCount: 2
Fore
SplineSet
295 555 m 257
 131 555 90 384 90 275 c 256
 90 140 152 0 296 0 c 256
 440 0 502 140 502 275 c 256
 502 384 461 555 297 555 c 1281
224 660 m 257
 224 785 l 1281
366 660 m 257
 366 785 l 1281
EndSplineSet
EndChar

StartChar: oe
Encoding: 323 339 321
GlifName: oe
Width: 973
VWidth: 0
Flags: W
LayerCount: 2
Fore
SplineSet
295 555 m 257
 131 555 90 384 90 275 c 256
 90 140 152 0 296 0 c 256
 440 0 502 140 502 275 c 256
 502 384 461 555 297 555 c 1281
504 305 m 257
 888 305 l 257
 888 417 851 555 706 555 c 256
 581 555 502 451 502 275 c 256
 502 116 566 0 709 0 c 256
 803 0 855 51 880 110 c 1280
EndSplineSet
Guideline: "" "" 862 -64 0 0 0
Guideline: "" "" 48 78 0 0 0
Guideline: "" "" 48 68 0 0 0
Guideline: "" "" 48 50 0 0 0
PickledDataWithLists: "(dp0
Vcom.schriftgestaltung.Glyphs.lastChange
p1
V2021-03-17 07:33:32 +0000
p2
sVcom.schriftgestaltung.Glyphs.leftMetricsKey
p3
Vo
p4
sVcom.schriftgestaltung.Glyphs.rightMetricsKey
p5
V=o-5
p6
s."
EndChar

StartChar: ogonek
Encoding: 324 731 322
GlifName: ogonek
Width: 159
VWidth: 0
Flags: W
LayerCount: 2
Fore
SplineSet
149 -184 m 256
 136 -192 111 -200 87 -200 c 256
 37 -200 10 -175 10 -130 c 256
 10 -87 61 -38 108 0 c 1281
EndSplineSet
EndChar

StartChar: ograve
Encoding: 325 242 323
GlifName: ograve
Width: 592
VWidth: 0
Flags: W
LayerCount: 2
Fore
SplineSet
295 555 m 257
 131 555 90 384 90 275 c 256
 90 140 152 0 296 0 c 256
 440 0 502 140 502 275 c 256
 502 384 461 555 297 555 c 1281
227 791 m 257
 362 658 l 1281
EndSplineSet
EndChar

StartChar: ohungarumlaut
Encoding: 326 337 324
GlifName: ohungarumlaut
Width: 592
VWidth: 0
Flags: W
LayerCount: 2
Fore
SplineSet
295 555 m 257
 131 555 90 384 90 275 c 256
 90 140 152 0 296 0 c 256
 440 0 502 140 502 275 c 256
 502 384 461 555 297 555 c 1281
168 657 m 257
 295 782 l 1281
315 657 m 257
 442 782 l 1281
EndSplineSet
EndChar

StartChar: omacron
Encoding: 327 333 325
GlifName: omacron
Width: 592
VWidth: 0
Flags: W
LayerCount: 2
Fore
SplineSet
295 555 m 257
 131 555 90 384 90 275 c 256
 90 140 152 0 296 0 c 256
 440 0 502 140 502 275 c 256
 502 384 461 555 297 555 c 1281
405 703 m 257
 184 703 l 1281
EndSplineSet
EndChar

StartChar: one
Encoding: 328 49 326
GlifName: one
Width: 448
VWidth: 0
Flags: W
LayerCount: 2
Fore
SplineSet
288 0 m 257
 288 670 l 257
 284 670 l 257
 70 519 l 1281
EndSplineSet
EndChar

StartChar: one.dnom
Encoding: 329 -1 327
GlifName: one.dnom
Width: 224
VWidth: 0
Flags: W
LayerCount: 2
Fore
SplineSet
144 0 m 257
 144 335 l 257
 142 335 l 257
 35 259.5 l 1281
EndSplineSet
EndChar

StartChar: one.numr
Encoding: 330 -1 328
GlifName: one.numr
Width: 224
VWidth: 0
Flags: W
LayerCount: 2
Back
Refer: 0 -1 N 1 0 0 1 0 0 2
Fore
SplineSet
144 340 m 257
 144 675 l 257
 142 675 l 257
 35 599.5 l 1281
EndSplineSet
PickledDataWithLists: "(dp0
Vcom.schriftgestaltung.Glyphs.leftMetricsKey
p1
Vone.dnom
p2
sVcom.schriftgestaltung.Glyphs.rightMetricsKey
p3
Vone.dnom
p4
s."
EndChar

StartChar: one.osf
Encoding: 331 -1 329
GlifName: one.osf
Width: 443
VWidth: 0
Flags: W
LayerCount: 2
Fore
SplineSet
293 0 m 257
 293 565 l 257
 289 565 l 257
 95 424 l 1281
EndSplineSet
EndChar

StartChar: one.subs
Encoding: 332 -1 330
GlifName: one.subs
Width: 224
VWidth: 0
Flags: W
LayerCount: 2
Fore
SplineSet
144 -65 m 257
 144 270 l 257
 142 270 l 257
 35 195 l 1281
EndSplineSet
PickledDataWithLists: "(dp0
Vcom.schriftgestaltung.Glyphs.leftMetricsKey
p1
Vone.dnom
p2
sVcom.schriftgestaltung.Glyphs.rightMetricsKey
p3
Vone.dnom
p4
s."
EndChar

StartChar: onehalf
Encoding: 333 189 331
GlifName: onehalf
Width: 631
VWidth: 0
Flags: W
LayerCount: 2
Fore
SplineSet
114 0 m 257
 471 680 l 1281
144 340 m 257
 144 675 l 257
 142 675 l 257
 35 599.5 l 1281
588.5 0 m 257
 388.5 0 l 257
 388.5 2 l 257
 500 124.5 l 258
 538 166.5 576 206 576 259.5 c 256
 576 314 536.5 340 493 340 c 256
 449 340 412.5 314 398 271 c 1281
EndSplineSet
EndChar

StartChar: onequarter
Encoding: 334 188 332
GlifName: onequarter
Width: 598
VWidth: 0
Flags: W
LayerCount: 2
Fore
SplineSet
505.5 0 m 257
 505.5 334.933 l 257
 500.5 334.933 l 257
 345.5 81.9836 l 257
 345.5 79.984 l 257
 567.5 79.984 l 1281
114 0 m 257
 471 680 l 1281
144 340 m 257
 144 675 l 257
 142 675 l 257
 35 599.5 l 1281
EndSplineSet
EndChar

StartChar: ordfeminine
Encoding: 335 170 333
GlifName: ordfeminine
Width: 331
VWidth: 0
Flags: W
LayerCount: 2
Fore
SplineSet
258 532 m 257
 222 532 l 258
 100 532 50 500 50 432 c 256
 50 388 76 347 133 347 c 256
 185 347 225 381 258 425 c 1280
261 347 m 257
 259 369 258 405 258 430 c 258
 258 574 l 258
 258 632 235 680 165 680 c 256
 114 680 84 657 64 611 c 1281
EndSplineSet
EndChar

StartChar: ordmasculine
Encoding: 336 186 334
GlifName: ordmasculine
Width: 347
VWidth: 0
Flags: W
LayerCount: 2
Fore
SplineSet
173 680 m 257
 75 680 50 577 50 512 c 256
 50 431 87 347 174 347 c 256
 260 347 297 431 297 512 c 256
 297 577 273 680 174 680 c 1281
EndSplineSet
EndChar

StartChar: oslash
Encoding: 337 248 335
GlifName: oslash
Width: 592
VWidth: 0
Flags: W
LayerCount: 2
Fore
SplineSet
113 -20 m 257
 480 575 l 1281
295 555 m 257
 131 555 90 384 90 275 c 256
 90 140 152 0 296 0 c 256
 440 0 502 140 502 275 c 256
 502 384 461 555 297 555 c 1281
EndSplineSet
PickledDataWithLists: "(dp0
Vcom.schriftgestaltung.Glyphs.leftMetricsKey
p1
Vo
p2
sVcom.schriftgestaltung.Glyphs.rightMetricsKey
p3
g2
s."
EndChar

StartChar: otilde
Encoding: 338 245 336
GlifName: otilde
Width: 592
VWidth: 0
Flags: W
LayerCount: 2
Fore
SplineSet
295 555 m 257
 131 555 90 384 90 275 c 256
 90 140 152 0 296 0 c 256
 440 0 502 140 502 275 c 256
 502 384 461 555 297 555 c 1281
156 687 m 257
 178 724 205 735 230 735 c 256
 277 735 307 687 360 687 c 256
 385 687 411 696 434 734 c 1281
EndSplineSet
EndChar

StartChar: p
Encoding: 339 112 337
GlifName: p
Width: 613
VWidth: 0
Flags: W
LayerCount: 2
Fore
SplineSet
140 555 m 257
 140 -190 l 1281
140 137 m 257
 183 52 248 0 333 0 c 256
 469 0 523 132 523 279 c 256
 523 447 456 555 334 555 c 256
 261 555 194 517 140 421 c 1281
EndSplineSet
PickledDataWithLists: "(dp0
Vcom.schriftgestaltung.Glyphs.leftMetricsKey
p1
Vn
p2
sVcom.schriftgestaltung.Glyphs.rightMetricsKey
p3
Vo
p4
s."
EndChar

StartChar: paragraph
Encoding: 340 182 338
GlifName: paragraph
Width: 582
VWidth: 0
Flags: W
LayerCount: 2
Fore
SplineSet
442 -118 m 257
 442 670 l 257
 283 670 l 258
 137 670 60 593 60 482 c 256
 60 362 149 284 267 284 c 1281
319 -118 m 257
 319 626 l 1281
EndSplineSet
Guideline: "" "" -2 262 0 0 0
PickledDataWithLists: "(dp0
Vcom.schriftgestaltung.Glyphs.rightMetricsKey
p1
VH
p2
s."
EndChar

StartChar: parenleft
Encoding: 341 40 339
GlifName: parenleft
Width: 300
VWidth: 0
Flags: W
LayerCount: 2
Back
SplineSet
220 -116 m 256
 149 -2 90 139 90 307 c 256
 90 475 134 606 220 731 c 1281
EndSplineSet
Fore
SplineSet
230 -116 m 256
 159 -2 100 139 100 307 c 256
 100 475 144 606 230 731 c 1281
EndSplineSet
EndChar

StartChar: parenleft.dnom
Encoding: 342 -1 340
GlifName: parenleft.dnom
Width: 150
VWidth: 0
Flags: W
LayerCount: 2
Fore
SplineSet
115 -58 m 256
 79.5 -1 50 69.5 50 153.5 c 256
 50 237.5 72 303 115 365.5 c 1281
EndSplineSet
EndChar

StartChar: parenleft.numr
Encoding: 343 -1 341
GlifName: parenleft.numr
Width: 150
VWidth: 0
Flags: W
LayerCount: 2
Fore
SplineSet
115 282 m 256
 79.5 339 50 409.5 50 493.5 c 256
 50 577.5 72 643 115 705.5 c 1281
EndSplineSet
PickledDataWithLists: "(dp0
Vcom.schriftgestaltung.Glyphs.leftMetricsKey
p1
Vparenleft.dnom
p2
sVcom.schriftgestaltung.Glyphs.rightMetricsKey
p3
Vparenleft.dnom
p4
s."
EndChar

StartChar: parenleft.subs
Encoding: 344 -1 342
GlifName: parenleft.subs
Width: 150
VWidth: 0
Flags: W
LayerCount: 2
Fore
SplineSet
115 -123 m 256
 79.5 -66 50 4.5 50 88.5 c 256
 50 172.5 72 238 115 300.5 c 1281
EndSplineSet
EndChar

StartChar: parenleft.sups
Encoding: 345 -1 343
GlifName: parenleft.sups
Width: 150
VWidth: 0
Flags: W
LayerCount: 2
Fore
SplineSet
115 347 m 256
 79.5 404 50 474.5 50 558.5 c 256
 50 642.5 72 708 115 770.5 c 1281
EndSplineSet
PickledDataWithLists: "(dp0
Vcom.schriftgestaltung.Glyphs.leftMetricsKey
p1
Vparenleft.dnom
p2
sVcom.schriftgestaltung.Glyphs.rightMetricsKey
p3
Vparenleft.dnom
p4
s."
EndChar

StartChar: parenright
Encoding: 346 41 344
GlifName: parenright
Width: 300
VWidth: 0
Flags: W
LayerCount: 2
Fore
SplineSet
70 731 m 257
 156 606 200 475 200 307 c 256
 200 139 141 -2 70 -116 c 1280
EndSplineSet
PickledDataWithLists: "(dp0
Vcom.schriftgestaltung.Glyphs.leftMetricsKey
p1
V=|parenleft
p2
sVcom.schriftgestaltung.Glyphs.rightMetricsKey
p3
V=|parenleft
p4
s."
EndChar

StartChar: parenright.dnom
Encoding: 347 -1 345
GlifName: parenright.dnom
Width: 150
VWidth: 0
Flags: W
LayerCount: 2
Fore
SplineSet
35 366 m 257
 78 303 100 238 100 154 c 256
 100 70 70 -1 35 -58 c 1280
EndSplineSet
EndChar

StartChar: parenright.numr
Encoding: 348 -1 346
GlifName: parenright.numr
Width: 150
VWidth: 0
Flags: W
LayerCount: 2
Fore
SplineSet
35 706 m 257
 78 643 100 578 100 494 c 256
 100 410 70 339 35 282 c 1280
EndSplineSet
EndChar

StartChar: parenright.subs
Encoding: 349 -1 347
GlifName: parenright.subs
Width: 150
VWidth: 0
Flags: W
LayerCount: 2
Fore
SplineSet
35 301 m 257
 78 238 100 173 100 89 c 256
 100 5 70 -66 35 -123 c 1280
EndSplineSet
EndChar

StartChar: parenright.sups
Encoding: 350 -1 348
GlifName: parenright.sups
Width: 150
VWidth: 0
Flags: W
LayerCount: 2
Fore
SplineSet
35 771 m 257
 78 708 100 643 100 559 c 256
 100 475 70 404 35 347 c 1280
EndSplineSet
EndChar

StartChar: partialdiff
Encoding: 351 8706 349
GlifName: partialdiff
Width: 564
VWidth: 0
Flags: W
LayerCount: 2
Back
SplineSet
434 294 m 256
 411 371 346 437 265 437 c 256
 152 437 90 313 90 197 c 256
 90 93 134 0 239 0 c 256
 416 0 444 306 444 387 c 256
 444 496 421 745 240 745 c 256
 200 745 151 729 122 706 c 1281
EndSplineSet
Fore
SplineSet
444 294 m 256
 421 371 356 437 275 437 c 256
 162 437 100 313 100 194 c 256
 100 93 145 0 247 0 c 256
 426 0 454 290 454 395 c 256
 454 497 428 745 253 745 c 256
 209 745 161 729 132 706 c 1281
EndSplineSet
EndChar

StartChar: percent
Encoding: 352 37 350
GlifName: percent
Width: 717
VWidth: 0
Flags: W
LayerCount: 2
Fore
SplineSet
178 0 m 257
 535 680 l 1281
180 680 m 257
 106 680 70 603.5 70 508.5 c 256
 70 412.5 106 340 180.5 340 c 256
 255 340 291 412.5 291 508.5 c 256
 291 603.5 255 680 181 680 c 1281
536 340 m 257
 462 340 426 263.5 426 168.5 c 256
 426 72.5 462 0 536.5 0 c 256
 611 0 647 72.5 647 168.5 c 256
 647 263.5 611 340 537 340 c 1281
EndSplineSet
EndChar

StartChar: period
Encoding: 353 46 351
GlifName: period
Width: 300
VWidth: 0
Flags: W
LayerCount: 2
Back
SplineSet
149 72 m 257
 126 72 109 54 109 31 c 256
 109 8 127 -10 150 -10 c 256
 173 -10 190 8 190 31 c 256
 190 54 173 72 151 72 c 1281
EndSplineSet
Fore
SplineSet
150 90 m 257
 150 -20 l 1281
EndSplineSet
PickledDataWithLists: "(dp0
Vpublic.markColor
p1
V0.06,0.6,0.98,1
p2
s."
EndChar

StartChar: period.dnom
Encoding: 354 -1 352
GlifName: period.dnom
Width: 150
VWidth: 0
Flags: W
LayerCount: 2
Fore
SplineSet
75 45 m 257
 75 -10 l 1281
EndSplineSet
PickledDataWithLists: "(dp0
Vpublic.markColor
p1
V0.06,0.6,0.98,1
p2
s."
EndChar

StartChar: period.dnom.ss04
Encoding: 355 -1 353
GlifName: period.dnom.ss04
Width: 151
VWidth: 0
Flags: W
LayerCount: 2
Fore
SplineSet
75 36 m 257
 63.5 36 55 27 55 15.5 c 256
 55 4 64 -5 75.5 -5 c 256
 87 -5 95.5 4 95.5 15.5 c 256
 95.5 27 87 36 76 36 c 1281
EndSplineSet
PickledDataWithLists: "(dp0
Vpublic.markColor
p1
V0.99,0.62,0.11,1
p2
s."
EndChar

StartChar: period.dnom.ss05
Encoding: 356 -1 354
GlifName: period.dnom.ss05
Width: 137
VWidth: 0
Flags: W
LayerCount: 2
Fore
SplineSet
82 0 m 257
 82 33.5 l 257
 55 33.5 l 1281
EndSplineSet
PickledDataWithLists: "(dp0
Vpublic.markColor
p1
V0.98,0.36,0.67,1
p2
s."
EndChar

StartChar: period.numr
Encoding: 357 -1 355
GlifName: period.numr
Width: 111
VWidth: 0
Flags: W
LayerCount: 2
Fore
SplineSet
55 385 m 257
 55 330 l 1281
EndSplineSet
PickledDataWithLists: "(dp0
Vpublic.markColor
p1
V0.06,0.6,0.98,1
p2
s."
EndChar

StartChar: period.numr.ss04
Encoding: 358 -1 356
GlifName: period.numr.ss04
Width: 151
VWidth: 0
Flags: W
LayerCount: 2
Fore
SplineSet
75 376 m 257
 63.5 376 55 367 55 355.5 c 256
 55 344 64 335 75.5 335 c 256
 87 335 95.5 344 95.5 355.5 c 256
 95.5 367 87 376 76 376 c 1281
EndSplineSet
PickledDataWithLists: "(dp0
Vcom.schriftgestaltung.Glyphs.leftMetricsKey
p1
Vperiod.dnom.ss04
p2
sVcom.schriftgestaltung.Glyphs.rightMetricsKey
p3
Vperiod.dnom.ss04
p4
sVpublic.markColor
p5
V0.99,0.62,0.11,1
p6
s."
EndChar

StartChar: period.numr.ss05
Encoding: 359 -1 357
GlifName: period.numr.ss05
Width: 138
VWidth: 0
Flags: W
LayerCount: 2
Fore
SplineSet
82 340 m 257
 82 373.5 l 257
 55 373.5 l 1281
EndSplineSet
PickledDataWithLists: "(dp0
Vpublic.markColor
p1
V0.98,0.36,0.67,1
p2
s."
EndChar

StartChar: period.ss04
Encoding: 360 -1 358
GlifName: period.ss04
Width: 301
VWidth: 0
Flags: W
LayerCount: 2
Back
SplineSet
151 100 m 257
 151 -20 l 1281
EndSplineSet
Fore
SplineSet
150 72 m 257
 127 72 110 54 110 31 c 256
 110 8 128 -10 151 -10 c 256
 174 -10 191 8 191 31 c 256
 191 54 174 72 152 72 c 1281
EndSplineSet
PickledDataWithLists: "(dp0
Vpublic.markColor
p1
V0.99,0.62,0.11,1
p2
s."
EndChar

StartChar: period.ss05
Encoding: 361 -1 359
GlifName: period.ss05
Width: 274
VWidth: 0
Flags: W
LayerCount: 2
Back
SplineSet
150 72 m 257
 127 72 110 54 110 31 c 256
 110 8 128 -10 151 -10 c 256
 174 -10 191 8 191 31 c 256
 191 54 174 72 152 72 c 1281
EndSplineSet
Fore
SplineSet
164 0 m 257
 164 67 l 257
 110 67 l 1281
EndSplineSet
PickledDataWithLists: "(dp0
Vpublic.markColor
p1
V0.98,0.36,0.67,1
p2
s."
EndChar

StartChar: period.subs
Encoding: 362 -1 360
GlifName: period.subs
Width: 111
VWidth: 0
Flags: W
LayerCount: 2
Fore
SplineSet
55 -20 m 257
 55 -75 l 1281
EndSplineSet
PickledDataWithLists: "(dp0
Vpublic.markColor
p1
V0.06,0.6,0.98,1
p2
s."
EndChar

StartChar: period.subs.ss04
Encoding: 363 -1 361
GlifName: period.subs.ss04
Width: 151
VWidth: 0
Flags: W
LayerCount: 2
Fore
SplineSet
75 -29 m 257
 63.5 -29 55 -38 55 -49.5 c 256
 55 -61 64 -70 75.5 -70 c 256
 87 -70 95.5 -61 95.5 -49.5 c 256
 95.5 -38 87 -29 76 -29 c 1281
EndSplineSet
PickledDataWithLists: "(dp0
Vcom.schriftgestaltung.Glyphs.leftMetricsKey
p1
Vperiod.dnom.ss04
p2
sVcom.schriftgestaltung.Glyphs.rightMetricsKey
p3
Vperiod.dnom.ss04
p4
sVpublic.markColor
p5
V0.99,0.62,0.11,1
p6
s."
EndChar

StartChar: period.subs.ss05
Encoding: 364 -1 362
GlifName: period.subs.ss05
Width: 138
VWidth: 0
Flags: W
LayerCount: 2
Fore
SplineSet
82 -65 m 257
 82 -31.5 l 257
 55 -31.5 l 1281
EndSplineSet
PickledDataWithLists: "(dp0
Vpublic.markColor
p1
V0.98,0.36,0.67,1
p2
s."
EndChar

StartChar: period.sups
Encoding: 365 -1 363
GlifName: period.sups
Width: 111
VWidth: 0
Flags: W
LayerCount: 2
Fore
SplineSet
55 450 m 257
 55 395 l 1281
EndSplineSet
PickledDataWithLists: "(dp0
Vpublic.markColor
p1
V0.06,0.6,0.98,1
p2
s."
EndChar

StartChar: period.sups.ss04
Encoding: 366 -1 364
GlifName: period.sups.ss04
Width: 151
VWidth: 0
Flags: W
LayerCount: 2
Fore
SplineSet
75 441 m 257
 63.5 441 55 432 55 420.5 c 256
 55 409 64 400 75.5 400 c 256
 87 400 95.5 409 95.5 420.5 c 256
 95.5 432 87 441 76 441 c 1281
EndSplineSet
PickledDataWithLists: "(dp0
Vcom.schriftgestaltung.Glyphs.leftMetricsKey
p1
Vperiod.dnom.ss04
p2
sVcom.schriftgestaltung.Glyphs.rightMetricsKey
p3
Vperiod.dnom.ss04
p4
sVpublic.markColor
p5
V0.99,0.62,0.11,1
p6
s."
EndChar

StartChar: period.sups.ss05
Encoding: 367 -1 365
GlifName: period.sups.ss05
Width: 138
VWidth: 0
Flags: W
LayerCount: 2
Fore
SplineSet
82 405 m 257
 82 438.5 l 257
 55 438.5 l 1281
EndSplineSet
PickledDataWithLists: "(dp0
Vpublic.markColor
p1
V0.98,0.36,0.67,1
p2
s."
EndChar

StartChar: periodcentered
Encoding: 368 183 366
GlifName: periodcentered
Width: 300
VWidth: 0
Flags: W
LayerCount: 2
Fore
SplineSet
150 365 m 257
 150 255 l 1281
EndSplineSet
PickledDataWithLists: "(dp0
Vcom.schriftgestaltung.Glyphs.leftMetricsKey
p1
Vperiod
p2
sVcom.schriftgestaltung.Glyphs.rightMetricsKey
p3
Vperiod
p4
sVpublic.markColor
p5
V0.06,0.6,0.98,1
p6
s."
EndChar

StartChar: periodcentered.loclCAT
Encoding: 369 -1 367
GlifName: periodcentered.loclC_A_T_
Width: 45
VWidth: 0
Flags: W
LayerCount: 2
Fore
SplineSet
10 375 m 257
 10 265 l 1281
EndSplineSet
PickledDataWithLists: "(dp0
Vpublic.markColor
p1
V0.06,0.6,0.98,1
p2
s."
EndChar

StartChar: periodcentered.loclCAT.case
Encoding: 370 -1 368
GlifName: periodcentered.loclC_A_T_.case
Width: 0
VWidth: 0
Flags: W
LayerCount: 2
Fore
SplineSet
-110 390 m 257
 -110 280 l 1281
EndSplineSet
PickledDataWithLists: "(dp0
Vpublic.markColor
p1
V0.06,0.6,0.98,1
p2
s."
EndChar

StartChar: periodcentered.loclCAT.case.ss04
Encoding: 371 -1 369
GlifName: periodcentered.loclC_A_T_.case.ss04
Width: 1
VWidth: 0
Flags: W
LayerCount: 2
Fore
SplineSet
-110 372 m 257
 -133 372 -150 354 -150 331 c 256
 -150 308 -132 290 -109 290 c 256
 -86 290 -69 308 -69 331 c 256
 -69 354 -86 372 -108 372 c 1281
EndSplineSet
PickledDataWithLists: "(dp0
Vpublic.markColor
p1
V0.99,0.62,0.11,1
p2
s."
EndChar

StartChar: periodcentered.loclCAT.case.ss05
Encoding: 372 -1 370
GlifName: periodcentered.loclC_A_T_.case.ss05
Width: 0
VWidth: 0
Flags: W
LayerCount: 2
Fore
SplineSet
-96 300 m 257
 -96 367 l 257
 -150 367 l 1281
EndSplineSet
PickledDataWithLists: "(dp0
Vpublic.markColor
p1
V0.98,0.36,0.67,1
p2
s."
EndChar

StartChar: periodcentered.loclCAT.ss02
Encoding: 373 -1 371
GlifName: periodcentered.loclC_A_T_.ss02
Width: 45
VWidth: 0
Flags: W
LayerCount: 2
Fore
SplineSet
30 375 m 257
 30 265 l 1281
EndSplineSet
PickledDataWithLists: "(dp0
Vpublic.markColor
p1
V0.06,0.6,0.98,1
p2
s."
EndChar

StartChar: periodcentered.loclCAT.ss02.ss04
Encoding: 374 -1 372
GlifName: periodcentered.loclC_A_T_.ss02.ss04
Width: 71
VWidth: 0
Flags: W
LayerCount: 2
Fore
SplineSet
40 357 m 257
 17 357 0 339 0 316 c 256
 0 293 18 275 41 275 c 256
 64 275 81 293 81 316 c 256
 81 339 64 357 42 357 c 1281
EndSplineSet
PickledDataWithLists: "(dp0
Vpublic.markColor
p1
V0.99,0.62,0.11,1
p2
s."
EndChar

StartChar: periodcentered.loclCAT.ss02.ss05
Encoding: 375 -1 373
GlifName: periodcentered.loclC_A_T_.ss02.ss05
Width: 69
VWidth: 0
Flags: W
LayerCount: 2
Fore
SplineSet
54 285 m 257
 54 352 l 257
 0 352 l 1281
EndSplineSet
PickledDataWithLists: "(dp0
Vpublic.markColor
p1
V0.98,0.36,0.67,1
p2
s."
EndChar

StartChar: periodcentered.loclCAT.ss04
Encoding: 376 -1 374
GlifName: periodcentered.loclC_A_T_.ss04
Width: 66
VWidth: 0
Flags: W
LayerCount: 2
Fore
SplineSet
20 357 m 257
 -3 357 -20 339 -20 316 c 256
 -20 293 -2 275 21 275 c 256
 44 275 61 293 61 316 c 256
 61 339 44 357 22 357 c 1281
EndSplineSet
PickledDataWithLists: "(dp0
Vpublic.markColor
p1
V0.99,0.62,0.11,1
p2
s."
EndChar

StartChar: periodcentered.loclCAT.ss05
Encoding: 377 -1 375
GlifName: periodcentered.loclC_A_T_.ss05
Width: 64
VWidth: 0
Flags: W
LayerCount: 2
Fore
SplineSet
29 285 m 257
 29 352 l 257
 -25 352 l 1281
EndSplineSet
PickledDataWithLists: "(dp0
Vpublic.markColor
p1
V0.98,0.36,0.67,1
p2
s."
EndChar

StartChar: periodcentered.ss04
Encoding: 378 -1 376
GlifName: periodcentered.ss04
Width: 301
VWidth: 0
Flags: W
LayerCount: 2
Fore
SplineSet
150 347 m 257
 127 347 110 329 110 306 c 256
 110 283 128 265 151 265 c 256
 174 265 191 283 191 306 c 256
 191 329 174 347 152 347 c 1281
EndSplineSet
PickledDataWithLists: "(dp0
Vcom.schriftgestaltung.Glyphs.leftMetricsKey
p1
Vperiod.ss04
p2
sVcom.schriftgestaltung.Glyphs.rightMetricsKey
p3
Vperiod.ss04
p4
sVpublic.markColor
p5
V0.99,0.62,0.11,1
p6
s."
EndChar

StartChar: periodcentered.ss05
Encoding: 379 -1 377
GlifName: periodcentered.ss05
Width: 274
VWidth: 0
Flags: W
LayerCount: 2
Fore
SplineSet
164 275 m 257
 164 342 l 257
 110 342 l 1281
EndSplineSet
PickledDataWithLists: "(dp0
Vcom.schriftgestaltung.Glyphs.leftMetricsKey
p1
Vperiod.ss05
p2
sVcom.schriftgestaltung.Glyphs.rightMetricsKey
p3
Vperiod.ss05
p4
sVpublic.markColor
p5
V0.98,0.36,0.67,1
p6
s."
EndChar

StartChar: perthousand
Encoding: 380 8240 378
GlifName: perthousand
Width: 1017
VWidth: 0
Flags: W
LayerCount: 2
Back
Refer: 0 -1 N 1 0 0 1 9 0 2
Fore
SplineSet
178 0 m 257
 535 680 l 1281
180 680 m 257
 106 680 70 603.5 70 508.5 c 256
 70 412.5 106 340 180.5 340 c 256
 255 340 291 412.5 291 508.5 c 256
 291 603.5 255 680 181 680 c 1281
536 340 m 257
 462 340 426 263.5 426 168.5 c 256
 426 72.5 462 0 536.5 0 c 256
 611 0 647 72.5 647 168.5 c 256
 647 263.5 611 340 537 340 c 1281
836 340 m 257
 762 340 726 263.5 726 168.5 c 256
 726 72.5 762 0 836.5 0 c 256
 911 0 947 72.5 947 168.5 c 256
 947 263.5 911 340 837 340 c 1281
EndSplineSet
PickledDataWithLists: "(dp0
Vcom.schriftgestaltung.Glyphs.leftMetricsKey
p1
Vpercent
p2
sVcom.schriftgestaltung.Glyphs.rightMetricsKey
p3
Vpercent
p4
s."
EndChar

StartChar: pi
Encoding: 381 960 379
GlifName: pi
Width: 644
VWidth: 0
Flags: W
LayerCount: 2
Fore
SplineSet
181 0 m 257
 181 545 l 1281
560 4 m 256
 553 2 542 0 529 0 c 256
 472 0 443 35 443 107 c 258
 443 545 l 1281
564 545 m 257
 70 545 l 1281
EndSplineSet
EndChar

StartChar: plus
Encoding: 382 43 380
GlifName: plus
Width: 635
VWidth: 0
Flags: W
LayerCount: 2
Fore
SplineSet
316 95 m 257
 316 560 l 1281
85 332 m 257
 550 332 l 1281
EndSplineSet
PickledDataWithLists: "(dp0
Vcom.schriftgestaltung.Glyphs.leftMetricsKey
p1
Vminus
p2
sVcom.schriftgestaltung.Glyphs.rightMetricsKey
p3
Vminus
p4
s."
EndChar

StartChar: plus.dnom
Encoding: 383 -1 381
GlifName: plus.dnom
Width: 332
VWidth: 0
Flags: W
LayerCount: 2
Fore
SplineSet
158 47.5 m 257
 158 280 l 1281
42.5 166 m 257
 275 166 l 1281
EndSplineSet
PickledDataWithLists: "(dp0
Vcom.schriftgestaltung.Glyphs.leftMetricsKey
p1
Vminus.dnom
p2
sVcom.schriftgestaltung.Glyphs.rightMetricsKey
p3
Vminus.dnom
p4
s."
EndChar

StartChar: plus.numr
Encoding: 384 -1 382
GlifName: plus.numr
Width: 332
VWidth: 0
Flags: W
LayerCount: 2
Fore
SplineSet
158 387.5 m 257
 158 620 l 1281
42.5 506 m 257
 275 506 l 1281
EndSplineSet
PickledDataWithLists: "(dp0
Vcom.schriftgestaltung.Glyphs.leftMetricsKey
p1
Vminus.dnom
p2
sVcom.schriftgestaltung.Glyphs.rightMetricsKey
p3
Vminus.dnom
p4
s."
EndChar

StartChar: plus.subs
Encoding: 385 -1 383
GlifName: plus.subs
Width: 332
VWidth: 0
Flags: W
LayerCount: 2
Fore
SplineSet
158 -17.5 m 257
 158 215 l 1281
42.5 101 m 257
 275 101 l 1281
EndSplineSet
PickledDataWithLists: "(dp0
Vcom.schriftgestaltung.Glyphs.leftMetricsKey
p1
Vminus.dnom
p2
sVcom.schriftgestaltung.Glyphs.rightMetricsKey
p3
Vminus.dnom
p4
s."
EndChar

StartChar: plus.sups
Encoding: 386 -1 384
GlifName: plus.sups
Width: 332
VWidth: 0
Flags: W
LayerCount: 2
Fore
SplineSet
158 452.5 m 257
 158 685 l 1281
42.5 571 m 257
 275 571 l 1281
EndSplineSet
PickledDataWithLists: "(dp0
Vcom.schriftgestaltung.Glyphs.leftMetricsKey
p1
Vminus.dnom
p2
sVcom.schriftgestaltung.Glyphs.rightMetricsKey
p3
Vminus.dnom
p4
s."
EndChar

StartChar: plusminus
Encoding: 387 177 385
GlifName: plusminus
Width: 665
VWidth: 0
Flags: W
LayerCount: 2
Fore
SplineSet
100 0 m 257
 565 0 l 1281
331 152 m 257
 331 524 l 1281
100 341.6 m 257
 565 341.6 l 1281
EndSplineSet
EndChar

StartChar: product
Encoding: 388 8719 386
GlifName: product
Width: 728
VWidth: 0
Flags: W
LayerCount: 2
Fore
SplineSet
214 -98 m 257
 214 670 l 1281
514 -98 m 257
 514 670 l 1281
70 670 m 257
 658 670 l 1281
EndSplineSet
EndChar

StartChar: q
Encoding: 389 113 387
GlifName: q
Width: 613
VWidth: 0
Flags: W
LayerCount: 2
Fore
SplineSet
473 555 m 257
 473 -190 l 1281
473 421 m 257
 419 517 352 555 279 555 c 256
 157 555 90 447 90 279 c 256
 90 132 144 0 280 0 c 256
 365 0 430 52 473 137 c 1281
EndSplineSet
PickledDataWithLists: "(dp0
Vcom.schriftgestaltung.Glyphs.leftMetricsKey
p1
Vo
p2
sVcom.schriftgestaltung.Glyphs.rightMetricsKey
p3
V=|n
p4
s."
EndChar

StartChar: question
Encoding: 390 63 388
GlifName: question
Width: 493
VWidth: 0
Flags: W
LayerCount: 2
Fore
SplineSet
225 190 m 257
 225 242 l 258
 225 293 242 325 302 377 c 256
 342 412 383 463 383 534 c 256
 383 617 327 680 230 680 c 256
 164 680 96 650 70 575 c 1281
225 90 m 257
 225 -20 l 1281
EndSplineSet
PickledDataWithLists: "(dp0
Vpublic.markColor
p1
V0.06,0.6,0.98,1
p2
s."
EndChar

StartChar: question.ss04
Encoding: 391 -1 389
GlifName: question.ss04
Width: 493
VWidth: 0
Flags: W
LayerCount: 2
Fore
SplineSet
225 180 m 257
 225 242 l 258
 225 293 242 325 302 377 c 256
 342 412 383 463 383 534 c 256
 383 617 327 680 230 680 c 256
 164 680 96 650 70 575 c 1281
229 72 m 257
 206 72 189 54 189 31 c 256
 189 8 207 -10 230 -10 c 256
 253 -10 270 8 270 31 c 256
 270 54 253 72 231 72 c 1281
EndSplineSet
PickledDataWithLists: "(dp0
Vpublic.markColor
p1
V0.99,0.62,0.11,1
p2
s."
EndChar

StartChar: question.ss05
Encoding: 392 -1 390
GlifName: question.ss05
Width: 493
VWidth: 0
Flags: W
LayerCount: 2
Fore
SplineSet
225 180 m 257
 225 242 l 258
 225 293 242 325 302 377 c 256
 342 412 383 463 383 534 c 256
 383 617 327 680 230 680 c 256
 164 680 96 650 70 575 c 1281
253 0 m 257
 253 67 l 257
 199 67 l 1281
EndSplineSet
PickledDataWithLists: "(dp0
Vpublic.markColor
p1
V0.98,0.36,0.67,1
p2
s."
EndChar

StartChar: questiondown
Encoding: 393 191 391
GlifName: questiondown
Width: 493
VWidth: 0
Flags: W
LayerCount: 2
Fore
SplineSet
268 365 m 257
 268 313 l 258
 268 262 251 230 191 178 c 256
 151 143 110 92 110 21 c 256
 110 -62 166 -125 263 -125 c 256
 329 -125 397 -95 423 -20 c 1281
268 465 m 257
 268 575 l 1281
EndSplineSet
PickledDataWithLists: "(dp0
Vcom.schriftgestaltung.Glyphs.leftMetricsKey
p1
V=|question
p2
sVcom.schriftgestaltung.Glyphs.rightMetricsKey
p3
V=|question
p4
sVpublic.markColor
p5
V0.06,0.6,0.98,1
p6
s."
EndChar

StartChar: questiondown.ss04
Encoding: 394 -1 392
GlifName: questiondown.ss04
Width: 493
VWidth: 0
Flags: W
LayerCount: 2
Fore
SplineSet
268 375 m 257
 268 313 l 258
 268 262 251 230 191 178 c 256
 151 143 110 92 110 21 c 256
 110 -62 166 -125 263 -125 c 256
 329 -125 397 -95 423 -20 c 1281
264 483 m 257
 287 483 304 501 304 524 c 256
 304 547 286 565 263 565 c 256
 240 565 223 547 223 524 c 256
 223 501 240 483 262 483 c 1281
EndSplineSet
PickledDataWithLists: "(dp0
Vcom.schriftgestaltung.Glyphs.leftMetricsKey
p1
V=|question.ss04
p2
sVcom.schriftgestaltung.Glyphs.rightMetricsKey
p3
V=|question.ss04
p4
sVpublic.markColor
p5
V0.99,0.62,0.11,1
p6
s."
EndChar

StartChar: questiondown.ss05
Encoding: 395 -1 393
GlifName: questiondown.ss05
Width: 493
VWidth: 0
Flags: W
LayerCount: 2
Fore
SplineSet
268 375 m 257
 268 313 l 258
 268 262 251 230 191 178 c 256
 151 143 110 92 110 21 c 256
 110 -62 166 -125 263 -125 c 256
 329 -125 397 -95 423 -20 c 1281
240 555 m 257
 240 488 l 257
 294 488 l 1281
EndSplineSet
PickledDataWithLists: "(dp0
Vcom.schriftgestaltung.Glyphs.leftMetricsKey
p1
V=|question.ss05
p2
sVcom.schriftgestaltung.Glyphs.rightMetricsKey
p3
V=|question.ss05
p4
sVpublic.markColor
p5
V0.98,0.36,0.67,1
p6
s."
EndChar

StartChar: quotedbl
Encoding: 396 34 394
GlifName: quotedbl
Width: 393
VWidth: 0
Flags: W
LayerCount: 2
Fore
SplineSet
80 536 m 257
 158 691 l 257
 158 745 l 257
 104 745 l 1281
255 536 m 257
 333 691 l 257
 333 745 l 257
 279 745 l 1281
EndSplineSet
PickledDataWithLists: "(dp0
Vcom.schriftgestaltung.Glyphs.leftMetricsKey
p1
Vquoteright
p2
sVcom.schriftgestaltung.Glyphs.rightMetricsKey
p3
Vquoteright
p4
s."
EndChar

StartChar: quotedblbase
Encoding: 397 8222 395
GlifName: quotedblbase
Width: 433
VWidth: 0
Flags: W
LayerCount: 2
Fore
SplineSet
90 -142 m 257
 168 13 l 257
 168 67 l 257
 114 67 l 1281
265 -142 m 257
 343 13 l 257
 343 67 l 257
 289 67 l 1281
EndSplineSet
PickledDataWithLists: "(dp0
Vcom.schriftgestaltung.Glyphs.leftMetricsKey
p1
Vcomma
p2
sVcom.schriftgestaltung.Glyphs.rightMetricsKey
p3
Vcomma
p4
s."
EndChar

StartChar: quotedblleft
Encoding: 398 8220 396
GlifName: quotedblleft
Width: 393
VWidth: 0
Flags: W
LayerCount: 2
Fore
SplineSet
313 764 m 257
 235 609 l 257
 235 555 l 257
 289 555 l 1281
138 764 m 257
 60 609 l 257
 60 555 l 257
 114 555 l 1281
EndSplineSet
PickledDataWithLists: "(dp0
Vcom.schriftgestaltung.Glyphs.leftMetricsKey
p1
V=|quoteright
p2
sVcom.schriftgestaltung.Glyphs.rightMetricsKey
p3
V=|quoteright
p4
s."
EndChar

StartChar: quotedblright
Encoding: 399 8221 397
GlifName: quotedblright
Width: 393
VWidth: 0
Flags: W
LayerCount: 2
Fore
SplineSet
80 536 m 257
 158 691 l 257
 158 745 l 257
 104 745 l 1281
255 536 m 257
 333 691 l 257
 333 745 l 257
 279 745 l 1281
EndSplineSet
PickledDataWithLists: "(dp0
Vcom.schriftgestaltung.Glyphs.leftMetricsKey
p1
Vquoteright
p2
sVcom.schriftgestaltung.Glyphs.rightMetricsKey
p3
Vquoteright
p4
s."
EndChar

StartChar: quoteleft
Encoding: 400 8216 398
GlifName: quoteleft
Width: 218
VWidth: 0
Flags: W
LayerCount: 2
Fore
SplineSet
138 764 m 257
 60 609 l 257
 60 555 l 257
 114 555 l 1281
EndSplineSet
PickledDataWithLists: "(dp0
Vcom.schriftgestaltung.Glyphs.leftMetricsKey
p1
V=|quoteright
p2
sVcom.schriftgestaltung.Glyphs.rightMetricsKey
p3
V=|quoteright
p4
s."
EndChar

StartChar: quoteright
Encoding: 401 8217 399
GlifName: quoteright
Width: 218
VWidth: 0
Flags: W
LayerCount: 2
Fore
SplineSet
80 536 m 257
 158 691 l 257
 158 745 l 257
 104 745 l 1281
EndSplineSet
EndChar

StartChar: quotesinglbase
Encoding: 402 8218 400
GlifName: quotesinglbase
Width: 258
VWidth: 0
Flags: W
LayerCount: 2
Back
Refer: 0 -1 N 1 0 0 1 0 0 2
Fore
SplineSet
90 -142 m 257
 168 13 l 257
 168 67 l 257
 114 67 l 1281
EndSplineSet
PickledDataWithLists: "(dp0
Vcom.schriftgestaltung.Glyphs.leftMetricsKey
p1
Vcomma
p2
sVcom.schriftgestaltung.Glyphs.rightMetricsKey
p3
Vcomma
p4
s."
EndChar

StartChar: quotesingle
Encoding: 403 39 401
GlifName: quotesingle
Width: 218
VWidth: 0
Flags: W
LayerCount: 2
Fore
SplineSet
80 536 m 257
 158 691 l 257
 158 745 l 257
 104 745 l 1281
EndSplineSet
PickledDataWithLists: "(dp0
Vcom.schriftgestaltung.Glyphs.leftMetricsKey
p1
Vquoteright
p2
sVcom.schriftgestaltung.Glyphs.rightMetricsKey
p3
Vquoteright
p4
s."
EndChar

StartChar: r
Encoding: 404 114 402
GlifName: r
Width: 394
VWidth: 0
Flags: W
LayerCount: 2
Back
SplineSet
140 415 m 257
 211 497 277 555 338 555 c 1280
140 555 m 257
 140 0 l 1281
EndSplineSet
Refer: 0 -1 N 1 0 0 1 140 0 2
PickledDataWithLists: "(dp0
Vcom.schriftgestaltung.Glyphs.ComponentInfo
p1
(lp2
(dp3
Valignment
p4
I-1
sVindex
p5
I0
sVname
p6
V_module_n
p7
sas."
Fore
SplineSet
140 555 m 257
 140 0 l 1281
140 415 m 257
 211 497 277 555 338 555 c 1280
EndSplineSet
PickledDataWithLists: "(dp0
Vcom.schriftgestaltung.Glyphs.leftMetricsKey
p1
Vn
p2
s."
EndChar

StartChar: racute
Encoding: 405 341 403
GlifName: racute
Width: 394
VWidth: 0
Flags: W
LayerCount: 2
Fore
SplineSet
140 555 m 257
 140 0 l 1281
140 415 m 257
 211 497 277 555 338 555 c 1280
166 657 m 257
 301 790 l 1281
EndSplineSet
EndChar

StartChar: radical
Encoding: 406 8730 404
GlifName: radical
Width: 624
VWidth: 0
Flags: W
LayerCount: 2
Fore
SplineSet
60 378 m 257
 223 -80 l 257
 227 -80 l 257
 451 745 l 257
 634 745 l 1281
EndSplineSet
EndChar

StartChar: rcaron
Encoding: 407 345 405
GlifName: rcaron
Width: 394
VWidth: 0
Flags: W
LayerCount: 2
Fore
SplineSet
140 555 m 257
 140 0 l 1281
140 415 m 257
 211 497 277 555 338 555 c 1280
123 776 m 257
 232 650 l 257
 236 650 l 257
 345 776 l 1281
EndSplineSet
EndChar

StartChar: registered
Encoding: 408 174 406
GlifName: registered
Width: 862
VWidth: 0
Flags: W
LayerCount: 2
Fore
SplineSet
432 680 m 257
 243 680 95 528 95 340 c 256
 95 153 243 0 431 0 c 256
 617 0 767 153 767 340 c 256
 767 528 617 680 430 680 c 1281
333.8 146 m 257
 333.8 527.9 l 1281
568.78 146 m 257
 459.66 342.08 l 1281
333.8 342.08 m 257
 448.5 342.08 l 258
 509.26 342.08 560.72 376.28 560.72 434.99 c 256
 560.72 484.58 524.14 527.9 441.06 527.9 c 258
 333.8 527.9 l 1281
EndSplineSet
PickledDataWithLists: "(dp0
Vcom.schriftgestaltung.Glyphs.leftMetricsKey
p1
VO
p2
sVcom.schriftgestaltung.Glyphs.rightMetricsKey
p3
g2
s."
EndChar

StartChar: ring
Encoding: 409 730 407
GlifName: ring
Width: 167
VWidth: 0
Flags: W
LayerCount: 2
Fore
SplineSet
83 791 m 257
 42 791 10 758 10 718 c 256
 10 678 43 645 83 645 c 256
 124 645 157 678 157 718 c 256
 157 758 124 791 83 791 c 1281
EndSplineSet
EndChar

StartChar: s
Encoding: 410 115 408
GlifName: s
Width: 521
VWidth: 0
Flags: W
LayerCount: 2
Back
SplineSet
90 118 m 256
 114 44 185 0 270 0 c 256
 351 0 436 41 436 135 c 256
 436 320 109 256 109 430 c 256
 109 518 193 555 265 555 c 256
 335 555 390 520 415 462 c 1281
EndSplineSet
Fore
SplineSet
90 118 m 256
 114 44 185 0 270 0 c 256
 351 0 436 41 436 135 c 256
 436 320 109 256 109 430 c 256
 109 518 193 555 265 555 c 256
 335 555 390 520 415 462 c 1281
EndSplineSet
PickledDataWithLists: "(dp0
Vcom.schriftgestaltung.Glyphs.leftMetricsKey
p1
Vo
p2
sVcom.schriftgestaltung.Glyphs.rightMetricsKey
p3
V=o-5
p4
s."
EndChar

StartChar: sacute
Encoding: 411 347 409
GlifName: sacute
Width: 521
VWidth: 0
Flags: W
LayerCount: 2
Fore
SplineSet
90 118 m 256
 114 44 185 0 270 0 c 256
 351 0 436 41 436 135 c 256
 436 320 109 256 109 430 c 256
 109 518 193 555 265 555 c 256
 335 555 390 520 415 462 c 1281
199 657 m 257
 334 790 l 1281
EndSplineSet
EndChar

StartChar: scaron
Encoding: 412 353 410
GlifName: scaron
Width: 521
VWidth: 0
Flags: W
LayerCount: 2
Fore
SplineSet
90 118 m 256
 114 44 185 0 270 0 c 256
 351 0 436 41 436 135 c 256
 436 320 109 256 109 430 c 256
 109 518 193 555 265 555 c 256
 335 555 390 520 415 462 c 1281
156 776 m 257
 265 650 l 257
 269 650 l 257
 378 776 l 1281
EndSplineSet
EndChar

StartChar: scedilla
Encoding: 413 351 411
GlifName: scedilla
Width: 521
VWidth: 0
Flags: W
LayerCount: 2
Fore
SplineSet
90 118 m 256
 114 44 185 0 270 0 c 256
 351 0 436 41 436 135 c 256
 436 320 109 256 109 430 c 256
 109 518 193 555 265 555 c 256
 335 555 390 520 415 462 c 1281
185 -177 m 256
 198 -184 217 -191 246 -191 c 256
 298 -191 330 -168 330 -132 c 256
 330 -95 299 -78 245 -78 c 258
 219 -78 l 257
 265 0 l 1281
EndSplineSet
EndChar

StartChar: scircumflex
Encoding: 414 349 412
GlifName: scircumflex
Width: 521
VWidth: 0
Flags: W
LayerCount: 2
Fore
SplineSet
90 118 m 256
 114 44 185 0 270 0 c 256
 351 0 436 41 436 135 c 256
 436 320 109 256 109 430 c 256
 109 518 193 555 265 555 c 256
 335 555 390 520 415 462 c 1281
378 648 m 257
 269 774 l 257
 265 774 l 257
 156 648 l 1281
EndSplineSet
EndChar

StartChar: second
Encoding: 415 8243 413
GlifName: second
Width: 291
VWidth: 0
Flags: W
LayerCount: 2
Fore
SplineSet
71 540 m 257
 71 745 l 257
 70 745 l 1281
221 540 m 257
 221 745 l 257
 220 745 l 1281
EndSplineSet
PickledDataWithLists: "(dp0
Vcom.schriftgestaltung.Glyphs.leftMetricsKey
p1
Vminute
p2
sVcom.schriftgestaltung.Glyphs.rightMetricsKey
p3
Vminute
p4
s."
EndChar

StartChar: section
Encoding: 416 167 414
GlifName: section
Width: 552
VWidth: 0
Flags: W
LayerCount: 2
Fore
SplineSet
110 -4 m 256
 130 -65 195 -125 284 -125 c 256
 372 -125 439 -66 439 10 c 256
 439 175 125 148 125 294 c 256
 125 358 187 406 270 423 c 1281
323 143 m 256
 374 165 442 203 442 271 c 256
 442 417 135 409 135 558 c 256
 135 618 185 680 283 680 c 256
 350 680 399 651 428 595 c 1281
EndSplineSet
EndChar

StartChar: semicolon
Encoding: 417 59 415
GlifName: semicolon
Width: 278
VWidth: 0
Flags: W
LayerCount: 2
Fore
SplineSet
174 545 m 257
 174 435 l 1281
110 -142 m 257
 188 13 l 257
 188 67 l 257
 134 67 l 1281
EndSplineSet
PickledDataWithLists: "(dp0
Vcom.schriftgestaltung.Glyphs.rightMetricsKey
p1
Vcomma
p2
sVpublic.markColor
p3
V0.06,0.6,0.98,1
p4
s."
EndChar

StartChar: semicolon.ss04
Encoding: 418 -1 416
GlifName: semicolon.ss04
Width: 294
VWidth: 0
Flags: W
LayerCount: 2
Fore
SplineSet
163 535 m 257
 140 535 123 517 123 494 c 256
 123 471 141 453 164 453 c 256
 187 453 204 471 204 494 c 256
 204 517 187 535 165 535 c 1281
110 -142 m 257
 188 13 l 257
 188 67 l 257
 134 67 l 1281
EndSplineSet
PickledDataWithLists: "(dp0
Vcom.schriftgestaltung.Glyphs.rightMetricsKey
p1
Vcomma
p2
sVpublic.markColor
p3
V0.99,0.62,0.11,1
p4
s."
EndChar

StartChar: semicolon.ss05
Encoding: 419 -1 417
GlifName: semicolon.ss05
Width: 278
VWidth: 0
Flags: W
LayerCount: 2
Fore
SplineSet
188 463 m 257
 188 530 l 257
 134 530 l 1281
110 -142 m 257
 188 13 l 257
 188 67 l 257
 134 67 l 1281
EndSplineSet
PickledDataWithLists: "(dp0
Vcom.schriftgestaltung.Glyphs.rightMetricsKey
p1
Vcomma
p2
sVpublic.markColor
p3
V0.98,0.36,0.67,1
p4
s."
EndChar

StartChar: seven
Encoding: 420 55 418
GlifName: seven
Width: 495
VWidth: 0
Flags: W
LayerCount: 2
Fore
SplineSet
126 0 m 257
 445 666 l 257
 445 670 l 257
 40 670 l 1281
EndSplineSet
EndChar

StartChar: seven.dnom
Encoding: 421 -1 419
GlifName: seven.dnom
Width: 248
VWidth: 0
Flags: W
LayerCount: 2
Fore
SplineSet
63 0 m 257
 222.5 333 l 257
 222.5 335 l 257
 20 335 l 1281
EndSplineSet
EndChar

StartChar: seven.numr
Encoding: 422 -1 420
GlifName: seven.numr
Width: 248
VWidth: 0
Flags: W
LayerCount: 2
Fore
SplineSet
63 340 m 257
 222.5 673 l 257
 222.5 675 l 257
 20 675 l 1281
EndSplineSet
PickledDataWithLists: "(dp0
Vcom.schriftgestaltung.Glyphs.leftMetricsKey
p1
Vseven.dnom
p2
sVcom.schriftgestaltung.Glyphs.rightMetricsKey
p3
Vseven.dnom
p4
s."
EndChar

StartChar: seven.osf
Encoding: 423 -1 421
GlifName: seven.osf
Width: 495
VWidth: 0
Flags: W
LayerCount: 2
Fore
SplineSet
112 -117 m 257
 435 561 l 257
 435 565 l 257
 40 565 l 1281
EndSplineSet
Guideline: "" "" 48 701 0 0 0
EndChar

StartChar: seven.subs
Encoding: 424 -1 422
GlifName: seven.subs
Width: 248
VWidth: 0
Flags: W
LayerCount: 2
Fore
SplineSet
63 -65 m 257
 222.5 268 l 257
 222.5 270 l 257
 20 270 l 1281
EndSplineSet
PickledDataWithLists: "(dp0
Vcom.schriftgestaltung.Glyphs.leftMetricsKey
p1
Vseven.dnom
p2
sVcom.schriftgestaltung.Glyphs.rightMetricsKey
p3
Vseven.dnom
p4
s."
EndChar

StartChar: six
Encoding: 425 54 423
GlifName: six
Width: 567
VWidth: 0
Flags: W
LayerCount: 2
Fore
SplineSet
360 680 m 257
 201 468 l 258
 119 359 90 284 90 205 c 256
 90 105 144 0 292 0 c 256
 420 0 492 84 492 198 c 256
 492 324 401 401 298 401 c 256
 229 401 151 368 105 297 c 1280
EndSplineSet
PickledDataWithLists: "(dp0
Vcom.schriftgestaltung.Glyphs.leftMetricsKey
p1
Vzero
p2
sVcom.schriftgestaltung.Glyphs.rightMetricsKey
p3
V=zero-15
p4
s."
EndChar

StartChar: six.dnom
Encoding: 426 -1 424
GlifName: six.dnom
Width: 276
VWidth: 0
Flags: W
LayerCount: 2
Fore
SplineSet
180 340 m 257
 100.5 234 l 258
 59.5 179.5 45 142 45 102.5 c 256
 45 52.5 72 0 146 0 c 256
 210 0 246 42 246 99 c 256
 246 162 200.5 200.5 149 200.5 c 256
 114.5 200.5 75.5 184 52.5 148.5 c 1280
EndSplineSet
PickledDataWithLists: "(dp0
Vcom.schriftgestaltung.Glyphs.leftMetricsKey
p1
Vzero.dnom
p2
sVcom.schriftgestaltung.Glyphs.rightMetricsKey
p3
V=zero.dnom-15
p4
s."
EndChar

StartChar: six.numr
Encoding: 427 -1 425
GlifName: six.numr
Width: 276
VWidth: 0
Flags: W
LayerCount: 2
Fore
SplineSet
180 680 m 257
 100.5 574 l 258
 59.5 519.5 45 482 45 442.5 c 256
 45 392.5 72 340 146 340 c 256
 210 340 246 382 246 439 c 256
 246 502 200.5 540.5 149 540.5 c 256
 114.5 540.5 75.5 524 52.5 488.5 c 1280
EndSplineSet
PickledDataWithLists: "(dp0
Vcom.schriftgestaltung.Glyphs.leftMetricsKey
p1
Vzero.dnom
p2
sVcom.schriftgestaltung.Glyphs.rightMetricsKey
p3
V=zero.dnom-15
p4
s."
EndChar

StartChar: six.osf
Encoding: 428 -1 426
GlifName: six.osf
Width: 572
VWidth: 0
Flags: W
LayerCount: 2
Back
SplineSet
374 706 m 257
 258 591 80 368 80 205 c 256
 80 123 131 0 282 0 c 256
 410 0 482 92 482 198 c 256
 482 311 401 401 287 401 c 256
 218 401 141 368 95 297 c 1280
EndSplineSet
Fore
SplineSet
384 706 m 257
 268 591 90 368 90 205 c 256
 90 123 141 0 292 0 c 256
 420 0 492 92 492 198 c 256
 492 311 411 401 297 401 c 256
 228 401 151 368 105 297 c 1280
EndSplineSet
PickledDataWithLists: "(dp0
Vcom.schriftgestaltung.Glyphs.leftMetricsKey
p1
Vzero.osf
p2
sVcom.schriftgestaltung.Glyphs.rightMetricsKey
p3
V=zero.osf-10
p4
s."
EndChar

StartChar: six.subs
Encoding: 429 -1 427
GlifName: six.subs
Width: 276
VWidth: 0
Flags: W
LayerCount: 2
Fore
SplineSet
180 275 m 257
 100.5 169 l 258
 59.5 114.5 45 77 45 37.5 c 256
 45 -12.5 72 -65 146 -65 c 256
 210 -65 246 -23 246 34 c 256
 246 97 200.5 135.5 149 135.5 c 256
 114.5 135.5 75.5 119 52.5 83.5 c 1280
EndSplineSet
PickledDataWithLists: "(dp0
Vcom.schriftgestaltung.Glyphs.leftMetricsKey
p1
Vzero.dnom
p2
sVcom.schriftgestaltung.Glyphs.rightMetricsKey
p3
V=zero.dnom-15
p4
s."
EndChar

StartChar: slash
Encoding: 430 47 428
GlifName: slash
Width: 407
VWidth: 0
Flags: W
LayerCount: 2
Back
SplineSet
55 0 m 257
 352 680 l 1281
EndSplineSet
Fore
SplineSet
50 -10 m 257
 357 690 l 1281
EndSplineSet
EndChar

StartChar: sterling
Encoding: 432 163 430
GlifName: sterling
Width: 562
VWidth: 0
Flags: W
LayerCount: 2
Back
SplineSet
202 0 m 257
 202 511 l 258
 202 613 256 680 359 680 c 256
 423 680 464 654 487 606 c 1280
100 0 m 257
 492 0 l 1281
110 350 m 257
 381 350 l 1281
EndSplineSet
Fore
SplineSet
100 0 m 257
 492 0 l 1281
110 350 m 257
 381 350 l 1281
202 0 m 257
 202 511 l 258
 202 613 256 680 359 680 c 256
 423 680 464 654 487 606 c 1280
EndSplineSet
EndChar

StartChar: summation
Encoding: 433 8721 431
GlifName: summation
Width: 531
VWidth: 0
Flags: W
LayerCount: 2
Fore
SplineSet
491 -93 m 257
 60 -93 l 257
 60 -89 l 257
 331 290 l 257
 78 666 l 257
 78 670 l 257
 474 670 l 1281
EndSplineSet
EndChar

StartChar: t
Encoding: 434 116 432
GlifName: t
Width: 387
VWidth: 0
Flags: W
LayerCount: 2
Back
SplineSet
327 27 m 256
 309 11 281 0 247 0 c 256
 185 0 150 35 150 117 c 258
 150 660 l 1281
50 501 m 257
 313 501 l 1281
EndSplineSet
Fore
SplineSet
327 27 m 256
 309 11 281 0 247 0 c 256
 185 0 150 35 150 117 c 258
 150 660 l 1281
50 501 m 257
 313 501 l 1281
EndSplineSet
EndChar

StartChar: tbar
Encoding: 435 359 433
GlifName: tbar
Width: 387
VWidth: 0
Flags: W
LayerCount: 2
Fore
SplineSet
50 311 m 257
 313 311 l 1281
327 27 m 256
 309 11 281 0 247 0 c 256
 185 0 150 35 150 117 c 258
 150 660 l 1281
50 501 m 257
 313 501 l 1281
EndSplineSet
EndChar

StartChar: tcaron
Encoding: 436 357 434
GlifName: tcaron
Width: 387
VWidth: 0
Flags: W
LayerCount: 2
Fore
SplineSet
327 27 m 256
 309 11 281 0 247 0 c 256
 185 0 150 35 150 117 c 258
 150 660 l 1281
50 501 m 257
 313 501 l 1281
233 578 m 257
 290 661 l 257
 290 745 l 1281
EndSplineSet
EndChar

StartChar: thorn
Encoding: 437 254 435
GlifName: thorn
Width: 613
VWidth: 0
Flags: W
LayerCount: 2
Fore
SplineSet
140 -190 m 257
 140 745 l 1281
140 137 m 257
 183 52 248 0 333 0 c 256
 469 0 523 132 523 279 c 256
 523 447 456 555 334 555 c 256
 261 555 194 517 140 421 c 1281
EndSplineSet
PickledDataWithLists: "(dp0
Vcom.schriftgestaltung.Glyphs.leftMetricsKey
p1
Vn
p2
sVcom.schriftgestaltung.Glyphs.rightMetricsKey
p3
Vo
p4
s."
EndChar

StartChar: three
Encoding: 438 51 436
GlifName: three
Width: 566
VWidth: 0
Flags: W
LayerCount: 2
Back
SplineSet
75 123 m 257
 94 49 166 -1 263 -1 c 256
 381 -1 456 73 456 175 c 256
 456 264 400 359 249 359 c 257
 218 359 l 1281
249 359 m 257
 383 359 446 436 446 526 c 256
 446 608 392 680 273 680 c 256
 177 680 119 632 87 579 c 1281
EndSplineSet
Fore
SplineSet
75 123 m 257
 94 49 166 -1 263 -1 c 256
 381 -1 456 73 456 175 c 256
 456 264 400 359 249 359 c 257
 218 359 l 1281
249 359 m 257
 383 359 446 436 446 526 c 256
 446 608 392 680 273 680 c 256
 177 680 119 632 90 579 c 1281
EndSplineSet
EndChar

StartChar: three.dnom
Encoding: 439 -1 437
GlifName: three.dnom
Width: 283
VWidth: 0
Flags: W
LayerCount: 2
Back
Refer: 0 -1 N 1 0 0 1 -397 0 2
Fore
SplineSet
37.5 61.5 m 257
 47 24.5 83 -0.5 131.5 -0.5 c 256
 190.5 -0.5 228 36.5 228 87.5 c 256
 228 132 200 179.5 124.5 179.5 c 257
 109 179.5 l 1281
124.5 179.5 m 257
 191.5 179.5 223 218 223 263 c 256
 223 304 196 340 136.5 340 c 256
 88.5 340 59.5 316 45 289.5 c 1281
EndSplineSet
EndChar

StartChar: three.numr
Encoding: 440 -1 438
GlifName: three.numr
Width: 283
VWidth: 0
Flags: W
LayerCount: 2
Back
Refer: 0 -1 N 1 0 0 1 0 0 2
Fore
SplineSet
37.5 401.5 m 257
 47 364.5 83 339.5 131.5 339.5 c 256
 190.5 339.5 228 376.5 228 427.5 c 256
 228 472 200 519.5 124.5 519.5 c 257
 109 519.5 l 1281
124.5 519.5 m 257
 191.5 519.5 223 558 223 603 c 256
 223 644 196 680 136.5 680 c 256
 88.5 680 59.5 656 45 629.5 c 1281
EndSplineSet
PickledDataWithLists: "(dp0
Vcom.schriftgestaltung.Glyphs.leftMetricsKey
p1
Vthree.dnom
p2
sVcom.schriftgestaltung.Glyphs.rightMetricsKey
p3
Vthree.dnom
p4
s."
EndChar

StartChar: three.osf
Encoding: 441 -1 439
GlifName: three.osf
Width: 551
VWidth: 0
Flags: W
LayerCount: 2
Back
SplineSet
65 7 m 257
 82 -63 154 -117 250 -117 c 256
 364 -117 446 -41 446 67 c 256
 446 172 368 250 239 250 c 257
 208 250 l 1281
239 250 m 257
 359 250 436 312 436 412 c 256
 436 492 387 575 261 575 c 256
 165 575 109 526 77 473 c 1281
EndSplineSet
Fore
SplineSet
65 7 m 257
 82 -63 154 -117 250 -117 c 256
 364 -117 446 -41 446 67 c 256
 446 172 368 250 239 250 c 257
 208 250 l 1281
239 250 m 257
 359 250 436 312 436 412 c 256
 436 492 387 575 261 575 c 256
 165 575 109 526 80 473 c 1281
EndSplineSet
Guideline: "" "" 289 -64 0 0 0
Guideline: "" "" 19 -165 0 0 0
EndChar

StartChar: three.subs
Encoding: 442 -1 440
GlifName: three.subs
Width: 283
VWidth: 0
Flags: W
LayerCount: 2
Fore
SplineSet
37.5 -3.5 m 257
 47 -40.5 83 -65.5 131.5 -65.5 c 256
 190.5 -65.5 228 -28.5 228 22.5 c 256
 228 67 200 114.5 124.5 114.5 c 257
 109 114.5 l 1281
124.5 114.5 m 257
 191.5 114.5 223 153 223 198 c 256
 223 239 196 275 136.5 275 c 256
 88.5 275 59.5 251 45 224.5 c 1281
EndSplineSet
PickledDataWithLists: "(dp0
Vcom.schriftgestaltung.Glyphs.leftMetricsKey
p1
Vthree.dnom
p2
sVcom.schriftgestaltung.Glyphs.rightMetricsKey
p3
Vthree.dnom
p4
s."
EndChar

StartChar: threequarters
Encoding: 443 190 441
GlifName: threequarters
Width: 622
VWidth: 0
Flags: W
LayerCount: 2
Fore
SplineSet
529.5 0 m 257
 529.5 334.933 l 257
 524.5 334.933 l 257
 369.5 81.9836 l 257
 369.5 79.984 l 257
 591.5 79.984 l 1281
143 0 m 257
 500 680 l 1281
37.5 401.5 m 257
 47 364.5 83 339.5 131.5 339.5 c 256
 190.5 339.5 228 376.5 228 427.5 c 256
 228 472 200 519.5 124.5 519.5 c 257
 109 519.5 l 1281
124.5 519.5 m 257
 191.5 519.5 223 558 223 603 c 256
 223 644 196 680 136.5 680 c 256
 88.5 680 59.5 656 45 629.5 c 1281
EndSplineSet
EndChar

StartChar: tilde
Encoding: 444 732 442
GlifName: tilde
Width: 298
VWidth: 0
Flags: W
LayerCount: 2
Back
SplineSet
244 773 m 257
 240 751 225 724 198 724 c 256
 184 724 160 734 135 746 c 256
 110 758 83 770 61 770 c 256
 15 770 -22 737 -31 671 c 257
 8 671 l 257
 13 713 37 720 51 720 c 256
 76 720 97 711 120 699 c 256
 143 688 168 676 198 676 c 256
 260 676 276 745 283 773 c 257
 244 773 l 257
EndSplineSet
Fore
SplineSet
10 667 m 257
 32 704 59 715 84 715 c 256
 131 715 161 667 214 667 c 256
 239 667 265 676 288 714 c 1281
EndSplineSet
EndChar

StartChar: tildecomb
Encoding: 445 771 443
GlifName: tildecomb
Width: 298
VWidth: 0
Flags: W
LayerCount: 2
Fore
SplineSet
10 687 m 257
 32 724 59 735 84 735 c 256
 131 735 161 687 214 687 c 256
 239 687 265 696 288 734 c 1281
EndSplineSet
EndChar

StartChar: trademark
Encoding: 446 8482 444
GlifName: trademark
Width: 873
VWidth: 0
Flags: W
LayerCount: 2
Back
SplineSet
773 317 m 257
 773 680 l 257
 770 680 l 257
 597 333 l 257
 594 333 l 257
 421 680 l 257
 418 680 l 257
 418 317 l 1281
177 317 m 257
 177 672 l 1281
40 672 m 257
 314 672 l 1281
EndSplineSet
Fore
SplineSet
177 317 m 257
 177 672 l 1281
40 672 m 257
 314 672 l 1281
773 317 m 257
 773 680 l 257
 770 680 l 257
 597 333 l 257
 594 333 l 257
 421 680 l 257
 418 680 l 257
 418 317 l 1281
EndSplineSet
EndChar

StartChar: two
Encoding: 447 50 445
GlifName: two
Width: 550
VWidth: 0
Flags: W
LayerCount: 2
Back
SplineSet
465 0 m 257
 65 0 l 257
 65 4 l 257
 288 249 l 258
 364 333 440 412 440 519 c 256
 440 628 361 680 274 680 c 256
 186 680 113 628 84 542 c 1281
EndSplineSet
Fore
SplineSet
465 0 m 257
 65 0 l 257
 65 4 l 257
 288 249 l 258
 364 333 440 412 440 519 c 256
 440 628 361 680 274 680 c 256
 186 680 113 628 84 542 c 1281
EndSplineSet
EndChar

StartChar: two.dnom
Encoding: 448 -1 446
GlifName: two.dnom
Width: 275
VWidth: 0
Flags: W
LayerCount: 2
Back
Refer: 0 -1 N 1 0 0 1 -356 0 2
Fore
SplineSet
232.5 0 m 257
 32.5 0 l 257
 32.5 2 l 257
 144 124.5 l 258
 182 166.5 220 206 220 259.5 c 256
 220 314 180.5 340 137 340 c 256
 93 340 56.5 314 42 271 c 1281
EndSplineSet
EndChar

StartChar: two.numr
Encoding: 449 -1 447
GlifName: two.numr
Width: 275
VWidth: 0
Flags: W
LayerCount: 2
Back
Refer: 0 -1 N 1 0 0 1 0 0 2
Fore
SplineSet
232.5 340 m 257
 32.5 340 l 257
 32.5 342 l 257
 144 464.5 l 258
 182 506.5 220 546 220 599.5 c 256
 220 654 180.5 680 137 680 c 256
 93 680 56.5 654 42 611 c 1281
EndSplineSet
PickledDataWithLists: "(dp0
Vcom.schriftgestaltung.Glyphs.leftMetricsKey
p1
Vtwo.dnom
p2
sVcom.schriftgestaltung.Glyphs.rightMetricsKey
p3
Vtwo.dnom
p4
s."
EndChar

StartChar: two.osf
Encoding: 450 -1 448
GlifName: two.osf
Width: 570
VWidth: 0
Flags: W
LayerCount: 2
Back
SplineSet
480 0 m 257
 85 0 l 257
 85 4 l 257
 216 121 l 258
 297 193 440 312 440 431 c 256
 440 510 383 575 282 575 c 256
 186 575 124 516 101 443 c 1281
EndSplineSet
Fore
SplineSet
480 0 m 257
 85 0 l 257
 85 4 l 257
 216 121 l 258
 297 193 440 312 440 431 c 256
 440 510 383 575 282 575 c 256
 186 575 124 516 101 443 c 1281
EndSplineSet
EndChar

StartChar: two.subs
Encoding: 451 -1 449
GlifName: two.subs
Width: 275
VWidth: 0
Flags: W
LayerCount: 2
Fore
SplineSet
232.5 -65 m 257
 32.5 -65 l 257
 32.5 -63 l 257
 144 59.5 l 258
 182 101.5 220 141 220 194.5 c 256
 220 249 180.5 275 137 275 c 256
 93 275 56.5 249 42 206 c 1281
EndSplineSet
PickledDataWithLists: "(dp0
Vcom.schriftgestaltung.Glyphs.leftMetricsKey
p1
Vtwo.dnom
p2
sVcom.schriftgestaltung.Glyphs.rightMetricsKey
p3
Vtwo.dnom
p4
s."
EndChar

StartChar: u
Encoding: 452 117 450
GlifName: u
Width: 603
VWidth: 0
Flags: W
LayerCount: 2
Back
Refer: 0 -1 N -1 0 0 -1 463 555 2
PickledDataWithLists: "(dp0
Vcom.schriftgestaltung.Glyphs.ComponentInfo
p1
(lp2
(dp3
Valignment
p4
I-1
sVindex
p5
I0
sVname
p6
V_module_n
p7
sas."
Fore
SplineSet
463 140 m 257
 423 72 351 0 262 0 c 256
 185 0 135 53 135 150 c 258
 135 555 l 1281
463 555 m 257
 463 0 l 1281
EndSplineSet
PickledDataWithLists: "(dp0
Vcom.schriftgestaltung.Glyphs.leftMetricsKey
p1
V=|n
p2
sVcom.schriftgestaltung.Glyphs.rightMetricsKey
p3
V=|n
p4
s."
EndChar

StartChar: uacute
Encoding: 453 250 451
GlifName: uacute
Width: 603
VWidth: 0
Flags: W
LayerCount: 2
Fore
SplineSet
463 140 m 257
 423 72 351 0 262 0 c 256
 185 0 135 53 135 150 c 258
 135 555 l 1281
463 555 m 257
 463 0 l 1281
234 657 m 257
 369 790 l 1281
EndSplineSet
EndChar

StartChar: ubreve
Encoding: 454 365 452
GlifName: ubreve
Width: 603
VWidth: 0
Flags: W
LayerCount: 2
Fore
SplineSet
463 140 m 257
 423 72 351 0 262 0 c 256
 185 0 135 53 135 150 c 258
 135 555 l 1281
463 555 m 257
 463 0 l 1281
182 762 m 257
 182 707 234 680 300 680 c 256
 366 680 422 706 422 761 c 1280
EndSplineSet
EndChar

StartChar: ucircumflex
Encoding: 455 251 453
GlifName: ucircumflex
Width: 603
VWidth: 0
Flags: W
LayerCount: 2
Fore
SplineSet
463 140 m 257
 423 72 351 0 262 0 c 256
 185 0 135 53 135 150 c 258
 135 555 l 1281
463 555 m 257
 463 0 l 1281
413 648 m 257
 304 774 l 257
 300 774 l 257
 191 648 l 1281
EndSplineSet
EndChar

StartChar: udieresis
Encoding: 456 252 454
GlifName: udieresis
Width: 603
VWidth: 0
Flags: W
LayerCount: 2
Fore
SplineSet
463 140 m 257
 423 72 351 0 262 0 c 256
 185 0 135 53 135 150 c 258
 135 555 l 1281
463 555 m 257
 463 0 l 1281
231 660 m 257
 231 785 l 1281
373 660 m 257
 373 785 l 1281
EndSplineSet
EndChar

StartChar: ugrave
Encoding: 457 249 455
GlifName: ugrave
Width: 603
VWidth: 0
Flags: W
LayerCount: 2
Fore
SplineSet
463 140 m 257
 423 72 351 0 262 0 c 256
 185 0 135 53 135 150 c 258
 135 555 l 1281
463 555 m 257
 463 0 l 1281
234 791 m 257
 369 658 l 1281
EndSplineSet
EndChar

StartChar: uhungarumlaut
Encoding: 458 369 456
GlifName: uhungarumlaut
Width: 603
VWidth: 0
Flags: W
LayerCount: 2
Fore
SplineSet
463 140 m 257
 423 72 351 0 262 0 c 256
 185 0 135 53 135 150 c 258
 135 555 l 1281
463 555 m 257
 463 0 l 1281
175 657 m 257
 302 782 l 1281
322 657 m 257
 449 782 l 1281
EndSplineSet
EndChar

StartChar: umacron
Encoding: 459 363 457
GlifName: umacron
Width: 603
VWidth: 0
Flags: W
LayerCount: 2
Fore
SplineSet
463 140 m 257
 423 72 351 0 262 0 c 256
 185 0 135 53 135 150 c 258
 135 555 l 1281
463 555 m 257
 463 0 l 1281
412 703 m 257
 191 703 l 1281
EndSplineSet
EndChar

StartChar: underscore
Encoding: 460 95 458
GlifName: underscore
Width: 410
VWidth: 0
Flags: W
LayerCount: 2
Back
SplineSet
10 -155 m 257
 400 -155 l 257
 400 -209 l 1281
EndSplineSet
Fore
SplineSet
400 -155 m 257
 10 -155 l 1281
EndSplineSet
EndChar

StartChar: uni00AD
Encoding: 464 173 460
GlifName: uni00A_D_
Width: 417
VWidth: 0
Flags: W
LayerCount: 2
Fore
SplineSet
100 278 m 257
 317 278 l 1281
EndSplineSet
PickledDataWithLists: "(dp0
Vcom.schriftgestaltung.Glyphs.leftMetricsKey
p1
Vhyphen
p2
sVcom.schriftgestaltung.Glyphs.rightMetricsKey
p3
Vhyphen
p4
s."
EndChar

StartChar: uni00B2
Encoding: 465 178 461
GlifName: uni00B_2
Width: 275
VWidth: 0
Flags: W
LayerCount: 2
Fore
SplineSet
232.5 405 m 257
 32.5 405 l 257
 32.5 407 l 257
 144 529.5 l 258
 182 571.5 220 611 220 664.5 c 256
 220 719 180.5 745 137 745 c 256
 93 745 56.5 719 42 676 c 1281
EndSplineSet
PickledDataWithLists: "(dp0
Vcom.schriftgestaltung.Glyphs.leftMetricsKey
p1
Vtwo.dnom
p2
sVcom.schriftgestaltung.Glyphs.rightMetricsKey
p3
Vtwo.dnom
p4
s."
EndChar

StartChar: uni00B3
Encoding: 466 179 462
GlifName: uni00B_3
Width: 283
VWidth: 0
Flags: W
LayerCount: 2
Fore
SplineSet
37.5 466.5 m 257
 47 429.5 83 404.5 131.5 404.5 c 256
 190.5 404.5 228 441.5 228 492.5 c 256
 228 537 200 584.5 124.5 584.5 c 257
 109 584.5 l 1281
124.5 584.5 m 257
 191.5 584.5 223 623 223 668 c 256
 223 709 196 745 136.5 745 c 256
 88.5 745 59.5 721 45 694.5 c 1281
EndSplineSet
PickledDataWithLists: "(dp0
Vcom.schriftgestaltung.Glyphs.leftMetricsKey
p1
Vthree.dnom
p2
sVcom.schriftgestaltung.Glyphs.rightMetricsKey
p3
Vthree.dnom
p4
s."
EndChar

StartChar: uni00B5
Encoding: 467 181 463
GlifName: uni00B_5
Width: 608
VWidth: 0
Flags: W
LayerCount: 2
Back
SplineSet
92 -188 m 257
 150 -188 l 257
 150 58 l 257
 152 58 l 257
 173 25 203 -12 284 -12 c 256
 355 -12 398 18 438 90 c 257
 440 90 l 257
 440 0 l 257
 498 0 l 257
 498 587 l 257
 440 587 l 257
 440 173 l 257
 420 120 372 44 288 44 c 256
 223 44 150 79 150 173 c 258
 150 587 l 257
 92 587 l 257
 92 -188 l 257
EndSplineSet
Fore
SplineSet
140 -188 m 257
 140 135 l 1281
468 140 m 257
 428 72 356 0 267 0 c 256
 190 0 140 53 140 150 c 258
 140 555 l 1281
468 555 m 257
 468 0 l 1281
EndSplineSet
PickledDataWithLists: "(dp0
Vcom.schriftgestaltung.Glyphs.rightMetricsKey
p1
V=|n
p2
s."
EndChar

StartChar: uni00B9
Encoding: 468 185 464
GlifName: uni00B_9
Width: 224
VWidth: 0
Flags: W
LayerCount: 2
Fore
SplineSet
144 405 m 257
 144 740 l 257
 142 740 l 257
 35 664.5 l 1281
EndSplineSet
PickledDataWithLists: "(dp0
Vcom.schriftgestaltung.Glyphs.leftMetricsKey
p1
Vone.dnom
p2
sVcom.schriftgestaltung.Glyphs.rightMetricsKey
p3
Vone.dnom
p4
s."
EndChar

StartChar: uni0122
Encoding: 469 290 465
GlifName: uni0122
Width: 676
VWidth: 0
Flags: W
LayerCount: 2
Fore
SplineSet
566 537 m 257
 529 631 460 680 358 680 c 256
 196 680 95 556 95 340 c 256
 95 152 169 0 363 0 c 256
 443 0 509 26 560 57 c 257
 560 334 l 257
 383 334 l 1281
287 -240 m 257
 365 -85 l 1281
EndSplineSet
EndChar

StartChar: uni0123
Encoding: 470 291 466
GlifName: uni0123
Width: 608
VWidth: 0
Flags: W
LayerCount: 2
Fore
SplineSet
473 421 m 257
 419 517 352 555 280 555 c 256
 157 555 90 447 90 289 c 256
 90 147 144 20 280 20 c 256
 365 20 430 68 473 147 c 1281
127 -107 m 257
 161 -164 218 -190 292 -190 c 256
 407 -190 473 -126 473 -2 c 258
 473 555 l 1281
347 802 m 257
 269 647 l 1281
EndSplineSet
EndChar

StartChar: uni0123.ss01
Encoding: 471 -1 467
GlifName: uni0123.ss01
Width: 562
VWidth: 0
Flags: W
LayerCount: 2
Fore
SplineSet
219 93 m 257
 143 63 80 -6 80 -68 c 256
 80 -151 161 -190 277 -190 c 256
 402 -190 487 -142 487 -59 c 256
 487 109 152 44 152 158 c 256
 152 186 173 216 220 239 c 1281
273 555 m 257
 177 555 101 495 101 394 c 256
 101 297 168 235 275 235 c 256
 380 235 449 294 449 391 c 256
 449 503 363 555 275 555 c 1281
344 543 m 257
 517 543 l 1281
318 802 m 257
 240 647 l 1281
EndSplineSet
EndChar

StartChar: uni0136
Encoding: 472 310 468
GlifName: uni0136
Width: 577
VWidth: 0
Flags: W
LayerCount: 2
Fore
SplineSet
140 0 m 257
 140 680 l 1281
527 0 m 257
 191 359 l 257
 503 680 l 1281
247 -240 m 257
 325 -85 l 1281
EndSplineSet
EndChar

StartChar: uni0137
Encoding: 473 311 469
GlifName: uni0137
Width: 528
VWidth: 0
Flags: W
LayerCount: 2
Fore
SplineSet
140 745 m 257
 140 0 l 1281
478 0 m 257
 200 302 l 257
 456 555 l 1281
240 -240 m 257
 318 -85 l 1281
EndSplineSet
EndChar

StartChar: uni013B
Encoding: 474 315 470
GlifName: uni013B_
Width: 508
VWidth: 0
Flags: W
LayerCount: 2
Fore
SplineSet
458 10 m 257
 140 10 l 257
 140 680 l 1281
205 -240 m 257
 283 -85 l 1281
EndSplineSet
EndChar

StartChar: uni013C
Encoding: 475 316 471
GlifName: uni013C_
Width: 307
VWidth: 0
Flags: W
LayerCount: 2
Fore
SplineSet
252 4 m 257
 245 2 234 0 221 0 c 256
 164 0 135 35 135 107 c 258
 135 745 l 1281
145 -240 m 257
 223 -85 l 1281
EndSplineSet
EndChar

StartChar: uni013C.ss02
Encoding: 476 -1 472
GlifName: uni013C_.ss02
Width: 270
VWidth: 0
Flags: W
LayerCount: 2
Fore
SplineSet
140 0 m 257
 140 745 l 1281
60 -240 m 257
 138 -85 l 1281
EndSplineSet
EndChar

StartChar: uni0145
Encoding: 477 325 473
GlifName: uni0145
Width: 740
VWidth: 0
Flags: W
LayerCount: 2
Fore
SplineSet
140 0 m 257
 140 675 l 257
 144 675 l 257
 596 5 l 257
 600 5 l 257
 599 680 l 1281
321 -240 m 257
 399 -85 l 1281
EndSplineSet
EndChar

StartChar: uni0146
Encoding: 478 326 474
GlifName: uni0146
Width: 608
VWidth: 0
Flags: W
LayerCount: 2
Fore
SplineSet
140 555 m 257
 140 0 l 1281
473 0 m 257
 473 415 l 258
 473 502 433 555 356 555 c 256
 267 555 201 485 140 415 c 1281
265 -240 m 257
 343 -85 l 1281
EndSplineSet
EndChar

StartChar: uni0156
Encoding: 479 342 475
GlifName: uni0156
Width: 604
VWidth: 0
Flags: W
LayerCount: 2
Fore
SplineSet
140 0 m 257
 140 670 l 1281
519 0 m 257
 343 344 l 1281
140 344 m 257
 325 344 l 258
 423 344 506 404 506 507 c 256
 506 594 447 670 313 670 c 258
 140 670 l 1281
256 -240 m 257
 334 -85 l 1281
EndSplineSet
EndChar

StartChar: uni0157
Encoding: 480 343 476
GlifName: uni0157
Width: 394
VWidth: 0
Flags: W
LayerCount: 2
Fore
SplineSet
140 555 m 257
 140 0 l 1281
140 415 m 257
 211 497 277 555 338 555 c 1280
61 -240 m 257
 139 -85 l 1281
EndSplineSet
EndChar

StartChar: uni0162
Encoding: 481 354 477
GlifName: uni0162
Width: 520
VWidth: 0
Flags: W
LayerCount: 2
Fore
SplineSet
260 0 m 257
 260 670 l 1281
40 670 m 257
 480 670 l 1281
180 -177 m 256
 193 -184 212 -191 241 -191 c 256
 293 -191 325 -168 325 -132 c 256
 325 -95 294 -78 240 -78 c 258
 214 -78 l 257
 260 0 l 1281
EndSplineSet
EndChar

StartChar: uni0163
Encoding: 482 355 478
GlifName: uni0163
Width: 387
VWidth: 0
Flags: W
LayerCount: 2
Fore
SplineSet
327 27 m 256
 309 11 281 0 247 0 c 256
 185 0 150 35 150 117 c 258
 150 660 l 1281
50 501 m 257
 313 501 l 1281
164 -177 m 256
 177 -184 196 -191 225 -191 c 256
 277 -191 309 -168 309 -132 c 256
 309 -95 278 -78 224 -78 c 258
 198 -78 l 257
 244 0 l 1281
EndSplineSet
EndChar

StartChar: uni0218
Encoding: 483 536 479
GlifName: uni0218
Width: 566
VWidth: 0
Flags: W
LayerCount: 2
Fore
SplineSet
95 109 m 257
 123 43 193 0 285 0 c 256
 404 0 476 74 476 163 c 256
 476 364 109 334 109 526 c 256
 109 605 171 680 293 680 c 256
 379 680 432 642 456 590 c 1281
243 -240 m 257
 321 -85 l 1281
EndSplineSet
EndChar

StartChar: uni0219
Encoding: 484 537 480
GlifName: uni0219
Width: 521
VWidth: 0
Flags: W
LayerCount: 2
Fore
SplineSet
90 118 m 256
 114 44 185 0 270 0 c 256
 351 0 436 41 436 135 c 256
 436 320 109 256 109 430 c 256
 109 518 193 555 265 555 c 256
 335 555 390 520 415 462 c 1281
216 -240 m 257
 294 -85 l 1281
EndSplineSet
EndChar

StartChar: uni021A
Encoding: 485 538 481
GlifName: uni021A_
Width: 520
VWidth: 0
Flags: W
LayerCount: 2
Back
Refer: 0 -1 N 1 0 0 1 201 0 2
Fore
SplineSet
181 -222 m 257
 259 -67 l 1281
260 0 m 257
 260 670 l 1281
40 670 m 257
 480 670 l 1281
EndSplineSet
EndChar

StartChar: uni021B
Encoding: 486 539 482
GlifName: uni021B_
Width: 387
VWidth: 0
Flags: W
LayerCount: 2
Fore
SplineSet
327 27 m 256
 309 11 281 0 247 0 c 256
 185 0 150 35 150 117 c 258
 150 660 l 1281
50 501 m 257
 313 501 l 1281
195 -240 m 257
 273 -85 l 1281
EndSplineSet
EndChar

StartChar: uni0237
Encoding: 487 567 483
GlifName: uni0237
Width: 293
VWidth: 0
Flags: W
LayerCount: 2
Back
SplineSet
0 -165 m 257
 15 -179 39 -190 72 -190 c 256
 135 -190 158 -152 158 -83 c 258
 158 555 l 1281
EndSplineSet
Fore
SplineSet
0 -165 m 257
 15 -179 39 -190 72 -190 c 256
 135 -190 158 -152 158 -83 c 258
 158 555 l 1281
EndSplineSet
PickledDataWithLists: "(dp0
Vcom.schriftgestaltung.Glyphs.rightMetricsKey
p1
Vn
p2
s."
EndChar

StartChar: uni0302
Encoding: 488 770 484
GlifName: uni0302
Width: 242
VWidth: 0
Flags: W
LayerCount: 2
Back
SplineSet
222 648 m 257
 113 774 l 257
 109 774 l 257
 0 648 l 1281
EndSplineSet
Fore
SplineSet
232 648 m 257
 123 774 l 257
 119 774 l 257
 10 648 l 1281
EndSplineSet
Guideline: "" "" 159 -64 0 0 0
EndChar

StartChar: uni0304
Encoding: 489 772 485
GlifName: uni0304
Width: 241
VWidth: 0
Flags: W
LayerCount: 2
Back
SplineSet
10 703 m 257
 231 703 l 257
 231 649 l 1281
EndSplineSet
Fore
SplineSet
231 703 m 257
 10 703 l 1281
EndSplineSet
EndChar

StartChar: uni0306
Encoding: 490 774 486
GlifName: uni0306
Width: 260
VWidth: 0
Flags: W
LayerCount: 2
Fore
SplineSet
10 762 m 257
 10 707 62 680 128 680 c 256
 194 680 250 706 250 761 c 1280
EndSplineSet
EndChar

StartChar: uni0307
Encoding: 491 775 487
GlifName: uni0307
Width: 80
VWidth: 0
Flags: W
LayerCount: 2
Back
SplineSet
40 678 m 257
 40 785 l 257
 -14 785 l 1281
EndSplineSet
Fore
SplineSet
40 678 m 257
 40 785 l 1281
EndSplineSet
EndChar

StartChar: uni0308
Encoding: 492 776 488
GlifName: uni0308
Width: 162
VWidth: 0
Flags: W
LayerCount: 2
Back
SplineSet
152 660 m 257
 152 785 l 257
 98 785 l 1281
10 660 m 257
 10 785 l 257
 -44 785 l 1281
EndSplineSet
Fore
SplineSet
10 660 m 257
 10 785 l 1281
152 660 m 257
 152 785 l 1281
EndSplineSet
EndChar

StartChar: uni030A
Encoding: 493 778 489
GlifName: uni030A_
Width: 167
VWidth: 0
Flags: W
LayerCount: 2
Fore
SplineSet
83 791 m 257
 42 791 10 758 10 718 c 256
 10 678 43 645 83 645 c 256
 124 645 157 678 157 718 c 256
 157 758 124 791 83 791 c 1281
EndSplineSet
EndChar

StartChar: uni030B
Encoding: 494 779 490
GlifName: uni030B_
Width: 294
VWidth: 0
Flags: W
LayerCount: 2
Fore
SplineSet
10 657 m 257
 137 782 l 1281
157 657 m 257
 284 782 l 1281
EndSplineSet
EndChar

StartChar: uni030C
Encoding: 495 780 491
GlifName: uni030C_
Width: 242
VWidth: 0
Flags: W
LayerCount: 2
Fore
SplineSet
10 776 m 257
 119 650 l 257
 123 650 l 257
 232 776 l 1281
EndSplineSet
EndChar

StartChar: uni030C.alt
Encoding: 496 -1 492
GlifName: uni030C_.alt
Width: 137
VWidth: 0
Flags: W
LayerCount: 2
Fore
SplineSet
50 607 m 257
 107 690 l 257
 107 774 l 1281
EndSplineSet
EndChar

StartChar: uni0312
Encoding: 497 786 493
GlifName: uni0312
Width: 98
VWidth: 0
Flags: W
LayerCount: 2
Fore
SplineSet
88 802 m 257
 10 647 l 1281
EndSplineSet
EndChar

StartChar: uni0326
Encoding: 498 806 494
GlifName: uni0326
Width: 98
VWidth: 0
Flags: W
LayerCount: 2
Fore
SplineSet
10 -240 m 257
 88 -85 l 1281
EndSplineSet
EndChar

StartChar: uni0327
Encoding: 499 807 495
GlifName: uni0327
Width: 165
VWidth: 0
Flags: W
LayerCount: 2
Fore
SplineSet
10 -177 m 256
 23 -184 42 -191 71 -191 c 256
 123 -191 155 -168 155 -132 c 256
 155 -95 124 -78 70 -78 c 258
 44 -78 l 257
 90 0 l 1281
EndSplineSet
EndChar

StartChar: uni0328
Encoding: 500 808 496
GlifName: uni0328
Width: 159
VWidth: 0
Flags: W
LayerCount: 2
Fore
SplineSet
149 -184 m 256
 136 -192 111 -200 87 -200 c 256
 37 -200 10 -175 10 -130 c 256
 10 -87 61 -38 108 0 c 1281
EndSplineSet
EndChar

StartChar: uni1E9E
Encoding: 501 7838 497
GlifName: uni1E_9E_
Width: 624
VWidth: 0
Flags: W
LayerCount: 2
Back
SplineSet
260 24 m 257
 283 11 318 0 361 0 c 256
 472 0 554 74 554 186 c 256
 554 311 453 388 347 401 c 257
 511 666 l 257
 511 670 l 257
 140 670 l 257
 140 0 l 1281
EndSplineSet
Fore
SplineSet
260 24 m 257
 283 11 318 0 361 0 c 256
 472 0 554 74 554 186 c 256
 554 311 453 388 347 401 c 257
 511 666 l 257
 511 670 l 257
 140 670 l 257
 140 0 l 1281
EndSplineSet
PickledDataWithLists: "(dp0
Vcom.schriftgestaltung.Glyphs.leftMetricsKey
p1
VH
p2
s."
EndChar

StartChar: uni2042
Encoding: 502 8258 498
GlifName: uni2042
Width: 952
VWidth: 0
Flags: W
LayerCount: 2
Fore
SplineSet
332 10 m 257
 236 145 l 257
 140 10 l 1281
80 190 m 257
 236 145 l 257
 392 190 l 1281
236 144 m 257
 236 305 l 1281
812 10 m 257
 716 145 l 257
 620 10 l 1281
560 190 m 257
 716 145 l 257
 872 190 l 1281
572 385 m 257
 476 520 l 257
 380 385 l 1281
716 144 m 257
 716 305 l 1281
320 565 m 257
 476 520 l 257
 632 565 l 1281
476 519 m 257
 476 680 l 1281
EndSplineSet
EndChar

StartChar: uni2070
Encoding: 503 8304 499
GlifName: uni2070
Width: 311
VWidth: 0
Flags: W
LayerCount: 2
Fore
SplineSet
155 745 m 257
 81 745 45 668.5 45 573.5 c 256
 45 477.5 81 405 155.5 405 c 256
 230 405 266 477.5 266 573.5 c 256
 266 668.5 230 745 156 745 c 1281
EndSplineSet
PickledDataWithLists: "(dp0
Vcom.schriftgestaltung.Glyphs.leftMetricsKey
p1
Vzero.dnom
p2
sVcom.schriftgestaltung.Glyphs.rightMetricsKey
p3
Vzero.dnom
p4
s."
EndChar

StartChar: uni2070.zero
Encoding: 504 -1 500
GlifName: uni2070.zero
Width: 311
VWidth: 0
Flags: W
LayerCount: 2
Fore
SplineSet
79 444.5 m 257
 234.5 701 l 1281
155 745 m 257
 81 745 45 668.5 45 573.5 c 256
 45 477.5 81 405 155.5 405 c 256
 230 405 266 477.5 266 573.5 c 256
 266 668.5 230 745 156 745 c 1281
EndSplineSet
PickledDataWithLists: "(dp0
Vcom.schriftgestaltung.Glyphs.leftMetricsKey
p1
Vzero.dnom
p2
sVcom.schriftgestaltung.Glyphs.rightMetricsKey
p3
Vzero.dnom
p4
s."
EndChar

StartChar: uni2074
Encoding: 505 8308 501
GlifName: uni2074
Width: 285
VWidth: 0
Flags: W
LayerCount: 2
Fore
SplineSet
192.5 405 m 257
 192.5 739.933 l 257
 187.5 739.933 l 257
 32.5 486.9836 l 257
 32.5 484.984 l 257
 254.5 484.984 l 1281
EndSplineSet
PickledDataWithLists: "(dp0
Vcom.schriftgestaltung.Glyphs.leftMetricsKey
p1
Vfour.dnom
p2
sVcom.schriftgestaltung.Glyphs.rightMetricsKey
p3
Vfour.dnom
p4
s."
EndChar

StartChar: uni2075
Encoding: 506 8309 502
GlifName: uni2075
Width: 279
VWidth: 0
Flags: W
LayerCount: 2
Fore
SplineSet
47.5 474 m 256
 63.5 429.5 96.5 405 138 405 c 256
 192.5 405 233.5 447 233.5 509 c 256
 233.5 567.5 196.5 612.5 137 612.5 c 256
 114 612.5 84.5 606 63.5 593 c 257
 68.5 740 l 257
 224.5 740 l 1281
EndSplineSet
PickledDataWithLists: "(dp0
Vcom.schriftgestaltung.Glyphs.leftMetricsKey
p1
Vfive.dnom
p2
sVcom.schriftgestaltung.Glyphs.rightMetricsKey
p3
Vfive.dnom
p4
s."
EndChar

StartChar: uni2076
Encoding: 507 8310 503
GlifName: uni2076
Width: 276
VWidth: 0
Flags: W
LayerCount: 2
Fore
SplineSet
180 745 m 257
 100.5 639 l 258
 59.5 584.5 45 547 45 507.5 c 256
 45 457.5 72 405 146 405 c 256
 210 405 246 447 246 504 c 256
 246 567 200.5 605.5 149 605.5 c 256
 114.5 605.5 75.5 589 52.5 553.5 c 1280
EndSplineSet
PickledDataWithLists: "(dp0
Vcom.schriftgestaltung.Glyphs.leftMetricsKey
p1
Vzero.dnom
p2
sVcom.schriftgestaltung.Glyphs.rightMetricsKey
p3
V=zero.dnom-15
p4
s."
EndChar

StartChar: uni2077
Encoding: 508 8311 504
GlifName: uni2077
Width: 248
VWidth: 0
Flags: W
LayerCount: 2
Fore
SplineSet
63 405 m 257
 222.5 738 l 257
 222.5 740 l 257
 20 740 l 1281
EndSplineSet
PickledDataWithLists: "(dp0
Vcom.schriftgestaltung.Glyphs.leftMetricsKey
p1
Vseven.dnom
p2
sVcom.schriftgestaltung.Glyphs.rightMetricsKey
p3
Vseven.dnom
p4
s."
EndChar

StartChar: uni2078
Encoding: 509 8312 505
GlifName: uni2078
Width: 280
VWidth: 0
Flags: W
LayerCount: 2
Fore
SplineSet
139 745 m 257
 188.5 745 223 714 223 673.5 c 256
 223 581.5 45 590 45 486 c 256
 45 433.5 90.5 405 139 405 c 256
 187 405 234.5 433 234.5 486 c 256
 234.5 589 56 580 56 673.5 c 256
 56 710 83 745 138 745 c 1281
EndSplineSet
PickledDataWithLists: "(dp0
Vcom.schriftgestaltung.Glyphs.leftMetricsKey
p1
Vzero.dnom
p2
sVcom.schriftgestaltung.Glyphs.rightMetricsKey
p3
Vzero.dnom
p4
s."
EndChar

StartChar: uni2079
Encoding: 510 8313 506
GlifName: uni2079
Width: 276
VWidth: 0
Flags: W
LayerCount: 2
Fore
SplineSet
95.5 405 m 257
 175 511 l 258
 216 565.5 230.5 603 230.5 642.5 c 256
 230.5 692.5 203.5 745 129.5 745 c 256
 65.5 745 29.5 703 29.5 646 c 256
 29.5 583 75 544.5 126.5 544.5 c 256
 161 544.5 200 561 223 596.5 c 1280
EndSplineSet
PickledDataWithLists: "(dp0
Vcom.schriftgestaltung.Glyphs.leftMetricsKey
p1
V=zero.dnom-15
p2
sVcom.schriftgestaltung.Glyphs.rightMetricsKey
p3
Vzero.dnom
p4
s."
EndChar

StartChar: uni2113
Encoding: 511 8467 507
GlifName: uni2113
Width: 466
VWidth: 0
Flags: W
LayerCount: 2
Back
SplineSet
80 145 m 257
 231 260 354 402 354 555 c 256
 354 628 326 680 265 680 c 256
 208 680 164 634 164 486 c 258
 164 182 l 258
 164 65 203 0 282 0 c 256
 353 0 387 53 396 84 c 1280
EndSplineSet
Fore
SplineSet
80 145 m 257
 231 260 354 402 354 555 c 256
 354 628 326 680 265 680 c 256
 208 680 164 634 164 486 c 258
 164 182 l 258
 164 65 203 0 282 0 c 256
 353 0 387 53 396 84 c 1280
EndSplineSet
Guideline: "" "" 210 -64 0 0 0
EndChar

StartChar: uni2153
Encoding: 512 8531 508
GlifName: uni2153
Width: 639
VWidth: 0
Flags: W
LayerCount: 2
Fore
SplineSet
393.5 61.5 m 257
 403 24.5 439 -0.5 487.5 -0.5 c 256
 546.5 -0.5 584 36.5 584 87.5 c 256
 584 132 556 179.5 480.5 179.5 c 257
 465 179.5 l 1281
480.5 179.5 m 257
 547.5 179.5 579 218 579 263 c 256
 579 304 552 340 492.5 340 c 256
 444.5 340 415.5 316 401 289.5 c 1281
114 0 m 257
 471 680 l 1281
144 340 m 257
 144 675 l 257
 142 675 l 257
 35 599.5 l 1281
EndSplineSet
PickledDataWithLists: "(dp0
Vcom.schriftgestaltung.Glyphs.lastChange
p1
V2021-03-17 07:33:32 +0000
p2
s."
EndChar

StartChar: uni2154
Encoding: 513 8532 509
GlifName: uni2154
Width: 660
VWidth: 0
Flags: W
LayerCount: 2
Fore
SplineSet
232.5 340 m 257
 32.5 340 l 257
 32.5 342 l 257
 144 464.5 l 258
 182 506.5 220 546 220 599.5 c 256
 220 654 180.5 680 137 680 c 256
 93 680 56.5 654 42 611 c 1281
434.5 61.5 m 257
 444 24.5 480 -0.5 528.5 -0.5 c 256
 587.5 -0.5 625 36.5 625 87.5 c 256
 625 132 597 179.5 521.5 179.5 c 257
 506 179.5 l 1281
521.5 179.5 m 257
 588.5 179.5 620 218 620 263 c 256
 620 304 593 340 533.5 340 c 256
 485.5 340 456.5 316 442 289.5 c 1281
155 0 m 257
 512 680 l 1281
EndSplineSet
PickledDataWithLists: "(dp0
Vcom.schriftgestaltung.Glyphs.lastChange
p1
V2021-03-17 07:33:32 +0000
p2
s."
EndChar

StartChar: uni2196
Encoding: 514 8598 510
GlifName: uni2196
Width: 746
VWidth: 0
Flags: W
LayerCount: 2
Fore
SplineSet
636 62 m 257
 163 574 l 1281
579 574 m 257
 162 575 l 257
 130 159 l 1281
EndSplineSet
PickledDataWithLists: "(dp0
Vcom.schriftgestaltung.Glyphs.leftMetricsKey
p1
V=|northEastArrow
p2
sVcom.schriftgestaltung.Glyphs.rightMetricsKey
p3
V=|northEastArrow
p4
s."
EndChar

StartChar: uni2197
Encoding: 515 8599 511
GlifName: uni2197
Width: 746
VWidth: 0
Flags: W
LayerCount: 2
Fore
SplineSet
582.6347 573.7869 m 257
 109.6505 61.8404 l 1281
616.0265 159.0063 m 257
 583.9919 575.2559 l 257
 166.5125 574.3095 l 1281
EndSplineSet
Guideline: "" "" 35 548 0 0 0
EndChar

StartChar: uni2198
Encoding: 516 8600 512
GlifName: uni2198
Width: 746
VWidth: 0
Flags: W
LayerCount: 2
Fore
SplineSet
110 568 m 257
 583 56 l 1281
167 56 m 257
 584 55 l 257
 616 471 l 1281
EndSplineSet
PickledDataWithLists: "(dp0
Vcom.schriftgestaltung.Glyphs.leftMetricsKey
p1
VnorthEastArrow
p2
sVcom.schriftgestaltung.Glyphs.rightMetricsKey
p3
VnorthEastArrow
p4
s."
EndChar

StartChar: uni2199
Encoding: 517 8601 513
GlifName: uni2199
Width: 746
VWidth: 0
Flags: W
LayerCount: 2
Fore
SplineSet
163 56 m 257
 636 568 l 1281
130 471 m 257
 162 55 l 257
 579 56 l 1281
EndSplineSet
PickledDataWithLists: "(dp0
Vcom.schriftgestaltung.Glyphs.leftMetricsKey
p1
V=|northEastArrow
p2
sVcom.schriftgestaltung.Glyphs.rightMetricsKey
p3
V=|northEastArrow
p4
s."
EndChar

StartChar: uni2219
Encoding: 518 8729 514
GlifName: uni2219
Width: 320
VWidth: 0
Flags: W
LayerCount: 2
Fore
SplineSet
159 356 m 256
 132 356 110 334 110 306 c 256
 110 278 132 256 160 256 c 256
 188 256 210 278 210 306 c 256
 210 334 188 356 161 356 c 1281
EndSplineSet
EndChar

StartChar: uni25A1
Encoding: 519 9633 515
GlifName: uni25A_1
Width: 940
VWidth: 0
Flags: W
LayerCount: 2
Fore
SplineSet
140 668 m 257
 140 10 l 257
 800 10 l 257
 800 670 l 257
 140 670 l 1281
EndSplineSet
PickledDataWithLists: "(dp0
Vcom.schriftgestaltung.Glyphs.leftMetricsKey
p1
VH
p2
sVcom.schriftgestaltung.Glyphs.rightMetricsKey
p3
g2
s."
EndChar

StartChar: uni25B3
Encoding: 520 9651 516
GlifName: uni25B_3
Width: 819
VWidth: 0
Flags: W
LayerCount: 2
Fore
SplineSet
30 10 m 257
 789 10 l 257
 410 670 l 257
 31 12 l 1281
EndSplineSet
EndChar

StartChar: uni25B5
Encoding: 521 9653 517
GlifName: uni25B_5
Width: 665
VWidth: 0
Flags: W
LayerCount: 2
Fore
SplineSet
20 10 m 257
 645 10 l 257
 332 545 l 257
 21 12 l 1281
EndSplineSet
EndChar

StartChar: uni25C7
Encoding: 522 9671 518
GlifName: uni25C_7
Width: 780
VWidth: 0
Flags: W
LayerCount: 2
Fore
SplineSet
50 339 m 257
 390 0 l 257
 730 340 l 257
 390 680 l 257
 50 340 l 1281
EndSplineSet
EndChar

StartChar: uni25E3
Encoding: 523 9699 519
GlifName: uni25E_3
Width: 669
VWidth: 0
Flags: W
LayerCount: 2
Fore
SplineSet
61 278 m 257
 334 0 l 257
 609 278 l 257
 335 555 l 257
 60 278 l 1281
EndSplineSet
EndChar

StartChar: uni25FB
Encoding: 524 9723 520
GlifName: uni25F_B_
Width: 815
VWidth: 0
Flags: W
LayerCount: 2
Fore
SplineSet
140 543 m 257
 140 10 l 257
 675 10 l 257
 675 545 l 257
 140 545 l 1281
EndSplineSet
EndChar

StartChar: uni26AA
Encoding: 525 9898 521
GlifName: uni26A_A_
Width: 715
VWidth: 0
Flags: W
LayerCount: 2
Fore
SplineSet
356 555 m 257
 204 555 80 431 80 278 c 256
 80 124 204 0 358 0 c 256
 511 0 635 124 635 278 c 256
 635 431 511 555 359 555 c 1281
EndSplineSet
EndChar

StartChar: uni27F2
Encoding: 526 10226 522
GlifName: uni27F_2
Width: 860
VWidth: 0
Flags: W
LayerCount: 2
Fore
SplineSet
119 182 m 257
 175 74 289 0 420 0 c 256
 608 0 760 152 760 340 c 256
 760 528 608 680 420 680 c 256
 289 680 176 607 119 499 c 1281
110 745 m 257
 119 499 l 257
 365 490 l 1281
EndSplineSet
PickledDataWithLists: "(dp0
Vcom.schriftgestaltung.Glyphs.leftMetricsKey
p1
V=|clockwiseGappedCircleArrow
p2
sVcom.schriftgestaltung.Glyphs.rightMetricsKey
p3
V=|clockwiseGappedCircleArrow
p4
s."
EndChar

StartChar: uni27F3
Encoding: 527 10227 523
GlifName: uni27F_3
Width: 860
VWidth: 0
Flags: W
LayerCount: 2
Back
SplineSet
440 0 m 256
 628 0 780 152 780 340 c 256
 780 528 628 680 440 680 c 256
 252 680 100 528 100 340 c 256
 100 152 252 0 440 0 c 256
EndSplineSet
Fore
SplineSet
741 499 m 257
 684 607 571 680 440 680 c 256
 252 680 100 528 100 340 c 256
 100 152 252 0 440 0 c 256
 571 0 685 74 741 182 c 1281
495 490 m 257
 741 499 l 257
 750 745 l 1281
EndSplineSet
EndChar

StartChar: uogonek
Encoding: 528 371 524
GlifName: uogonek
Width: 603
VWidth: 0
Flags: W
LayerCount: 2
Fore
SplineSet
463 140 m 257
 423 72 351 0 262 0 c 256
 185 0 135 53 135 150 c 258
 135 555 l 1281
463 555 m 257
 463 0 l 1281
504 -184 m 256
 491 -192 466 -200 442 -200 c 256
 392 -200 365 -175 365 -130 c 256
 365 -87 416 -38 463 0 c 1281
EndSplineSet
EndChar

StartChar: uring
Encoding: 529 367 525
GlifName: uring
Width: 603
VWidth: 0
Flags: W
LayerCount: 2
Fore
SplineSet
463 140 m 257
 423 72 351 0 262 0 c 256
 185 0 135 53 135 150 c 258
 135 555 l 1281
463 555 m 257
 463 0 l 1281
301 791 m 257
 260 791 228 758 228 718 c 256
 228 678 261 645 301 645 c 256
 342 645 375 678 375 718 c 256
 375 758 342 791 301 791 c 1281
EndSplineSet
EndChar

StartChar: utilde
Encoding: 530 361 526
GlifName: utilde
Width: 603
VWidth: 0
Flags: W
LayerCount: 2
Fore
SplineSet
463 140 m 257
 423 72 351 0 262 0 c 256
 185 0 135 53 135 150 c 258
 135 555 l 1281
463 555 m 257
 463 0 l 1281
163 687 m 257
 185 724 212 735 237 735 c 256
 284 735 314 687 367 687 c 256
 392 687 418 696 441 734 c 1281
EndSplineSet
EndChar

StartChar: v
Encoding: 531 118 527
GlifName: v
Width: 539
VWidth: 0
Flags: W
LayerCount: 2
Back
SplineSet
60 555 m 257
 268 0 l 257
 274 0 l 257
 479 555 l 1281
EndSplineSet
Fore
SplineSet
60 555 m 257
 268 0 l 257
 274 0 l 257
 479 555 l 1281
EndSplineSet
EndChar

StartChar: w
Encoding: 532 119 528
GlifName: w
Width: 817
VWidth: 0
Flags: W
LayerCount: 2
Back
SplineSet
70 555 m 257
 237 0 l 257
 241 0 l 257
 408 545 l 257
 412 545 l 257
 584 0 l 257
 588 0 l 257
 747 555 l 1281
EndSplineSet
Fore
SplineSet
70 555 m 257
 237 0 l 257
 241 0 l 257
 408 545 l 257
 412 545 l 257
 584 0 l 257
 588 0 l 257
 747 555 l 1281
EndSplineSet
PickledDataWithLists: "(dp0
Vcom.schriftgestaltung.Glyphs.leftMetricsKey
p1
V=v+10
p2
sVcom.schriftgestaltung.Glyphs.rightMetricsKey
p3
V=v+10
p4
s."
EndChar

StartChar: wacute
Encoding: 533 7811 529
GlifName: wacute
Width: 817
VWidth: 0
Flags: W
LayerCount: 2
Fore
SplineSet
70 555 m 257
 237 0 l 257
 241 0 l 257
 408 545 l 257
 412 545 l 257
 584 0 l 257
 588 0 l 257
 747 555 l 1281
341 657 m 257
 476 790 l 1281
EndSplineSet
EndChar

StartChar: wcircumflex
Encoding: 534 373 530
GlifName: wcircumflex
Width: 817
VWidth: 0
Flags: W
LayerCount: 2
Fore
SplineSet
70 555 m 257
 237 0 l 257
 241 0 l 257
 408 545 l 257
 412 545 l 257
 584 0 l 257
 588 0 l 257
 747 555 l 1281
520 648 m 257
 411 774 l 257
 407 774 l 257
 298 648 l 1281
EndSplineSet
EndChar

StartChar: wdieresis
Encoding: 535 7813 531
GlifName: wdieresis
Width: 817
VWidth: 0
Flags: W
LayerCount: 2
Fore
SplineSet
70 555 m 257
 237 0 l 257
 241 0 l 257
 408 545 l 257
 412 545 l 257
 584 0 l 257
 588 0 l 257
 747 555 l 1281
338 660 m 257
 338 785 l 1281
480 660 m 257
 480 785 l 1281
EndSplineSet
EndChar

StartChar: wgrave
Encoding: 536 7809 532
GlifName: wgrave
Width: 817
VWidth: 0
Flags: W
LayerCount: 2
Fore
SplineSet
70 555 m 257
 237 0 l 257
 241 0 l 257
 408 545 l 257
 412 545 l 257
 584 0 l 257
 588 0 l 257
 747 555 l 1281
341 791 m 257
 476 658 l 1281
EndSplineSet
EndChar

StartChar: x
Encoding: 537 120 533
GlifName: x
Width: 540
VWidth: 0
Flags: W
LayerCount: 2
Back
SplineSet
70 0 m 257
 458 555 l 1281
470 0 m 257
 95 555 l 1281
EndSplineSet
Fore
SplineSet
70 0 m 257
 458 555 l 1281
470 0 m 257
 95 555 l 1281
EndSplineSet
EndChar

StartChar: y
Encoding: 538 121 534
GlifName: y
Width: 538
VWidth: 0
Flags: W
LayerCount: 2
Back
SplineSet
103 -175 m 257
 119 -185 138 -190 156 -190 c 256
 213 -190 242 -138 276 -16 c 257
 478 555 l 1281
276 -16 m 257
 70 555 l 1281
EndSplineSet
Fore
SplineSet
276 -16 m 257
 70 555 l 1281
103 -175 m 257
 119 -185 138 -190 156 -190 c 256
 213 -190 242 -138 276 -16 c 257
 478 555 l 1281
EndSplineSet
EndChar

